<svg xmlns="http://www.w3.org/2000/svg" xmlns:xlink="http://www.w3.org/1999/xlink" id="Capa_1" x="0" y="0" version="1.1" viewBox="197.1 -52.4 425 136" xml:space="preserve" style="enable-background:new 197.1 -52.4 425 136"><style type="text/css">.st0,.st1{fill-rule:evenodd;clip-rule:evenodd;fill:#fff}.st1{fill:red}</style><g><path d="M205.3,70.1h-2.9v5h-5.3V56.3h8.6c1.7,0,3.2,0.3,4.4,0.8c1.3,0.6,2.2,1.4,2.9,2.4c0.7,1,1,2.3,1,3.7 c0,1.4-0.3,2.5-1,3.5c-0.6,1-1.5,1.8-2.7,2.4l4,5.9h-5.7L205.3,70.1L205.3,70.1z M208.6,63.3c0-0.9-0.3-1.6-0.8-2 c-0.6-0.5-1.4-0.7-2.5-0.7h-2.9V66h2.9c1.1,0,1.9-0.2,2.5-0.7C208.4,64.8,208.6,64.1,208.6,63.3L208.6,63.3z M232.8,67.8 c0,0,0,0.5-0.1,1.3h-10.6c0.2,0.8,0.6,1.3,1.2,1.7c0.6,0.4,1.4,0.6,2.3,0.6c0.7,0,1.3-0.1,1.8-0.3c0.5-0.2,1-0.5,1.5-1l2.7,2.8 c-1.4,1.6-3.5,2.4-6.2,2.4c-1.7,0-3.2-0.3-4.5-1c-1.3-0.6-2.3-1.5-3-2.7c-0.7-1.1-1.1-2.4-1.1-3.9c0-1.4,0.3-2.7,1-3.8 c0.7-1.1,1.6-2,2.9-2.7c1.2-0.6,2.6-1,4.1-1c1.4,0,2.8,0.3,3.9,0.9c1.2,0.6,2.1,1.5,2.8,2.6S232.8,66.3,232.8,67.8L232.8,67.8z M225,63.9c-0.8,0-1.4,0.2-2,0.7c-0.5,0.4-0.9,1.1-1,1.8h5.9c-0.1-0.8-0.5-1.4-1-1.8C226.5,64.2,225.8,63.9,225,63.9L225,63.9z M245.8,60.3c1.8,0,3.3,0.5,4.4,1.6c1.1,1.1,1.6,2.7,1.6,4.8v8.3h-5.1v-7.5c0-2-0.8-3-2.4-3c-0.9,0-1.6,0.3-2.1,0.9 c-0.5,0.6-0.8,1.4-0.8,2.6v7h-5.1V60.6h4.8v1.6c0.6-0.6,1.3-1,2-1.4C244,60.5,244.9,60.3,245.8,60.3L245.8,60.3z M266.3,74.5 c-0.4,0.3-1,0.5-1.6,0.6c-0.6,0.1-1.3,0.2-2,0.2c-1.9,0-3.3-0.5-4.4-1.4c-1-0.9-1.5-2.3-1.5-4.2v-4.9h-2.1v-3.8h2.1v-3.8h5.1v3.8 h3.3v3.8h-3.3v4.8c0,0.5,0.1,0.9,0.4,1.2c0.3,0.3,0.6,0.4,1.1,0.4c0.6,0,1.1-0.2,1.6-0.5L266.3,74.5L266.3,74.5z M275.7,60.3 c2.4,0,4.3,0.5,5.5,1.6c1.3,1.1,1.9,2.8,1.9,5v8.1h-4.7v-1.9c-0.7,1.4-2.2,2.1-4.3,2.1c-1.1,0-2.1-0.2-2.9-0.6 c-0.8-0.4-1.4-0.9-1.9-1.6c-0.4-0.7-0.6-1.4-0.6-2.3c0-1.4,0.5-2.4,1.6-3.2c1.1-0.8,2.7-1.1,4.9-1.1h2.9c-0.1-1.5-1.1-2.3-3.1-2.3 c-0.7,0-1.4,0.1-2.1,0.3c-0.7,0.2-1.3,0.5-1.8,0.9l-1.7-3.5c0.8-0.5,1.8-1,2.9-1.2C273.4,60.5,274.5,60.3,275.7,60.3L275.7,60.3z M275.5,72.1c0.6,0,1.1-0.1,1.6-0.4c0.4-0.3,0.8-0.7,1-1.3v-1.3h-2.2c-1.5,0-2.2,0.5-2.2,1.5c0,0.4,0.2,0.8,0.5,1.1 C274.4,72,274.9,72.1,275.5,72.1L275.5,72.1z M312.1,55.2v19.9h-4.8v-1.4c-0.9,1.1-2.4,1.7-4.3,1.7c-1.3,0-2.5-0.3-3.6-0.9 c-1.1-0.6-2-1.5-2.6-2.6c-0.6-1.1-1-2.5-1-4c0-1.5,0.3-2.8,1-4c0.6-1.1,1.5-2,2.6-2.6c1.1-0.6,2.3-0.9,3.6-0.9c1.7,0,3.1,0.5,4,1.5 v-6.6H312.1L312.1,55.2z M304.1,71.3c0.9,0,1.6-0.3,2.2-0.9c0.6-0.6,0.9-1.5,0.9-2.6c0-1.1-0.3-1.9-0.8-2.5 c-0.6-0.6-1.3-0.9-2.2-0.9s-1.6,0.3-2.2,0.9c-0.6,0.6-0.9,1.4-0.9,2.5c0,1.1,0.3,1.9,0.9,2.6C302.5,71,303.2,71.3,304.1,71.3 L304.1,71.3z M331.5,67.8c0,0,0,0.5-0.1,1.3h-10.6c0.2,0.8,0.6,1.3,1.2,1.7c0.6,0.4,1.4,0.6,2.3,0.6c0.7,0,1.3-0.1,1.8-0.3 c0.5-0.2,1-0.5,1.5-1l2.7,2.8c-1.4,1.6-3.5,2.4-6.2,2.4c-1.7,0-3.2-0.3-4.5-1c-1.3-0.6-2.3-1.5-3-2.7c-0.7-1.1-1.1-2.4-1.1-3.9 c0-1.4,0.3-2.7,1-3.8c0.7-1.1,1.6-2,2.9-2.7c1.2-0.6,2.6-1,4.1-1c1.4,0,2.8,0.3,3.9,0.9c1.2,0.6,2.1,1.5,2.8,2.6 C331.1,65,331.5,66.3,331.5,67.8L331.5,67.8z M323.7,63.9c-0.8,0-1.4,0.2-2,0.7c-0.5,0.4-0.9,1.1-1,1.8h5.9c-0.1-0.8-0.5-1.4-1-1.8 C325.2,64.2,324.5,63.9,323.7,63.9L323.7,63.9z M357,71.4h-7.9l-1.5,3.6h-5.4l8.3-18.8h5.2l8.3,18.8h-5.5L357,71.4L357,71.4z M355.4,67.5l-2.4-6l-2.4,6H355.4L355.4,67.5z M381.5,60.6v14.5h-4.8v-1.6c-0.5,0.6-1.2,1-1.9,1.3c-0.8,0.3-1.5,0.5-2.4,0.5 c-1.9,0-3.4-0.6-4.5-1.7c-1.1-1.1-1.7-2.8-1.7-5v-8.1h5.1v7.3c0,1.1,0.2,1.9,0.6,2.4c0.4,0.5,1,0.8,1.8,0.8c0.8,0,1.5-0.3,2-0.8 c0.5-0.6,0.8-1.4,0.8-2.6v-7H381.5L381.5,60.6z M396,74.5c-0.4,0.3-1,0.5-1.6,0.6c-0.6,0.1-1.3,0.2-2,0.2c-1.9,0-3.3-0.5-4.4-1.4 c-1-0.9-1.5-2.3-1.5-4.2v-4.9h-2.1v-3.8h2.1v-3.8h5.1v3.8h3.3v3.8h-3.3v4.8c0,0.5,0.1,0.9,0.4,1.2c0.3,0.3,0.6,0.4,1.1,0.4 c0.6,0,1.1-0.2,1.6-0.5L396,74.5L396,74.5z M406.1,75.3c-1.6,0-3-0.3-4.2-1c-1.3-0.6-2.2-1.5-2.9-2.7c-0.7-1.1-1.1-2.4-1.1-3.9 c0-1.4,0.4-2.7,1.1-3.9c0.7-1.1,1.7-2,2.9-2.7c1.2-0.6,2.6-1,4.2-1c1.6,0,3,0.3,4.2,1c1.3,0.6,2.2,1.5,2.9,2.7c0.7,1.1,1,2.4,1,3.9 c0,1.4-0.3,2.7-1,3.9c-0.7,1.1-1.7,2-2.9,2.7C409.1,75,407.7,75.3,406.1,75.3L406.1,75.3z M406.1,71.3c0.9,0,1.6-0.3,2.2-0.9 c0.6-0.6,0.9-1.5,0.9-2.6c0-1.1-0.3-1.9-0.9-2.5c-0.6-0.6-1.3-0.9-2.2-0.9c-0.9,0-1.6,0.3-2.2,0.9c-0.6,0.6-0.9,1.4-0.9,2.5 c0,1.1,0.3,1.9,0.9,2.6C404.5,71,405.2,71.3,406.1,71.3L406.1,71.3z M423.2,75.3c-1.2,0-2.4-0.1-3.6-0.4c-1.2-0.3-2.1-0.6-2.8-1.1 l1.5-3.5c0.7,0.4,1.4,0.7,2.4,1c0.9,0.2,1.8,0.4,2.7,0.4c0.8,0,1.4-0.1,1.8-0.3c0.3-0.2,0.5-0.4,0.5-0.7c0-0.3-0.2-0.5-0.6-0.7 c-0.4-0.1-1.1-0.3-2-0.4c-1.2-0.1-2.1-0.3-3-0.6c-0.8-0.2-1.5-0.7-2.1-1.3c-0.6-0.6-0.9-1.5-0.9-2.6c0-0.9,0.3-1.8,0.8-2.5 c0.6-0.7,1.4-1.3,2.4-1.7c1.1-0.4,2.3-0.6,3.8-0.6c1.1,0,2.1,0.1,3.1,0.3c1,0.2,1.9,0.5,2.6,0.9l-1.5,3.5c-1.3-0.7-2.7-1.1-4.2-1.1 c-0.8,0-1.4,0.1-1.8,0.3c-0.4,0.2-0.6,0.4-0.6,0.7c0,0.3,0.2,0.6,0.6,0.7c0.4,0.1,1.1,0.3,2,0.4c1.2,0.2,2.2,0.4,3,0.6 c0.8,0.2,1.5,0.7,2,1.3c0.6,0.6,0.9,1.5,0.9,2.6c0,0.9-0.3,1.7-0.8,2.5c-0.6,0.7-1.4,1.3-2.5,1.7C426,75.1,424.7,75.3,423.2,75.3 L423.2,75.3z M458.2,60.6l-6.3,15.1c-0.7,1.8-1.6,3-2.7,3.8c-1.1,0.7-2.3,1.1-3.9,1.1c-0.8,0-1.5-0.1-2.3-0.4 c-0.8-0.2-1.4-0.6-1.9-1l1.8-3.6c0.3,0.3,0.6,0.5,1,0.6c0.4,0.2,0.8,0.2,1.2,0.2c0.5,0,0.9-0.1,1.2-0.3c0.3-0.2,0.6-0.5,0.8-0.9 L441,60.6h5.2l3.6,8.9l3.6-8.9H458.2L458.2,60.6z M470.1,56.3h5.3v14.5h8.9v4.2h-14.3V56.3L470.1,56.3z M487.5,60.6h5.1v14.5h-5.1 V60.6L487.5,60.6z M490,59c-0.9,0-1.7-0.3-2.3-0.8c-0.6-0.5-0.9-1.2-0.9-1.9c0-0.8,0.3-1.4,0.9-1.9c0.6-0.5,1.3-0.8,2.3-0.8 c0.9,0,1.7,0.2,2.3,0.7c0.6,0.5,0.9,1.1,0.9,1.9c0,0.8-0.3,1.5-0.9,2C491.7,58.7,491,59,490,59L490,59z M516,60.3 c1.8,0,3.2,0.5,4.3,1.6c1.1,1.1,1.6,2.7,1.6,4.8v8.3h-5.1v-7.5c0-1-0.2-1.8-0.6-2.3c-0.4-0.5-0.9-0.7-1.6-0.7 c-0.8,0-1.4,0.3-1.8,0.8c-0.5,0.5-0.7,1.3-0.7,2.4v7.2H507v-7.5c0-2-0.7-3-2.2-3c-0.8,0-1.4,0.3-1.9,0.8c-0.5,0.5-0.7,1.3-0.7,2.4 v7.2h-5.1V60.6h4.8v1.5c0.5-0.6,1.2-1,1.9-1.3c0.7-0.3,1.5-0.4,2.4-0.4c1,0,1.9,0.2,2.7,0.6c0.8,0.4,1.5,0.9,2,1.7 c0.6-0.7,1.3-1.3,2.2-1.7C514,60.5,515,60.3,516,60.3L516,60.3z M541.6,60.6v14.5h-4.8v-1.6c-0.5,0.6-1.2,1-1.9,1.3 c-0.8,0.3-1.5,0.5-2.4,0.5c-1.9,0-3.4-0.6-4.5-1.7c-1.1-1.1-1.7-2.8-1.7-5v-8.1h5.1v7.3c0,1.1,0.2,1.9,0.6,2.4 c0.4,0.5,1,0.8,1.8,0.8c0.8,0,1.5-0.3,2-0.8c0.5-0.6,0.8-1.4,0.8-2.6v-7H541.6L541.6,60.6z M551.4,75.3c-1.2,0-2.4-0.1-3.6-0.4 c-1.2-0.3-2.1-0.6-2.8-1.1l1.5-3.5c0.7,0.4,1.4,0.7,2.4,1c0.9,0.2,1.8,0.4,2.7,0.4c0.8,0,1.4-0.1,1.8-0.3c0.3-0.2,0.5-0.4,0.5-0.7 c0-0.3-0.2-0.5-0.6-0.7c-0.4-0.1-1.1-0.3-2-0.4c-1.2-0.1-2.1-0.3-3-0.6c-0.8-0.2-1.5-0.7-2.1-1.3c-0.6-0.6-0.9-1.5-0.9-2.6 c0-0.9,0.3-1.8,0.8-2.5c0.6-0.7,1.4-1.3,2.4-1.7c1.1-0.4,2.3-0.6,3.8-0.6c1.1,0,2.1,0.1,3.1,0.3c1,0.2,1.9,0.5,2.6,0.9l-1.5,3.5 c-1.3-0.7-2.7-1.1-4.2-1.1c-0.8,0-1.4,0.1-1.8,0.3c-0.4,0.2-0.6,0.4-0.6,0.7c0,0.3,0.2,0.6,0.6,0.7c0.4,0.1,1.1,0.3,2,0.4 c1.2,0.2,2.2,0.4,3,0.6c0.8,0.2,1.5,0.7,2,1.3c0.6,0.6,0.9,1.5,0.9,2.6c0,0.9-0.3,1.7-0.8,2.5c-0.6,0.7-1.4,1.3-2.5,1.7 C554.2,75.1,552.9,75.3,551.4,75.3L551.4,75.3z M562,60.6h5.1v14.5H562V60.6L562,60.6z M564.6,59c-0.9,0-1.7-0.3-2.3-0.8 c-0.6-0.5-0.9-1.2-0.9-1.9c0-0.8,0.3-1.4,0.9-1.9c0.6-0.5,1.3-0.8,2.3-0.8c0.9,0,1.7,0.2,2.3,0.7c0.6,0.5,0.9,1.1,0.9,1.9 c0,0.8-0.3,1.5-0.9,2C566.3,58.7,565.5,59,564.6,59L564.6,59z M581.1,60.3c1.8,0,3.3,0.5,4.4,1.6c1.1,1.1,1.6,2.7,1.6,4.8v8.3H582 v-7.5c0-2-0.8-3-2.4-3c-0.9,0-1.6,0.3-2.1,0.9c-0.5,0.6-0.8,1.4-0.8,2.6v7h-5.1V60.6h4.8v1.6c0.6-0.6,1.3-1,2-1.4 C579.4,60.5,580.2,60.3,581.1,60.3L581.1,60.3z M597.8,60.3c2.4,0,4.3,0.5,5.5,1.6c1.3,1.1,1.9,2.8,1.9,5v8.1h-4.7v-1.9 c-0.7,1.4-2.2,2.1-4.3,2.1c-1.1,0-2.1-0.2-2.9-0.6c-0.8-0.4-1.4-0.9-1.9-1.6c-0.4-0.7-0.6-1.4-0.6-2.3c0-1.4,0.5-2.4,1.6-3.2 c1.1-0.8,2.7-1.1,4.9-1.1h2.9c-0.1-1.5-1.1-2.3-3.1-2.3c-0.7,0-1.4,0.1-2.1,0.3s-1.3,0.5-1.8,0.9l-1.7-3.5c0.8-0.5,1.8-1,2.9-1.2 C595.4,60.5,596.6,60.3,597.8,60.3L597.8,60.3z M597.6,72.1c0.6,0,1.1-0.1,1.6-0.4c0.4-0.3,0.8-0.7,1-1.3v-1.3h-2.2 c-1.5,0-2.2,0.5-2.2,1.5c0,0.4,0.2,0.8,0.5,1.1C596.5,72,597,72.1,597.6,72.1L597.6,72.1z M614.9,75.3c-1.2,0-2.4-0.1-3.6-0.4 c-1.2-0.3-2.1-0.6-2.8-1.1l1.5-3.5c0.7,0.4,1.4,0.7,2.4,1c0.9,0.2,1.8,0.4,2.7,0.4c0.8,0,1.4-0.1,1.8-0.3c0.3-0.2,0.5-0.4,0.5-0.7 c0-0.3-0.2-0.5-0.6-0.7c-0.4-0.1-1.1-0.3-2-0.4c-1.2-0.1-2.1-0.3-3-0.6c-0.8-0.2-1.5-0.7-2.1-1.3c-0.6-0.6-0.9-1.5-0.9-2.6 c0-0.9,0.3-1.8,0.8-2.5c0.6-0.7,1.4-1.3,2.4-1.7c1.1-0.4,2.3-0.6,3.8-0.6c1.1,0,2.1,0.1,3.1,0.3c1,0.2,1.9,0.5,2.6,0.9l-1.5,3.5 c-1.3-0.7-2.7-1.1-4.2-1.1c-0.8,0-1.4,0.1-1.8,0.3c-0.4,0.2-0.6,0.4-0.6,0.7c0,0.3,0.2,0.6,0.6,0.7c0.4,0.1,1.1,0.3,2,0.4 c1.2,0.2,2.2,0.4,3,0.6c0.8,0.2,1.5,0.7,2,1.3c0.6,0.6,0.9,1.5,0.9,2.6c0,0.9-0.3,1.7-0.8,2.5c-0.6,0.7-1.4,1.3-2.5,1.7 C617.7,75.1,616.4,75.3,614.9,75.3z" class="st0"/><g><polygon points="371.7 -51.3 456.3 -51.3 451.2 -32 401.6 -32 397.7 -18.2 441.2 -18.2 435.9 .8 393.7 .8 389.6 15.6 443.9 15.6 438.8 34.8 349 34.8" class="st1"/><polygon points="475.1 -51.3 498.7 -10.7 450.5 34.9 491.6 34.9 513.3 12 524.3 34.9 560.1 34.9 536.4 -9.6 581.2 -51.3 543.1 -51.3 521.4 -28.8 510.1 -51.3" class="st1"/><path d="M318.7-51.3H259l-21,86.2h30.8l9-32.7h15.8l7.7,32.7h30.5l-9-36.3c0,0,22-7.5,22.3-27.2 C345.1-28.6,347.7-50.7,318.7-51.3L318.7-51.3z M314.7-24.2c0,0-1.8,7.9-12.6,8.9l-19.9,0.2l4.4-17.8h19.5 C306.2-32.9,316.8-32.9,314.7-24.2z" class="st1"/></g></g></svg>