<svg xmlns="http://www.w3.org/2000/svg" viewBox="0 0 410.44 79.43"><defs><style>.cls-1,.cls-2{fill:#0056a2;fill-rule:evenodd}.cls-2{fill:#ef3e33}</style></defs><g id="Capa_2" data-name="Capa 2"><g id="Layer_1" data-name="Layer 1"><path d="M377.91,31.77h15l-2.21,6.84a25.15,25.15,0,0,1,6.33-6.1,11.86,11.86,0,0,1,6.21-1.66,16.42,16.42,0,0,1,7.18,2.21l-8.62,11.47a11.13,11.13,0,0,0-4-1.3A7.28,7.28,0,0,0,392.26,46c-2.47,2.21-4.62,6.84-6.65,13.49L381.2,73.37H365.07Zm-22.67,41.6h-15l2-6.66a35.58,35.58,0,0,1-8.57,5.92,22.36,22.36,0,0,1-8.79,1.85c-4.45,0-7.51-1.48-9.32-4.07-1.62-2.4-1.49-6.65.06-12l8.13-26.62h16.13l-7,22.93c-.78,2.58-.85,4.62-.24,5.54.62,1.11,1.76,1.67,3.62,1.67a8.38,8.38,0,0,0,5.26-2c1.58-1.48,3.1-4.25,4.18-7.95L352,31.77h15.94Zm-43-57.5-4.84,15.9h8.9l-3.6,11.65H304l-4.53,15a9.16,9.16,0,0,0-.72,3.52,2.31,2.31,0,0,0,2.29,1.29,20.33,20.33,0,0,0,5.32-1.11l-2.15,11.09a69.34,69.34,0,0,1-11.43,1.3c-4.08,0-6.89-.56-8.43-1.48a5.93,5.93,0,0,1-2.67-4.62c-.3-2,.24-5.55,1.65-10.17l4.54-14.79H282l3.6-11.65h5.94l2.35-7.58ZM227,61.91l16.42-1.48a5.11,5.11,0,0,0,1.34,4.06,7.2,7.2,0,0,0,4.34,1.3,9.29,9.29,0,0,0,5.29-1.48,4,4,0,0,0,2.28-2.4c.3-1.3.06-2.22-1.09-2.78a22.6,22.6,0,0,0-6.4-1.66,65.66,65.66,0,0,1-10.53-2.59,7.34,7.34,0,0,1-4.14-4.25,9.27,9.27,0,0,1-.19-6.66,17.74,17.74,0,0,1,4.41-7.21,23.1,23.1,0,0,1,7.91-4.43,43.09,43.09,0,0,1,11.79-1.48c5,0,8.73.37,10.63,1.11a9.09,9.09,0,0,1,4.84,3.51,12.25,12.25,0,0,1,2.22,6.47l-15.68,1.48a3.56,3.56,0,0,0-1.09-2.78,6,6,0,0,0-4.15-1.29,8.7,8.7,0,0,0-4.21.93,3.92,3.92,0,0,0-1.91,2.4,1.73,1.73,0,0,0,.69,2.22c.77.55,3,1.11,6.39,1.48,5,.55,8.8,1.48,11.08,2.58a7.34,7.34,0,0,1,4.52,4.44,10.33,10.33,0,0,1,.2,6.66,19.39,19.39,0,0,1-4.43,7,23,23,0,0,1-8.59,5.36,37.85,37.85,0,0,1-13.24,2c-7.6,0-12.67-1.11-15.4-3.33A10.75,10.75,0,0,1,227,61.91ZM185.22,31.77h15L198,38.61c3-2.59,5.85-4.81,8.56-5.92a19.91,19.91,0,0,1,9-1.84q6.67,0,9.12,3.88c1.64,2.77,1.87,6.84.15,12.39l-8.15,26.25H200.57l7.05-22.74c.78-2.59.85-4.62.24-5.55-.61-1.11-1.94-1.66-3.61-1.66A7.66,7.66,0,0,0,199,45.64c-1.77,1.48-3.1,4.06-4.37,8l-6.1,19.78h-16ZM153.27,53.59c-2.37.74-4.92,1.48-7.48,2.22-3.48.73-6,1.66-7.08,2.58a6.44,6.44,0,0,0-2.06,3,3.31,3.31,0,0,0,.17,3,4.69,4.69,0,0,0,3.59,1.29,13.79,13.79,0,0,0,5.31-1.29A9.41,9.41,0,0,0,150,61.17a15,15,0,0,0,2.5-5ZM142,45.27,127.11,43.6a27,27,0,0,1,4.47-6.1,20.32,20.32,0,0,1,5.89-4.07A25.36,25.36,0,0,1,144,31.59a42.81,42.81,0,0,1,8.68-.74,59.52,59.52,0,0,1,11.18.92,10.42,10.42,0,0,1,6.3,3.14A10.61,10.61,0,0,1,172,40.09a17.29,17.29,0,0,1-.76,6.1l-5.63,18.49a24.39,24.39,0,0,0-1,4.44,36.54,36.54,0,0,0,.42,4.25h-15a17.62,17.62,0,0,1-.49-2.22,8.76,8.76,0,0,1,.21-2.77,28.24,28.24,0,0,1-7.55,4.25,31.56,31.56,0,0,1-10.46,1.85c-4.83,0-8.42-1.3-10.22-3.51a8.68,8.68,0,0,1-1.22-8.51,15.76,15.76,0,0,1,5.12-7.76c2.48-2,6.47-3.52,11.79-4.63,6.24-1.11,10.46-2,12.28-2.58a56.94,56.94,0,0,0,6.38-1.85c.64-1.85.56-3.33,0-4.07-.41-.74-1.93-1.29-3.78-1.29a15,15,0,0,0-6.42,1.29A9.26,9.26,0,0,0,142,45.27ZM94.72,31.77h15l-2.21,6.84a25,25,0,0,1,6.33-6.1,11.83,11.83,0,0,1,6.21-1.66,16.38,16.38,0,0,1,7.17,2.21l-8.62,11.47a11.13,11.13,0,0,0-4-1.3A7.28,7.28,0,0,0,109.07,46c-2.47,2.21-4.62,6.84-6.65,13.49L98,73.37H81.88Z" class="cls-1"/><path d="M2.06,27.68c2-.34,4.88-.95,6.73-1.38a52.93,52.93,0,0,0,16.81-7c7.15-4.41,15.67-10.9,18.75-19-13.64-2-35.7,7.67-42.29,27.42" class="cls-2"/><path d="M58.67,2.87,52.06,23.73H81.14C75.5,13.86,69.53,7.65,58.67,2.87" class="cls-2"/><path d="M49.54,31.78H84a40.47,40.47,0,0,1-.89,19.33,42.44,42.44,0,0,1-6.73,13.07C71.7,70.62,59.91,77.36,50.44,74.46c-12.08-3.69-10.24-12.87-7.13-22.8Z" class="cls-1"/><path d="M1,31.76H26.2L18.83,53.43C16.47,63.51,17,69,26.18,75.55a35.71,35.71,0,0,0,9.61,3.88C31.91,78.77,29,78.91,21,75.12,6,68-3.06,47.83,1,31.76" class="cls-1"/></g></g></svg>