<?xml version="1.0" encoding="utf-8"?>
<!-- Generator: Adobe Illustrator 25.0.1, SVG Export Plug-In . SVG Version: 6.00 Build 0)  -->
<svg version="1.1" id="Capa_1" xmlns="http://www.w3.org/2000/svg" xmlns:xlink="http://www.w3.org/1999/xlink" x="0px" y="0px"
	 viewBox="0 0 400 400" style="enable-background:new 0 0 400 400;" xml:space="preserve">
<style type="text/css">
	.st0{fill-rule:evenodd;clip-rule:evenodd;fill:#E94F34;}
</style>
<path class="st0" d="M157.4,0.4c-1.2,0.4-2.8,2-3.5,3.3c-0.5,0.9-0.5,1.6-0.5,25.5l-0.1,24.5l-4.2,1.5c-5.4,1.9-10.5,4.1-15.5,6.4
	l-4,1.9l-17.1-17.1c-18.8-18.8-18-18.1-20.9-18.1c-3.2,0-1.1-2-33.1,30c-32.1,32.1-30.2,30-30.2,33.3c0,3-0.7,2.1,18.1,20.9
	l17.1,17.1l-1.9,4c-2.4,4.9-4.5,10-6.4,15.5l-1.5,4.2l-24.6,0.1c-27.6,0.1-25.3-0.1-27.3,1.9c-1.9,1.9-1.7-2.7-1.7,44.8
	s-0.2,42.9,1.7,44.8c2,2-0.3,1.8,27.3,1.9l24.6,0.1l1.5,4.2c1.9,5.4,4.1,10.5,6.4,15.5l1.9,4l-17.1,17.1
	c-18.8,18.8-18.1,18-18.1,20.9c0,3.2-1.9,1.2,30.2,33.3c32,32,29.8,30,33.1,30c2.9,0,2.1,0.7,20.9-18.1l17.1-17.1l4,1.9
	c8.4,4.1,23.1,9.5,25.7,9.5h0.6l0.1,11.7c0.1,12.8,0.1,13.2,1.7,17.9c3.7,11.1,13.3,19.5,25,22c2.9,0.6,23.8,0.6,26.7,0
	c11.7-2.5,21.2-10.9,25-22c1.6-4.6,1.6-5,1.7-17.9l0.1-11.7h0.6c2.6,0,17.3-5.4,25.7-9.5l4-1.9l17.1,17.1
	c18.8,18.8,18,18.1,20.9,18.1c3.2,0,1.1,2,33.1-30c32.1-32.1,30.2-30,30.2-33.3c0-3,0.7-2.1-18.1-20.9l-17.1-17.1l1.9-4
	c2.4-4.9,4.5-10,6.4-15.5l1.5-4.2l24.6-0.1c27.8-0.1,25.4,0.1,27.4-2c1.9-1.9,1.7,1.7,1.7-44.6s0.1-42.7-1.7-44.6
	c-2.1-2.1,0.4-1.9-27.4-2l-24.6-0.1l-1.5-4.2c-1.9-5.4-4.1-10.5-6.4-15.5l-1.9-4l17.1-17.1c18.8-18.8,18.1-18,18.1-20.9
	c0-3.2,1.9-1.2-30.2-33.3c-32-32-29.8-30-33.1-30c-2.9,0-2.1-0.7-20.9,18.1l-17.1,17.1l-4-1.9c-4.9-2.4-10-4.5-15.5-6.4l-4.2-1.5
	l-0.1-24.5c-0.1-27.8,0.1-25.4-2-27.4c-1.9-1.9,1.8-1.7-44.7-1.7C163.6,0,158.2,0.1,157.4,0.4 M233.3,37.2l0.1,23.8l0.5,1
	c0.7,1.3,2.4,2.8,3.6,3.2c0.6,0.2,3.2,1.1,5.9,1.9c7.9,2.5,15,5.6,22,9.3c4.7,2.5,6.4,2.8,9,1.6c0.6-0.3,6.4-5.9,17.5-17l16.5-16.5
	l23.5,23.5l23.5,23.5L338.9,108c-18.4,18.3-17.5,17.3-17.6,20.6c0,1.7,0,1.9,1.4,4.4c4.8,9,8.7,18.2,11.1,26.5
	c1.3,4.3,2,5.5,4.2,6.7l1,0.5l23.8,0.1l23.8,0.1v66.5l-23.8,0.1l-23.8,0.1l-1,0.5c-1.3,0.7-2.8,2.4-3.2,3.6
	c-0.2,0.6-1.1,3.2-1.9,5.9c-2.5,7.9-5.6,15-9.3,22c-2,3.8-2.5,5.2-2.2,6.9c0.3,2.4,0.4,2.4,17.6,19.7l16.4,16.5l-23.4,23.4
	l-23.4,23.4L292,338.9c-17.6-17.6-17.2-17.3-19.8-17.6c-1.7-0.2-3,0.2-6.7,2.2c-6.8,3.7-23.3,10.5-25.3,10.5c0,0-0.1-12.4-0.1-27.5
	l0-27.5l1.1-0.5c14.6-5.9,16.5-26.6,3.2-35.3c-4.2-2.8-6.9-3.3-16.9-3.3H220v-93.1l4.4-0.1c3.7-0.1,4.6-0.1,5.2-0.5
	c2.1-1.1,3.5-3.2,3.7-5.4c0.1-1.3-13.1-68.4-13.9-70.3c-0.5-1.2-1.7-2.5-3.1-3.2l-1.2-0.6h-30.4l-1.2,0.6c-1.3,0.7-2.6,2-3.1,3.2
	c-0.8,1.8-14,69-13.9,70.3c0.2,2.3,1.6,4.3,3.7,5.4c0.6,0.3,1.5,0.4,5.2,0.5l4.4,0.1v93.1h-7.4c-10.1,0-12.7,0.5-16.9,3.3
	c-13.3,8.7-11.5,29.3,3.2,35.3l1.1,0.5l0,27.5c0,15.1,0,27.5-0.1,27.5c-2.1,0-18.6-6.8-25.4-10.5c-4.5-2.4-6.3-2.7-8.8-1.5
	c-0.6,0.3-6.4,5.9-17.5,17l-16.5,16.5l-23.5-23.5l-23.5-23.5L61.1,292c18.4-18.3,17.5-17.3,17.5-20.6c0-1.7,0-1.9-1.4-4.4
	c-4.8-9-8.7-18.2-11.1-26.5c-1.3-4.3-2-5.5-4.2-6.7l-1-0.5l-23.8-0.1l-23.8-0.1v-66.5l23.8-0.1l23.8-0.1l1-0.5
	c1.3-0.7,2.8-2.4,3.2-3.6c0.2-0.6,1.1-3.2,1.9-5.9c2.5-7.9,5.6-15.1,9.3-22c2.5-4.7,2.8-6.5,1.6-9c-0.3-0.6-5.9-6.4-17-17.5
	L44.6,91.6l23.5-23.5l23.5-23.5L108,61.1c18.3,18.4,17.3,17.5,20.6,17.5c1.7,0,1.9,0,4.4-1.4c9-4.8,18.2-8.7,26.5-11.1
	c4.3-1.3,5.5-2,6.7-4.2l0.5-1l0.1-23.8l0.1-23.8h66.5L233.3,37.2 M193.2,33.4v6.7h13.7V26.7h-13.7V33.4 M77.3,77.3
	c-2.6,2.6-4.7,4.8-4.7,4.9s2.1,2.4,4.7,4.9l4.7,4.7l4.8-4.8l4.8-4.8L87,77.4c-2.6-2.6-4.8-4.8-4.9-4.8C82,72.6,79.9,74.7,77.3,77.3
	 M313.2,77.5l-4.8,4.8l4.8,4.8l4.8,4.8l4.9-4.7c2.7-2.6,4.9-4.7,4.9-4.8c0-0.1-2.1-2.3-4.8-4.9l-4.8-4.8L313.2,77.5 M207.8,80.3
	c0,0.1,10.4,51.9,10.5,52.5l0.1,0.5h-36.8l0.1-0.5c0.1-0.5,10.5-52.4,10.5-52.5c0,0,3.5-0.1,7.8-0.1S207.8,80.2,207.8,80.3
	 M150.7,105.3c-1.8,0.6-8.1,4.4-12,7.2C86.5,149.3,77.8,222.8,120,270.8c3.6,4.1,8.5,8.8,10,9.5c4.7,2.4,9.8-0.8,9.8-6
	c0-2.8-0.2-3.1-5.4-8.3c-23.5-23.6-32.7-56.5-24.8-88.6c6.1-24.7,22.7-46.4,44.8-58.8c3.2-1.8,3.9-2.3,4.7-4.1
	C161.8,109.2,156.4,103.2,150.7,105.3 M244.4,105.3c-3.1,1.1-5,4.9-4,8.2c0.7,2.5,1.5,3.2,5.8,5.6c34.1,19.1,52.8,59.5,45.4,98
	c-3.6,18.9-12.2,35.1-26,48.9c-5.1,5.1-5.3,5.5-5.4,8.3c0,5.2,5.1,8.4,9.8,6c1.4-0.7,6.4-5.5,10-9.5c44.2-50.2,32.2-127.6-25-162.3
	C249.4,105,247.1,104.3,244.4,105.3 M206.6,193.3v46.6h-13.2v-93.2h13.2V193.3 M26.7,200v6.8h13.4v-13.7H26.7V200 M359.9,200v6.8
	h13.4v-13.7h-13.4V200 M235.8,254c5.4,2.4,5.1,10.2-0.3,12.1c-1.8,0.6-69.2,0.6-71,0c-5.5-1.9-5.7-9.7-0.3-12.1
	C165.8,253.3,234.2,253.3,235.8,254 M226.6,324.8l-0.1,44.6l-0.5,1.9c-2.2,7.8-8.1,13.4-15.8,14.8c-2.8,0.5-17.5,0.5-20.3,0
	c-7.7-1.5-13.6-7-15.8-14.8l-0.5-1.9l-0.1-44.6l-0.1-44.6h53.3L226.6,324.8 M198,293.5c-2.1,0.6-4.2,2.8-4.6,4.9
	c-0.2,0.9-0.2,11.5-0.2,35.7l0.1,34.4l0.6,1.2c2.6,4.9,9.6,4.9,12.2,0l0.6-1.2v-35c0-38.9,0.1-35.9-1.7-37.9
	C203.3,293.5,200.6,292.8,198,293.5 M77.3,312.9c-2.6,2.6-4.7,4.8-4.7,4.9s2.1,2.4,4.7,4.9l4.7,4.7l4.8-4.8l4.8-4.8L87,313
	c-2.6-2.6-4.8-4.8-4.9-4.8C82,308.3,79.9,310.4,77.3,312.9 M313,313.1l-4.8,4.8l4.7,4.7c2.6,2.6,4.8,4.7,5,4.7c0.1,0,2.4-2.1,5-4.7
	l4.7-4.7l-4.8-4.8l-4.8-4.8L313,313.1"/>
</svg>
