<svg xmlns="http://www.w3.org/2000/svg" xmlns:xlink="http://www.w3.org/1999/xlink" id="Capa_1" x="0" y="0" version="1.1" viewBox="0 0 800 600" xml:space="preserve" style="enable-background:new 0 0 800 600"><style type="text/css">.st1{fill:#231f20}.st2{fill:#939599}.st3{fill:#020203}.st5{enable-background:new}.st7{fill:#414142}.st8{fill:#e7e8e9}.st9{fill:#fff}.st10{fill:#6e6f72}.st12{fill:#2d3b8e}.st13{fill:#abb0d3}.st14{fill:#8189bc}.st15{fill:#bdbec0}.st16{fill:#273168}.st17{fill:#5562a7}.st18{fill:#d1d2d4}.st19{fill:#8acdcb}.st20{fill:#3d2516}.st21{fill:#5a4b42}.st22{fill:#736659}.st23{fill:#9a8579}.st24{opacity:.5;fill:#fff}.st25{fill:#be202e}.st26{fill:#e52629}.st27{fill:#595a5c}</style><g><g><g><g><g><defs><path id="SVGID_1_" d="M541.73,371.47h13.55c12.95,0,23.44-12.12,23.44-27.07c0-14.94-10.49-27.06-23.44-27.06h-13.55 c12.95,0,23.44,12.12,23.44,27.06C565.17,359.35,554.68,371.47,541.73,371.47z"/></defs><use xlink:href="#SVGID_1_" style="overflow:visible;fill:#231f20"/><clipPath id="SVGID_00000163760522760525971340000017392553157867429526_"><use xlink:href="#SVGID_1_" style="overflow:visible"/></clipPath><g style="clip-path:url(#SVGID_00000163760522760525971340000017392553157867429526_);enable-background:new"><path d="M565.17,344.41c0-1.46-0.11-2.88-0.3-4.28h13.55c0.19,1.39,0.3,2.82,0.3,4.28 c0,14.95-10.49,27.07-23.44,27.07h-13.55C554.68,371.47,565.17,359.35,565.17,344.41z" class="st1"/><path d="M573.13,326.86c1.74,2.35,3.13,5.05,4.09,7.99c0.55,1.69,0.96,3.46,1.21,5.28h-13.55 c-0.25-1.83-0.66-3.6-1.21-5.28l0,0c-0.96-2.94-2.36-5.64-4.09-7.99H573.13z" class="st1"/><path d="M568.6,322.13c1.68,1.34,3.2,2.93,4.53,4.72h-13.55c-1.32-1.79-2.85-3.38-4.53-4.72H568.6z" class="st1"/><path d="M541.73,317.34h13.55c4.95,0,9.53,1.77,13.31,4.79h-13.55C551.27,319.12,546.68,317.34,541.73,317.34z" class="st1"/></g></g><g><path d="M542.26,317.34c-13.24,0-23.96,12.12-23.96,27.06c0,14.95,10.73,27.07,23.96,27.07 c13.24,0,23.96-12.12,23.96-27.07C566.22,329.46,555.5,317.34,542.26,317.34z" class="st2"/></g><g><path d="M541.73,317.34c-12.95,0-23.44,12.12-23.44,27.06c0,14.95,10.49,27.07,23.44,27.07 s23.44-12.12,23.44-27.07C565.17,329.46,554.68,317.34,541.73,317.34z" class="st3"/></g></g><g><g><defs><path id="SVGID_00000099637106257008149060000010274323309304276633_" d="M349.26,371.47h13.55 c12.95,0,23.44-12.12,23.44-27.07c0-14.94-10.49-27.06-23.44-27.06h-13.55c12.95,0,23.44,12.12,23.44,27.06 C372.69,359.35,362.2,371.47,349.26,371.47z"/></defs><use xlink:href="#SVGID_00000099637106257008149060000010274323309304276633_" style="overflow:visible;fill:#231f20"/><clipPath id="SVGID_00000043439231072783878910000008339938118233723021_"><use xlink:href="#SVGID_00000099637106257008149060000010274323309304276633_" style="overflow:visible"/></clipPath><g style="clip-path:url(#SVGID_00000043439231072783878910000008339938118233723021_);enable-background:new"><path d="M372.69,344.41c0-1.46-0.11-2.88-0.3-4.28h13.55c0.19,1.39,0.3,2.82,0.3,4.28 c0,14.95-10.49,27.07-23.44,27.07h-13.55C362.2,371.47,372.69,359.35,372.69,344.41z" class="st1"/><path d="M380.65,326.86c1.74,2.35,3.13,5.05,4.09,7.99c0.55,1.69,0.96,3.46,1.21,5.28H372.4 c-0.25-1.83-0.66-3.6-1.21-5.28l0,0c-0.96-2.94-2.36-5.64-4.09-7.99H380.65z" class="st1"/><path d="M376.12,322.13c1.68,1.34,3.2,2.93,4.53,4.72H367.1c-1.32-1.79-2.85-3.38-4.53-4.72H376.12z" class="st1"/><path d="M349.26,317.34h13.55c4.95,0,9.53,1.77,13.31,4.79h-13.55C358.79,319.12,354.2,317.34,349.26,317.34z" class="st1"/></g></g><g><path d="M349.78,317.34c-13.24,0-23.96,12.12-23.96,27.06c0,14.95,10.73,27.07,23.96,27.07 c13.24,0,23.96-12.12,23.96-27.07C373.75,329.46,363.02,317.34,349.78,317.34z" class="st2"/></g><g><path d="M349.26,317.34c-12.95,0-23.44,12.12-23.44,27.06c0,14.95,10.49,27.07,23.44,27.07 c12.95,0,23.44-12.12,23.44-27.07C372.69,329.46,362.2,317.34,349.26,317.34z" class="st3"/></g></g></g><path d="M184.25,329.31c0,7.72,4.68,14.66,11.84,17.56l12.94,5.24c3.1,1.13,6.38,1.71,9.69,1.71h384.76 c1.96,0,3.55-1.59,3.55-3.55v-26.57c0-12.84-10.41-23.24-23.24-23.24H184.25V329.31z" class="st3"/><g><g class="st5"><defs><path id="SVGID_00000179623043081658802420000014976510874785338044_" d="M431.89,371.47h13.55 c12.95,0,23.44-12.12,23.44-27.07c0-14.94-10.49-27.06-23.44-27.06h-13.55c12.95,0,23.44,12.12,23.44,27.06 C455.33,359.35,444.84,371.47,431.89,371.47z" class="st5"/></defs><use xlink:href="#SVGID_00000179623043081658802420000014976510874785338044_" style="overflow:visible;fill:#020203"/><clipPath id="SVGID_00000049911412863996568890000001815857967123425414_"><use xlink:href="#SVGID_00000179623043081658802420000014976510874785338044_" style="overflow:visible"/></clipPath><g style="clip-path:url(#SVGID_00000049911412863996568890000001815857967123425414_);enable-background:new"><path d="M455.33,344.41c0-1.46-0.11-2.88-0.3-4.28h13.55c0.19,1.39,0.3,2.82,0.3,4.28 c0,14.95-10.49,27.07-23.44,27.07h-13.55C444.84,371.47,455.33,359.35,455.33,344.41z" class="st3"/><path d="M463.29,326.86c1.74,2.35,3.13,5.05,4.09,7.99c0.55,1.69,0.96,3.46,1.21,5.28h-13.55 c-0.25-1.83-0.66-3.6-1.21-5.28l0,0c-0.96-2.94-2.36-5.64-4.09-7.99H463.29z" class="st3"/><path d="M458.76,322.13c1.68,1.34,3.2,2.93,4.53,4.72h-13.55c-1.32-1.79-2.85-3.38-4.53-4.72H458.76z" class="st3"/><path d="M431.89,317.34h13.55c4.95,0,9.53,1.77,13.31,4.79H445.2C441.42,319.12,436.84,317.34,431.89,317.34z" class="st3"/></g></g><g><path d="M432.42,317.34c-13.24,0-23.96,12.12-23.96,27.06c0,14.95,10.73,27.07,23.96,27.07 c13.24,0,23.96-12.12,23.96-27.07C456.38,329.46,445.65,317.34,432.42,317.34z" class="st2"/></g><g><path d="M431.89,317.34c-12.95,0-23.44,12.12-23.44,27.06c0,14.95,10.49,27.07,23.44,27.07s23.44-12.12,23.44-27.07 C455.33,329.46,444.84,317.34,431.89,317.34z" class="st7"/></g><g><path d="M431.89,324.28c-9.63,0-17.43,9.01-17.43,20.13c0,11.12,7.8,20.13,17.43,20.13 c9.63,0,17.43-9.01,17.43-20.13C449.32,333.29,441.52,324.28,431.89,324.28z" class="st1"/></g><g><path d="M431.89,326.55c-8.54,0-15.46,8-15.46,17.85c0,9.86,6.92,17.86,15.46,17.86c8.54,0,15.46-8,15.46-17.86 C447.35,334.55,440.43,326.55,431.89,326.55z" class="st3"/></g><path d="M418.71,356.11c0.27,0.4,0.56,0.79,0.86,1.18c0,0,0,0,0,0l0,0c0.18,0.24,0.36,0.48,0.55,0.71 c1.11,1.28,2.35,2.33,3.65,3.17c0.09,0.06,0.18,0.13,0.27,0.18l0,0c4.92,3.04,10.88,3.01,15.79-0.08l0,0 c0.08-0.05,0.16-0.11,0.24-0.17c1.27-0.83,2.47-1.86,3.56-3.11c3.91-4.52,5.45-10.72,4.65-16.58l0,0l0,0 c-0.07-0.51-0.16-1.01-0.26-1.5c0,0,0,0,0,0l0,0c-0.69-3.32-2.14-6.48-4.39-9.08c-2.72-3.15-6.16-4.96-9.71-5.46h0l0,0 c-1.87-0.27-3.77-0.17-5.62,0.3l0,0l0,0c-3,0.76-5.85,2.47-8.18,5.16c-0.87,1.01-1.62,2.11-2.26,3.26l0,0 c-0.24,0.44-0.47,0.88-0.68,1.33v0c-0.69,1.5-1.17,3.08-1.5,4.69l0,0c0,0,0,0,0,0.01C414.61,345.57,415.61,351.46,418.71,356.11 L418.71,356.11C418.71,356.11,418.71,356.11,418.71,356.11z M416.36,341.91l11.54,3.57l-8.52,9.85 C416.81,351.4,415.8,346.56,416.36,341.91z M428.39,326.76l1.03,13.55l-10.69-5.76c0.59-1.04,1.27-2.04,2.07-2.95 C422.95,329.09,425.6,327.49,428.39,326.76z M444.92,334.37l-10.79,5.81l1.02-13.47c2.86,0.7,5.58,2.33,7.81,4.89 C443.7,332.46,444.35,333.39,444.92,334.37z M444.45,355.19l-8.6-9.93l11.5-3.56C447.96,346.36,446.99,351.23,444.45,355.19z M424.58,360.45l7.37-12.17l7.32,12.09C434.71,363.21,429.17,363.24,424.58,360.45z M420.24,356.51l9.28-10.73l-0.63-0.73 l0.19-0.8l-12.47-3.86c0.31-1.56,0.78-3.08,1.44-4.51l11.67,6.29l0.38-0.93l0.72-0.07l-1.11-14.67c1.37-0.22,2.76-0.23,4.14-0.04 l-1.11,14.69l0.89,0.09l0.3,0.75l11.69-6.3c0.68,1.43,1.18,2.94,1.5,4.5l-12.52,3.88l0.23,0.99l-0.51,0.59l9.3,10.75 c-0.21,0.28-0.42,0.56-0.65,0.83c-0.79,0.91-1.64,1.69-2.53,2.37l-7.58-12.51l-1,0.81l-0.86-0.69l-7.56,12.47 c-0.94-0.69-1.83-1.5-2.65-2.45C420.59,356.99,420.42,356.75,420.24,356.51z" class="st8"/><g><g><path d="M432.83,338.54c-2.81,0-5.08,2.63-5.08,5.87c0,3.24,2.28,11.07,5.08,11.07c2.81,0,5.08-7.83,5.08-11.07 C437.91,341.17,435.63,338.54,432.83,338.54z" class="st2"/></g><g><g><path d="M432.83,338.54c-2.81,0-5.08,2.63-5.08,5.87c0,3.24,2.28,5.87,5.08,5.87c2.81,0,5.08-2.63,5.08-5.87 C437.91,341.17,435.63,338.54,432.83,338.54z" class="st3"/></g><g><path d="M430.66,338.54c-2.81,0-5.08,2.63-5.08,5.87c0,3.24,2.28,5.87,5.08,5.87c2.81,0,5.08-2.63,5.08-5.87 C435.74,341.17,433.46,338.54,430.66,338.54z" class="st9"/></g></g></g><path d="M415.26,344.41c0,10.6,7.44,19.2,16.61,19.2c9.18,0,16.61-8.6,16.61-19.2c0-10.6-7.44-19.19-16.61-19.19 C422.7,325.22,415.26,333.81,415.26,344.41z M416.43,344.41c0-9.85,6.91-17.84,15.44-17.84c8.53,0,15.44,7.99,15.44,17.84 c0,9.86-6.91,17.85-15.44,17.85C423.34,362.26,416.43,354.27,416.43,344.41z" class="st9"/><path d="M431.89,326.55c0.38,0,0.75,0.03,1.12,0.07c-8.02,0.66-14.34,8.37-14.34,17.79 c0,9.43,6.33,17.13,14.34,17.79c-0.37,0.03-0.74,0.07-1.12,0.07c-8.54,0-15.46-8-15.46-17.86 C416.43,334.55,423.35,326.55,431.89,326.55z" class="st10"/></g><g><g class="st5"><defs><path id="SVGID_00000135686754181446363910000000336354652390073255_" d="M239.41,371.47h13.55 c12.95,0,23.44-12.12,23.44-27.07c0-14.94-10.49-27.06-23.44-27.06h-13.55c12.95,0,23.44,12.12,23.44,27.06 C262.85,359.35,252.36,371.47,239.41,371.47z" class="st5"/></defs><use xlink:href="#SVGID_00000135686754181446363910000000336354652390073255_" style="overflow:visible;fill:#020203"/><clipPath id="SVGID_00000057136793140999279390000010760016325356774073_"><use xlink:href="#SVGID_00000135686754181446363910000000336354652390073255_" style="overflow:visible"/></clipPath><g style="clip-path:url(#SVGID_00000057136793140999279390000010760016325356774073_);enable-background:new"><path d="M262.85,344.41c0-1.46-0.11-2.88-0.3-4.28h13.55c0.19,1.39,0.3,2.82,0.3,4.28 c0,14.95-10.49,27.07-23.44,27.07h-13.55C252.36,371.47,262.85,359.35,262.85,344.41z" class="st3"/><path d="M270.81,326.86c1.74,2.35,3.13,5.05,4.09,7.99c0.55,1.69,0.96,3.46,1.21,5.28h-13.55 c-0.25-1.83-0.66-3.6-1.21-5.28l0,0c-0.96-2.94-2.36-5.64-4.09-7.99H270.81z" class="st3"/><path d="M266.28,322.13c1.68,1.34,3.2,2.93,4.53,4.72h-13.55c-1.32-1.79-2.85-3.38-4.53-4.72H266.28z" class="st3"/><path d="M239.41,317.34h13.55c4.95,0,9.53,1.77,13.31,4.79h-13.55C248.95,319.12,244.36,317.34,239.41,317.34z" class="st3"/></g></g><g><path d="M239.94,317.34c-13.24,0-23.96,12.12-23.96,27.06c0,14.95,10.73,27.07,23.96,27.07 c13.24,0,23.96-12.12,23.96-27.07C263.9,329.46,253.18,317.34,239.94,317.34z" class="st2"/></g><g><path d="M239.41,317.34c-12.95,0-23.44,12.12-23.44,27.06c0,14.95,10.49,27.07,23.44,27.07 c12.95,0,23.44-12.12,23.44-27.07C262.85,329.46,252.36,317.34,239.41,317.34z" class="st7"/></g><g><path d="M239.41,324.28c-9.63,0-17.43,9.01-17.43,20.13c0,11.12,7.8,20.13,17.43,20.13 c9.63,0,17.43-9.01,17.43-20.13C256.84,333.29,249.04,324.28,239.41,324.28z" class="st1"/></g><g><path d="M239.41,326.55c-8.54,0-15.46,8-15.46,17.85c0,9.86,6.92,17.86,15.46,17.86c8.54,0,15.46-8,15.46-17.86 C254.88,334.55,247.95,326.55,239.41,326.55z" class="st3"/></g><path d="M226.23,356.11c0.27,0.4,0.56,0.79,0.86,1.18c0,0,0,0,0,0l0,0c0.18,0.24,0.36,0.48,0.55,0.71 c1.11,1.28,2.35,2.33,3.65,3.17c0.09,0.06,0.18,0.13,0.27,0.18l0,0c4.92,3.04,10.88,3.01,15.79-0.08l0,0 c0.08-0.05,0.16-0.11,0.24-0.17c1.27-0.83,2.47-1.86,3.56-3.11c3.91-4.52,5.45-10.72,4.65-16.58l0,0l0,0 c-0.07-0.51-0.16-1.01-0.26-1.5c0,0,0,0,0,0l0,0c-0.69-3.32-2.14-6.48-4.39-9.08c-2.72-3.15-6.16-4.96-9.71-5.46h0l0,0 c-1.87-0.27-3.77-0.17-5.62,0.3l0,0l0,0c-3,0.76-5.85,2.47-8.18,5.16c-0.87,1.01-1.62,2.11-2.26,3.26l0,0 c-0.24,0.44-0.47,0.88-0.68,1.33v0c-0.69,1.5-1.17,3.08-1.5,4.69l0,0c0,0,0,0,0,0.01C222.13,345.57,223.13,351.46,226.23,356.11 L226.23,356.11C226.23,356.11,226.23,356.11,226.23,356.11z M223.89,341.91l11.54,3.57l-8.52,9.85 C224.33,351.4,223.33,346.56,223.89,341.91z M235.91,326.76l1.03,13.55l-10.69-5.76c0.59-1.04,1.27-2.04,2.07-2.95 C230.48,329.09,233.12,327.49,235.91,326.76z M252.44,334.37l-10.79,5.81l1.02-13.47c2.86,0.7,5.58,2.33,7.81,4.89 C251.22,332.46,251.88,333.39,252.44,334.37z M251.97,355.19l-8.6-9.93l11.5-3.56C255.48,346.36,254.52,351.23,251.97,355.19z M232.11,360.45l7.37-12.17l7.32,12.09C242.23,363.21,236.7,363.24,232.11,360.45z M227.76,356.51l9.28-10.73l-0.63-0.73 l0.19-0.8l-12.47-3.86c0.31-1.56,0.78-3.08,1.44-4.51l11.67,6.29l0.38-0.93l0.72-0.07l-1.11-14.67c1.37-0.22,2.76-0.23,4.14-0.04 l-1.11,14.69l0.89,0.09l0.3,0.75l11.69-6.3c0.68,1.43,1.18,2.94,1.5,4.5l-12.52,3.88l0.23,0.99l-0.51,0.59l9.3,10.75 c-0.21,0.28-0.42,0.56-0.65,0.83c-0.79,0.91-1.64,1.69-2.53,2.37l-7.58-12.51l-1,0.81l-0.86-0.69l-7.56,12.47 c-0.94-0.69-1.83-1.5-2.65-2.45C228.11,356.99,227.94,356.75,227.76,356.51z" class="st8"/><g><g><path d="M240.35,338.54c-2.81,0-5.08,2.63-5.08,5.87c0,3.24,2.28,11.07,5.08,11.07s5.08-7.83,5.08-11.07 C245.43,341.17,243.16,338.54,240.35,338.54z" class="st2"/></g><g><g><path d="M240.35,338.54c-2.81,0-5.08,2.63-5.08,5.87c0,3.24,2.28,5.87,5.08,5.87s5.08-2.63,5.08-5.87 C245.43,341.17,243.16,338.54,240.35,338.54z" class="st3"/></g><g><path d="M238.18,338.54c-2.81,0-5.08,2.63-5.08,5.87c0,3.24,2.28,5.87,5.08,5.87s5.08-2.63,5.08-5.87 C243.26,341.17,240.99,338.54,238.18,338.54z" class="st9"/></g></g></g><path d="M222.78,344.41c0,10.6,7.44,19.2,16.61,19.2c9.18,0,16.61-8.6,16.61-19.2c0-10.6-7.44-19.19-16.61-19.19 C230.22,325.22,222.78,333.81,222.78,344.41z M223.95,344.41c0-9.85,6.91-17.84,15.44-17.84c8.53,0,15.44,7.99,15.44,17.84 c0,9.86-6.91,17.85-15.44,17.85C230.86,362.26,223.95,354.27,223.95,344.41z" class="st9"/><path d="M239.41,326.55c0.38,0,0.75,0.03,1.12,0.07c-8.02,0.66-14.34,8.37-14.34,17.79 c0,9.43,6.33,17.13,14.34,17.79c-0.37,0.03-0.74,0.07-1.12,0.07c-8.54,0-15.46-8-15.46-17.86 C223.95,334.55,230.87,326.55,239.41,326.55z" class="st10"/></g><g><path d="M514.79,274.79h-21.63l0.97-8.57c0.34-2.99,2.67-5.13,5.26-4.82l11.69,1.4c3.62,0.43,6.48,3.77,6.84,7.98 l0,0C518.11,272.92,516.66,274.79,514.79,274.79z" class="st12"/><path d="M512.11,274.79h-22.16v-3.23h19.65c1.38,0,2.5,1.12,2.5,2.5V274.79z" class="st3"/><path d="M511.09,262.8l-11.69-1.4c-2.59-0.31-4.92,1.83-5.26,4.82l-0.21,1.86h15.43c2.46,0,4.64-1.22,6-3.08 C514.19,263.8,512.72,262.99,511.09,262.8z" class="st13"/></g><path d="M178,294.08c0-1.61,0.13-3.12,0.34-4.49c1.23-8.01,7.65-14.46,15.73-15.05c0.47-0.03,0.94-0.05,1.41-0.05 l3.2,0c6.53,0,12.93-1.87,18.45-5.36c16.96-10.75,55.43-33.9,72.14-33.96c0.04,0,34.16-4.13,61.19-4.13 c51.81,0,77.48,4.12,77.48,4.12c0.03,0,0.06,0.01,0.09,0.01c28.66,4.97,83.63,37.04,87.32,39.2c0.13,0.08,0.27,0.12,0.42,0.14 c3.46,0.33,46.69,4.7,82.48,23.54c8.82,4.64,19.82,13.85,19.82,23.82l-4.1,21.73c-0.82,4.35-4.62,7.5-9.05,7.5H463.23l0,0h-1.34 c-0.63,0-1.15-0.47-1.24-1.09c-3.13-23.15-11.78-41.19-32.81-41.19c-16.41,0-25.42,17.92-24.54,40.97 c0.03,0.71-0.53,1.31-1.25,1.31h0.89l0,0h-84.77l0,0h-46.75c-0.63,0-1.15-0.47-1.24-1.09c-3.13-23.15-11.78-41.19-32.81-41.19 c-16.67,0-25.71,18.5-24.49,42.07l-4.22-1.38c-16.19-5.31-27.71-19.64-29.51-36.58C178.07,302.77,178,294.08,178,294.08z" class="st12"/><path d="M445.24,271.93c-3.03-0.29,36.89-0.91,63.93-1.09c3.32,1.88,5.53,3.16,6.17,3.54 c0.13,0.08,0.27,0.12,0.42,0.14c3.09,0.29,37.71,3.8,70.53,17.87C509.31,278.81,469.74,274.31,445.24,271.93z" class="st14"/><path d="M583.35,304.52h-58.48c0,0-51.21-21.08-80.49-24.22c18.68-3.23,80.32,21.58,80.32,21.58 S583.49,302.41,583.35,304.52z" class="st15"/><path d="M178.78,287.32c1.14-4.85,4.29-9.1,8.83-11.14c2.45-1.1,5.12-1.69,7.86-1.69h3.68 c6.22,0,12.31-1.77,17.56-5.1c16.76-10.64,55.81-34.22,72.62-34.22h39.65c2.43,0,4.86,0.25,7.22,0.84 c28.93,7.22,63.28,38.49,63.28,38.49s45.93,3.96,83.37,23.91c8.39,4.47,19.15,13.2,19.15,22.71l0,0 c-1.36,7.37,4.3,14.16,11.79,14.16h83.17c6.23,0,10.93,5.67,9.77,11.79h0c-0.44,2.34-2.49,4.04-4.87,4.04H460.8 c-3-23.68-11.6-42.28-32.95-42.28c-16.72,0-25.76,18.61-24.48,42.28H270.33c-3-23.68-11.6-42.28-32.95-42.28 c-16.67,0-25.71,18.5-24.49,42.07l-24.61-8.07C177.93,332.28,178,294.08,178,294.08C178,291.52,178.33,289.23,178.78,287.32z" class="st16"/><path d="M543.59,333.42h42.33c12.17,0,12.8,8.81,14.83,20.39h-81.44C521.34,342.23,531.43,333.42,543.59,333.42z" class="st3"/><path d="M180.48,282.93c1.61-2.93,4.03-5.36,7.13-6.75c2.45-1.1,5.12-1.68,7.86-1.68h1.99 c6.78-0.13,15.54-2.84,24.21-8.22c18.56-11.53,52.33-31.11,67.65-31.11h39.65c2.43,0,4.86,0.25,7.22,0.84 c28.93,7.22,63.28,38.49,63.28,38.49s45.93,3.96,83.37,23.91c7.09,3.78,15.85,10.61,18.4,18.37 C438.6,291.33,377.95,283.21,180.48,282.93z" class="st17"/><path d="M181.94,322.81l20.41,0c5.91,0,11.3-3.12,14.53-8.07c4.82-7.39,11.82-11.81,20.69-11.81 c9,0,16.03,2.82,21.49,7.71c9.93,8.88,22.63,14.04,35.85,15.72l86.73,11.03c9.4,1.2,18.33-4.4,21.38-13.38 c4.35-12.79,12.94-21.09,25.02-21.09c18.05,0,28.17,11.34,33.63,27.95c1.78,5.39,6.59,9.22,12.25,9.72l34.2,3.02h-38.04 c-2.7,0-4.79,2.38-4.41,5.05c0.12,0.81,0.22,1.62,0.33,2.44h-5.2c-3-23.68-11.6-42.28-32.95-42.28 c-16.72,0-25.76,18.61-24.48,42.28h-3.44l0,0c-0.23-4.56-3.9-8.16-8.45-8.16H282.62c-4.32,0-7.66,3.79-7.11,8.08l0.01,0.08h-5.2 c-3-23.68-11.6-42.28-32.95-42.28c-16.67,0-25.71,18.5-24.49,42.07l-3.52-1.15c-0.31-6.45,0.08-12.54,1.12-18.07L181.94,322.81z" class="st12"/><path d="M399.76,305.75c0,0-72.86-7.46-103.62-9.28c-30.76-1.82-94.97-6.68-94.97-6.68S290.34,306.29,399.76,305.75z" class="st12"/><path d="M613.77,310.74c2.59,3.44,4.29,7.23,4.29,11.13l-0.1,0.55H493.43c-6.08,0-11.7-3.64-13.79-9.35 c-0.01-0.04-0.03-0.08-0.04-0.12l-0.79-2.22H613.77z" class="st1"/><path d="M480.39,302.93h21.71c9.2,0,18.34,2.18,26.37,6.74c7.57,4.29,11.91,9.26,11.07,13.7c0,0.01,0,0.02,0,0.02 c-0.25,1.3-1.48,2.17-2.79,2.17h-38.8c-9.99,0-18.9-6.36-22.25-15.88v0C474.54,306.39,476.95,302.93,480.39,302.93z" class="st1"/><g><ellipse cx="308.96" cy="289.3" class="st2" rx="5.48" ry="3.83"/><g><path d="M304.92,291.46h9.46c1.19,0,2.16-0.97,2.16-2.16l0,0c0-1.19-0.97-2.16-2.16-2.16h-9.46 c-1.19,0-2.16,0.97-2.16,2.16l0,0C302.75,290.49,303.72,291.46,304.92,291.46z" class="st2"/></g><g><path d="M303.56,291.46h9.46c1.19,0,2.16-0.97,2.16-2.16l0,0c0-1.19-0.97-2.16-2.16-2.16h-9.46 c-1.19,0-2.16,0.97-2.16,2.16l0,0C301.4,290.49,302.37,291.46,303.56,291.46z" class="st9"/></g></g><g><ellipse cx="246.35" cy="287.63" class="st2" rx="5.48" ry="3.83"/><g><path d="M242.31,289.79h9.46c1.19,0,2.16-0.97,2.16-2.16l0,0c0-1.19-0.97-2.16-2.16-2.16h-9.46 c-1.19,0-2.16,0.97-2.16,2.16l0,0C240.15,288.82,241.11,289.79,242.31,289.79z" class="st2"/></g><g><path d="M240.95,289.79h9.46c1.19,0,2.16-0.97,2.16-2.16l0,0c0-1.19-0.97-2.16-2.16-2.16h-9.46 c-1.19,0-2.16,0.97-2.16,2.16l0,0C238.79,288.82,239.76,289.79,240.95,289.79z" class="st9"/></g></g><path d="M605.08,302.93h0.7c6.47,5.13,12.17,12.12,12.17,19.54l-0.56,3.09h-22.17c-2.19,0-4.22-1.32-5.04-3.42 c-0.28-0.71-0.49-1.45-0.63-2.22c-0.64-3.43,0.19-6.87,2.11-9.85C594.61,305.47,599.76,302.93,605.08,302.93z" class="st1"/><g><path d="M481.49,302.93h21.31c9.03,0,18,2.11,25.88,6.53c7.43,4.16,11.69,8.98,10.87,13.27c0,0.01,0,0.02,0,0.02 c-0.25,1.26-1.45,2.1-2.73,2.1h-38.08c-9.8,0-18.55-6.16-21.84-15.39l0,0C475.74,306.28,478.11,302.93,481.49,302.93z" class="st8"/><path d="M486.49,311.09h11.52c4.89,0,9.73,1.14,13.99,3.53c4.02,2.25,6.32,4.85,5.88,7.18c0,0,0,0.01,0,0.01 c-0.13,0.68-0.78,1.14-1.48,1.14h-20.59c-5.3,0-10.03-3.33-11.81-8.32v0C483.39,312.9,484.67,311.09,486.49,311.09z" class="st18"/><path d="M501.5,305.76h10.35c4.39,0,8.74,1.03,12.57,3.17c3.61,2.02,5.68,4.36,5.28,6.45c0,0,0,0.01,0,0.01 c-0.12,0.61-0.7,1.02-1.33,1.02h-18.49c-4.76,0-9.01-2.99-10.61-7.48l0,0C498.71,307.39,499.86,305.76,501.5,305.76z" class="st9"/></g><path d="M605.14,302.93h0.7c6.5,4.97,12.22,11.75,12.22,18.94l-0.56,2.99h-22.25c-2.19,0-4.24-1.28-5.05-3.31 c-0.28-0.69-0.49-1.41-0.63-2.15c-0.64-3.33,0.2-6.66,2.11-9.55C594.63,305.4,599.8,302.93,605.14,302.93z" class="st8"/><path d="M599.75,313.62h0.34c3.11,2.38,5.85,5.63,5.85,9.08l-0.27,1.43h-10.66c-1.05,0-2.03-0.61-2.42-1.59 c-0.13-0.33-0.23-0.67-0.3-1.03c-0.31-1.59,0.09-3.19,1.01-4.58C594.71,314.8,597.19,313.62,599.75,313.62z" class="st18"/><path d="M604.27,304.52h0.44c4.11,3.15,7.73,7.44,7.73,11.99l-0.36,1.89h-14.08c-1.39,0-2.68-0.81-3.2-2.1 c-0.18-0.44-0.31-0.89-0.4-1.36c-0.4-2.11,0.12-4.21,1.34-6.05C597.62,306.08,600.89,304.52,604.27,304.52z" class="st9"/><path d="M340.98,237.4h96.27c29.79,8.8,74.66,34.96,78.08,36.97c0.05,0.03,0.1,0.03,0.14,0.05H399.39 C397.83,273.01,368.04,246.32,340.98,237.4z" class="st3"/><g><path d="M291.5,238.87h28.63c11.3,0,22.47,2.7,32.33,8.07c18.14,9.89,35.12,25.27,40.28,30.13 c-45.46-3.78-95.03-5.87-146.92-5.87c-2.13,0-4.24,0.02-6.35,0.03c-1.61,0.01-3.05-0.95-3.62-2.41l0,0 c-0.64-1.64-0.02-3.48,1.48-4.45C255.06,252.98,279.42,238.87,291.5,238.87z" class="st19"/><path d="M443.45,239.41c25.73,8.92,58.92,27.51,69.02,33.31h-98.28c-7.32,0-14.41-2.47-20.16-7.01 c-9.52-7.53-24.32-18.2-39.3-24.9c-0.72-0.32-0.48-1.4,0.31-1.4H443.45z" class="st19"/></g><g><path d="M235.86,268.83c0.57,1.46,2.01,2.43,3.62,2.41c2.11-0.01,4.22-0.03,6.35-0.03 c51.89,0,101.46,2.08,146.92,5.87c-1.44-1.36-3.82-3.55-6.87-6.19c-7.65-0.15-15.32-0.26-22.99-0.33 c-5.37-11.8-6.78-18.7-7.15-21.77c-1.08-0.63-2.17-1.25-3.27-1.85c-9.86-5.38-21.03-8.07-32.33-8.07H291.5 c-12.08,0-36.44,14.11-54.16,25.51C235.84,265.35,235.23,267.19,235.86,268.83z M345.64,254.3c2.73-2.14,5.53-4.18,8.33-6.03 c0.38,3.22,1.85,10.25,7.34,22.27c-5.48-0.04-10.96-0.06-16.44-0.06c-0.15,0-0.3,0-0.46,0l-1.51-5.66 C341.71,260.38,342.7,256.6,345.64,254.3z M249.46,258.3l14.31-9.05c4.41-2.79,9.51-4.26,14.72-4.26h63.58 c2.15,0,2.97,2.82,1.15,3.97l-14.03,8.87c-7.23,4.57-15.62,7-24.17,7h-53.67C247.81,264.82,246.47,260.19,249.46,258.3z M391.75,241.62c0.71,3.29,3.28,11.37,10.78,28.9c3.7,1.42,7.64,2.19,11.66,2.19h29.1c-11.84-0.54-23.73-0.98-35.67-1.33 c-8.17-19.06-10.58-27.84-10.97-29.77c0,0,29.49-0.73,47.95,5.97c7.43,2.7,40.56,16.74,41.36,20.76l-8.85,2.86 c0.11,0.57,0.07,1.08-0.08,1.51h35.44c-10.1-5.8-43.29-24.39-69.02-33.31h-88.41c-0.79,0-1.03,1.08-0.31,1.4 c2.18,0.97,4.35,2.04,6.5,3.16C366.39,241.29,391.75,241.62,391.75,241.62z" class="st20"/><path d="M243.36,271.21l0,0.01c0.82,0,1.64-0.01,2.47-0.01c15.71,0,31.21,0.19,46.45,0.57l-0.1-0.57 c-0.6-3.53-4.33-6.39-8.35-6.39h-3.75l-2.89-8.39c-1.37-3.98-5.76-6.92-10.34-6.92h-4.49c-2.87,1.53-5.76,3.15-8.63,4.81 c-0.23,0.66-0.39,1.36-0.39,2.1l-0.05,8.39h-3.75C245.53,264.82,242.76,267.68,243.36,271.21z M299.26,271.21l0.13,0.76 c16.74,0.47,33.15,1.16,49.17,2.05l-0.47-2.81c-0.6-3.53-4.33-6.39-8.35-6.39h-3.75l-2.88-8.39c-1.37-3.98-5.76-6.92-10.34-6.92 h-5.51c-4.58,0-7.98,2.94-8,6.92l-0.05,8.39h-3.75C301.44,264.82,298.67,267.68,299.26,271.21z" class="st21"/><path d="M388.88,261.74c1.84,1.39,3.58,2.73,5.15,3.97c5.74,4.54,12.84,7.01,20.16,7.01H428l-0.25-1.51 c-0.6-3.53-4.33-6.39-8.35-6.39h-3.75l-2.89-8.39c-1.37-3.98-5.76-6.92-10.34-6.92h-5.51c-4.58,0-7.98,2.94-8,6.92L388.88,261.74 z M312.04,271.21l0.2,1.16c16.79,0.59,33.22,1.41,49.23,2.42l-0.61-3.58c-0.6-3.53-4.33-6.39-8.35-6.39h-3.75l-2.88-8.39 c-1.37-3.98-5.76-6.92-10.34-6.92h-5.51c-4.58,0-7.98,2.94-8,6.92l-0.05,8.39h-3.75C314.22,264.82,311.45,267.68,312.04,271.21z M378.93,271.21l0.82,4.84c4.37,0.33,8.71,0.66,13,1.02c-2.19-2.06-6.52-6.02-12.14-10.64 C379.29,267.6,378.6,269.3,378.93,271.21z" class="st22"/><path d="M506.08,272.72h-91.89c-5.91,0-11.66-1.63-16.68-4.64h88.99C490.14,268.08,499.52,269.92,506.08,272.72z" class="st23"/></g><g><path d="M338.75,259.81c-9.86-5.38-21.03-8.07-32.33-8.07h-28.63c-9.4,0-26.24,8.55-41.6,17.72 c-0.12-0.2-0.24-0.4-0.32-0.62c-0.64-1.64-0.03-3.48,1.48-4.45c17.72-11.4,42.08-25.51,54.16-25.51h28.63 c11.3,0,22.47,2.7,32.33,8.07c18.14,9.89,35.11,25.27,40.28,30.13c-10.3-0.86-20.82-1.62-31.52-2.3 C354.58,269.64,346.78,264.18,338.75,259.81z" class="st24"/><path d="M465.31,267.05c-16.53-7.86-34.6-11.95-52.9-11.95h-32.78c-7.58-5.17-16.21-10.4-24.9-14.29 c-0.72-0.32-0.48-1.4,0.31-1.4h88.41c25.73,8.92,58.92,27.51,69.02,33.31h-35.65C473.11,270.84,469.25,268.93,465.31,267.05z" class="st24"/></g><g><g><path d="M281.52,346.85h88.79c3.27,0,5.92-2.66,5.92-5.92v-51.57l5.9-14.89l-0.68-0.27l-5.96,15.09v51.64 c0,2.86-2.33,5.19-5.19,5.19h-88.79c-4.13,0-7.71-2.63-8.91-6.55c-3.36-11.01-11.44-30.02-27.77-33.64 c-5.32-1.02-9.26-5.33-9.8-10.71l-1.2-11.85l6.44-14.16l-0.67-0.3l-6.52,14.34l1.22,12.05c0.58,5.71,4.75,10.27,10.38,11.35 c15.95,3.54,23.9,22.28,27.22,33.14C273.2,344.01,277.06,346.85,281.52,346.85z" class="st3"/><polygon points="299.54 346.5 300.28 346.47 297.78 284.74 302.75 270.66 302.06 270.42 297.04 284.62" class="st3"/></g><path d="M235.18,269.1c0.68,1.74,2.42,2.89,4.31,2.88l0.29,0c2.01-0.01,4.03-0.03,6.05-0.03 c50.71,0,100.12,1.97,146.86,5.86c0.02,0,0.04,0,0.06,0c0.29,0,0.55-0.17,0.67-0.43c0.13-0.29,0.06-0.62-0.17-0.83 c-4.85-4.57-22.11-20.26-40.43-30.24c-9.79-5.34-21.1-8.16-32.69-8.16H291.5c-5.9,0-14.63,3.28-24.12,7.98l-0.01,0 c0,0,0,0.01-0.01,0.01c-10.1,5-21.06,11.61-30.43,17.64C235.13,264.93,234.41,267.12,235.18,269.1z M291.5,239.61h15.1 c-1.11,3.34-4.19,13.66-6.55,31.66c-12.33-0.35-24.75-0.6-37.28-0.71c1.59-14.69,4.89-21.81,5.69-23.35 C277.58,242.71,285.9,239.61,291.5,239.61z M365.37,274.32c-19.91-1.31-40.25-2.29-60.89-2.93c2.54-19.06,6.07-29.86,6.74-31.78 h8.92c11.35,0,22.41,2.76,31.98,7.98c5.35,2.92,10.61,6.33,15.5,9.81c3.47,2.47,4.87,6.94,3.46,10.95l-1,2.86 C369.38,273.19,367.46,274.46,365.37,274.32z M245.39,270.48l1.62-5.66c1.27-4.45,4.23-8.22,8.24-10.53 c3.72-2.14,7.45-4.18,11.09-6.03c-1.37,3.22-3.76,10.25-5.05,22.27c-5.14-0.04-10.3-0.06-15.47-0.06 C245.68,270.48,245.54,270.48,245.39,270.48z" class="st3"/></g><g><path d="M193.2,292.1l-1.28,3.38c-2.27,5.99-7.32,10.34-13.35,11.83c-0.58-7.56-0.57-13.23-0.57-13.23 c0-2.43,0.3-4.6,0.72-6.45h11.4C192.42,287.63,194.02,289.94,193.2,292.1z" class="st25"/><path d="M188.46,292.59l-0.8,2.12c-0.86,2.26-2.34,4.15-4.22,5.5c-1.79,1.29-4.3,0-4.4-2.2 c-0.11-2.53-0.11-4.17-0.11-4.17c0-0.22,0-0.44,0.01-0.66c0.07-1.88,1.59-3.38,3.47-3.38h4.11 C187.97,289.79,188.97,291.24,188.46,292.59z" class="st26"/><path d="M191.68,289.83l-0.71,1.13c-0.76,1.21-2.08,2.21-3.75,2.93c-1.59,0.69-3.82,0-3.91-1.18 c-0.1-1.35-0.1-2.22-0.1-2.22c0-0.12,0-0.24,0.01-0.35c0.06-1,1.41-1.81,3.09-1.81h3.65 C191.24,288.34,192.13,289.11,191.68,289.83z" class="st24"/><path d="M178.57,307.49c0.01,0,0.03,0,0.04-0.01c6.18-1.53,11.22-6,13.48-11.95l1.28-3.38 c0.41-1.09,0.27-2.26-0.39-3.21c-0.66-0.96-1.7-1.5-2.87-1.5h-11.4c-0.1,0-0.18,0.08-0.18,0.18c0,0.1,0.08,0.18,0.18,0.18h11.4 c1.04,0,1.97,0.49,2.56,1.35c0.59,0.86,0.72,1.9,0.35,2.87l-1.28,3.38c-2.21,5.84-7.16,10.22-13.22,11.72 c-0.1,0.02-0.16,0.12-0.13,0.22C178.41,307.43,178.48,307.49,178.57,307.49z" class="st3"/></g><g><path d="M354.17,283.19c0.01-0.02,0.01-0.04,0.02-0.06c0.16-0.52,0.33-1.02,0.52-1.48c0.06-0.14,0.12-0.27,0.18-0.41 c0.15-0.34,0.29-0.69,0.46-0.99c0.23-0.44,0.48-0.84,0.74-1.2c0-0.01,0.01-0.01,0.01-0.02l7.36-9.88 c0.61-0.82,1.26-1.15,1.87-1.04c1.02,0.18,1.94,1.57,2.41,3.95l0.16,0.81l1.19,5.99l7.69-7.67l0.58,4.35l-21.53,22.2 c-1.21,1.27-2.49-0.25-2.76-3.28l0,0C352.73,290.55,353.18,286.43,354.17,283.19z" class="st2"/><g><path d="M352.52,274.79h21.63l-0.97-8.57c-0.34-2.99-2.67-5.13-5.26-4.82l-11.69,1.4 c-3.62,0.43-6.48,3.77-6.84,7.98l0,0C349.2,272.92,350.66,274.79,352.52,274.79z" class="st12"/><path d="M355.2,274.79h22.16v-3.23h-19.65c-1.38,0-2.5,1.12-2.5,2.5V274.79z" class="st3"/><path d="M356.23,262.8l11.69-1.4c2.59-0.31,4.92,1.83,5.26,4.82l0.21,1.86h-15.43c-2.46,0-4.64-1.22-6-3.08 C353.13,263.8,354.59,262.99,356.23,262.8z" class="st13"/></g></g></g><ellipse cx="398.03" cy="373.22" class="st27" rx="280.92" ry="3.6"/></g></svg>