<svg xmlns="http://www.w3.org/2000/svg" xmlns:xlink="http://www.w3.org/1999/xlink" id="Capa_1" x="0" y="0" version="1.1" viewBox="0 0 800 600" xml:space="preserve" style="enable-background:new 0 0 800 600"><style type="text/css">.st1{fill:#231f20}.st2{fill:#939599}.st3{fill:#020203}.st5{enable-background:new}.st7{fill:#414142}.st8{fill:#e7e8e9}.st9{fill:#fff}.st10{fill:#6e6f72}.st12{fill:#2d3b8e}.st13{fill:#abb0d3}.st14{fill:#8189bc}.st15{fill:#bdbec0}.st16{fill:#273168}.st17{fill:#5562a7}.st18{fill:#d1d2d4}.st19{fill:#8acdcb}.st20{fill:#3d2516}.st21{fill:#5a4b42}.st22{fill:#736659}.st23{fill:#9a8579}.st24{opacity:.5;fill:#fff}.st25{fill:#be202e}.st26{fill:#e52629}.st27{fill:#595a5c}.st28{fill:#f49523}.st34{fill:#f1f2f2}.st38{fill:#b2191d}.st39{fill:#e94b53}.st40{fill:#771615}.st41{fill:#019544}.st42{fill:#056939}.st43{fill:#808386}.st44{fill:#f9b041}.st45{fill:#754d29}.st46{fill:#a97d50}.st47{opacity:.5}.st48{fill:#ffde17}</style><g><g><g><g><g><defs><path id="SVGID_1_" d="M370.62,322.7h10.52c10.05,0,18.19-9.41,18.19-21.01c0-11.6-8.14-21.01-18.19-21.01h-10.52 c10.05,0,18.19,9.41,18.19,21.01C388.81,313.29,380.67,322.7,370.62,322.7z"/></defs><use xlink:href="#SVGID_1_" style="overflow:visible;fill:#231f20"/><clipPath id="SVGID_00000093873020251044143840000006718031845310366855_"><use xlink:href="#SVGID_1_" style="overflow:visible"/></clipPath><g style="clip-path:url(#SVGID_00000093873020251044143840000006718031845310366855_);enable-background:new"><path d="M388.81,301.69c0-1.13-0.08-2.24-0.23-3.32h10.52c0.15,1.08,0.23,2.19,0.23,3.32 c0,11.61-8.14,21.01-18.19,21.01h-10.52C380.67,322.7,388.81,313.29,388.81,301.69z" class="st1"/><path d="M394.99,288.06c1.35,1.82,2.43,3.92,3.18,6.2c0.43,1.31,0.74,2.68,0.94,4.1h-10.52 c-0.2-1.42-0.51-2.79-0.94-4.1l0,0c-0.75-2.28-1.83-4.38-3.18-6.2H394.99z" class="st1"/><path d="M391.48,284.4c1.3,1.04,2.49,2.27,3.51,3.66h-10.52c-1.03-1.39-2.21-2.62-3.51-3.66H391.48z" class="st1"/><path d="M370.62,280.68h10.52c3.84,0,7.4,1.37,10.34,3.72h-10.52C378.02,282.05,374.46,280.68,370.62,280.68z" class="st1"/></g></g><g><path d="M371.03,280.68c-10.28,0-18.6,9.41-18.6,21.01c0,11.61,8.33,21.01,18.6,21.01 c10.28,0,18.6-9.41,18.6-21.01C389.63,290.09,381.3,280.68,371.03,280.68z" class="st2"/></g><g><path d="M370.62,280.68c-10.05,0-18.19,9.41-18.19,21.01c0,11.61,8.14,21.01,18.19,21.01 c10.05,0,18.19-9.41,18.19-21.01C388.81,290.09,380.67,280.68,370.62,280.68z" class="st3"/></g></g><g><g><defs><path id="SVGID_00000137817686817414362980000015374180265009226938_" d="M221.19,322.7h10.52c10.05,0,18.19-9.41,18.19-21.01 c0-11.6-8.14-21.01-18.19-21.01h-10.52c10.05,0,18.19,9.41,18.19,21.01C239.38,313.29,231.24,322.7,221.19,322.7z"/></defs><use xlink:href="#SVGID_00000137817686817414362980000015374180265009226938_" style="overflow:visible;fill:#231f20"/><clipPath id="SVGID_00000126286316987262692510000004961999885163746952_"><use xlink:href="#SVGID_00000137817686817414362980000015374180265009226938_" style="overflow:visible"/></clipPath><g style="clip-path:url(#SVGID_00000126286316987262692510000004961999885163746952_);enable-background:new"><path d="M239.38,301.69c0-1.13-0.08-2.24-0.23-3.32h10.52c0.15,1.08,0.23,2.19,0.23,3.32 c0,11.61-8.14,21.01-18.19,21.01h-10.52C231.24,322.7,239.38,313.29,239.38,301.69z" class="st1"/><path d="M245.56,288.06c1.35,1.82,2.43,3.92,3.18,6.2c0.43,1.31,0.74,2.68,0.94,4.1h-10.52 c-0.2-1.42-0.51-2.79-0.94-4.1l0,0c-0.75-2.28-1.83-4.38-3.18-6.2H245.56z" class="st1"/><path d="M242.05,284.4c1.3,1.04,2.49,2.27,3.51,3.66h-10.52c-1.03-1.39-2.21-2.62-3.51-3.66H242.05z" class="st1"/><path d="M221.19,280.68h10.52c3.84,0,7.4,1.37,10.34,3.72h-10.52C228.59,282.05,225.03,280.68,221.19,280.68z" class="st1"/></g></g><g><path d="M221.6,280.68c-10.28,0-18.6,9.41-18.6,21.01c0,11.61,8.33,21.01,18.6,21.01s18.6-9.41,18.6-21.01 C240.2,290.09,231.88,280.68,221.6,280.68z" class="st2"/></g><g><path d="M221.19,280.68c-10.05,0-18.19,9.41-18.19,21.01c0,11.61,8.14,21.01,18.19,21.01 c10.05,0,18.19-9.41,18.19-21.01C239.38,290.09,231.24,280.68,221.19,280.68z" class="st3"/></g></g></g><path d="M93.09,289.97c0,5.99,3.63,11.38,9.19,13.63l10.05,4.07c2.41,0.88,4.96,1.33,7.52,1.33h298.71 c1.52,0,2.76-1.24,2.76-2.76v-20.63c0-9.97-8.08-18.05-18.05-18.05H93.09V289.97z" class="st3"/><g><g class="st5"><defs><path id="SVGID_00000123415127989797787420000016308854008218163331_" d="M285.34,322.7h10.52 c10.05,0,18.19-9.41,18.19-21.01c0-11.6-8.14-21.01-18.19-21.01h-10.52c10.05,0,18.19,9.41,18.19,21.01 C303.54,313.29,295.39,322.7,285.34,322.7z" class="st5"/></defs><use xlink:href="#SVGID_00000123415127989797787420000016308854008218163331_" style="overflow:visible;fill:#020203"/><clipPath id="SVGID_00000020384520836449232520000012133842758987446457_"><use xlink:href="#SVGID_00000123415127989797787420000016308854008218163331_" style="overflow:visible"/></clipPath><g style="clip-path:url(#SVGID_00000020384520836449232520000012133842758987446457_);enable-background:new"><path d="M303.54,301.69c0-1.13-0.08-2.24-0.23-3.32h10.52c0.15,1.08,0.23,2.19,0.23,3.32 c0,11.61-8.14,21.01-18.19,21.01h-10.52C295.39,322.7,303.54,313.29,303.54,301.69z" class="st3"/><path d="M309.72,288.06c1.35,1.82,2.43,3.92,3.18,6.2c0.43,1.31,0.74,2.68,0.94,4.1h-10.52 c-0.2-1.42-0.51-2.79-0.94-4.1l0,0c-0.75-2.28-1.83-4.38-3.18-6.2H309.72z" class="st3"/><path d="M306.2,284.4c1.3,1.04,2.49,2.27,3.51,3.66h-10.52c-1.03-1.39-2.21-2.62-3.51-3.66H306.2z" class="st3"/><path d="M285.34,280.68h10.52c3.84,0,7.4,1.37,10.34,3.72h-10.52C292.74,282.05,289.18,280.68,285.34,280.68z" class="st3"/></g></g><g><path d="M285.75,280.68c-10.28,0-18.6,9.41-18.6,21.01c0,11.61,8.33,21.01,18.6,21.01c10.28,0,18.6-9.41,18.6-21.01 C304.35,290.09,296.03,280.68,285.75,280.68z" class="st2"/></g><g><path d="M285.34,280.68c-10.05,0-18.19,9.41-18.19,21.01c0,11.61,8.14,21.01,18.19,21.01 c10.05,0,18.19-9.41,18.19-21.01C303.54,290.09,295.39,280.68,285.34,280.68z" class="st7"/></g><g><path d="M285.34,286.06c-7.47,0-13.53,7-13.53,15.62c0,8.63,6.06,15.63,13.53,15.63c7.47,0,13.53-7,13.53-15.63 C298.87,293.06,292.82,286.06,285.34,286.06z" class="st1"/></g><g><path d="M285.34,287.83c-6.63,0-12,6.21-12,13.86c0,7.66,5.37,13.86,12,13.86c6.63,0,12-6.21,12-13.86 C297.35,294.03,291.97,287.83,285.34,287.83z" class="st3"/></g><path d="M275.11,310.77c0.21,0.31,0.43,0.62,0.67,0.91c0,0,0,0,0,0l0,0c0.14,0.18,0.28,0.37,0.43,0.55 c0.86,1,1.82,1.81,2.84,2.46c0.07,0.05,0.14,0.1,0.21,0.14l0,0c3.82,2.36,8.45,2.34,12.26-0.06l0,0 c0.06-0.04,0.13-0.09,0.19-0.13c0.99-0.65,1.92-1.44,2.76-2.41c3.03-3.51,4.23-8.32,3.61-12.87l0,0l0,0 c-0.05-0.39-0.12-0.78-0.2-1.17c0,0,0,0,0,0l0,0c-0.54-2.58-1.66-5.03-3.41-7.05c-2.11-2.44-4.78-3.85-7.54-4.24h0l0,0 c-1.45-0.21-2.93-0.13-4.36,0.23l0,0l0,0c-2.33,0.59-4.54,1.92-6.35,4.01c-0.68,0.78-1.26,1.64-1.75,2.53l0,0 c-0.19,0.34-0.37,0.68-0.53,1.03v0c-0.53,1.16-0.91,2.39-1.16,3.64l0,0c0,0,0,0,0,0C271.92,302.6,272.7,307.17,275.11,310.77 L275.11,310.77C275.11,310.77,275.11,310.77,275.11,310.77z M273.29,299.75l8.96,2.77l-6.61,7.64 C273.64,307.12,272.85,303.36,273.29,299.75z M282.62,287.99l0.8,10.52l-8.3-4.47c0.46-0.81,0.99-1.58,1.6-2.29 C278.41,289.8,280.46,288.56,282.62,287.99z M295.46,293.89l-8.37,4.51l0.79-10.46c2.22,0.55,4.34,1.81,6.06,3.8 C294.51,292.41,295.02,293.14,295.46,293.89z M295.09,310.06l-6.67-7.71l8.93-2.77C297.82,303.21,297.07,306.99,295.09,310.06z M279.67,314.14l5.72-9.45l5.69,9.38C287.53,316.28,283.23,316.31,279.67,314.14z M276.29,311.09l7.21-8.33l-0.49-0.57l0.14-0.62 l-9.68-3c0.24-1.21,0.6-2.39,1.12-3.5l9.06,4.88l0.29-0.72l0.56-0.06l-0.86-11.39c1.07-0.17,2.14-0.18,3.21-0.03l-0.86,11.41 l0.69,0.07l0.24,0.59l9.07-4.89c0.53,1.11,0.91,2.28,1.16,3.49l-9.72,3.01l0.18,0.77l-0.4,0.46l7.22,8.34 c-0.17,0.22-0.32,0.44-0.5,0.64c-0.61,0.7-1.27,1.32-1.96,1.84l-5.88-9.71l-0.77,0.63l-0.67-0.54l-5.87,9.68 c-0.73-0.54-1.42-1.17-2.06-1.9C276.57,311.46,276.44,311.27,276.29,311.09z" class="st8"/><g><g><path d="M286.07,297.13c-2.18,0-3.95,2.04-3.95,4.56c0,2.52,1.77,8.6,3.95,8.6c2.18,0,3.95-6.08,3.95-8.6 C290.02,299.17,288.25,297.13,286.07,297.13z" class="st2"/></g><g><g><path d="M286.07,297.13c-2.18,0-3.95,2.04-3.95,4.56c0,2.52,1.77,4.56,3.95,4.56c2.18,0,3.95-2.04,3.95-4.56 C290.02,299.17,288.25,297.13,286.07,297.13z" class="st3"/></g><g><path d="M284.38,297.13c-2.18,0-3.95,2.04-3.95,4.56c0,2.52,1.77,4.56,3.95,4.56c2.18,0,3.95-2.04,3.95-4.56 C288.33,299.17,286.56,297.13,284.38,297.13z" class="st9"/></g></g></g><path d="M272.43,301.69c0,8.23,5.77,14.9,12.9,14.9c7.12,0,12.9-6.67,12.9-14.9c0-8.23-5.77-14.9-12.9-14.9 C278.21,286.79,272.43,293.46,272.43,301.69z M273.34,301.69c0-7.65,5.37-13.85,11.99-13.85c6.62,0,11.99,6.2,11.99,13.85 c0,7.65-5.37,13.86-11.99,13.86C278.71,315.55,273.34,309.34,273.34,301.69z" class="st9"/><path d="M285.34,287.83c0.29,0,0.58,0.03,0.87,0.05c-6.22,0.52-11.13,6.5-11.13,13.81c0,7.32,4.91,13.3,11.13,13.81 c-0.29,0.02-0.58,0.05-0.87,0.05c-6.63,0-12-6.21-12-13.86C273.34,294.03,278.71,287.83,285.34,287.83z" class="st10"/></g><g><g class="st5"><defs><path id="SVGID_00000124845016102051708810000017981541591825509768_" d="M135.91,322.7h10.52 c10.05,0,18.19-9.41,18.19-21.01c0-11.6-8.14-21.01-18.19-21.01h-10.52c10.05,0,18.19,9.41,18.19,21.01 C154.11,313.29,145.96,322.7,135.91,322.7z" class="st5"/></defs><use xlink:href="#SVGID_00000124845016102051708810000017981541591825509768_" style="overflow:visible;fill:#020203"/><clipPath id="SVGID_00000054237564134243842100000002665892090880906431_"><use xlink:href="#SVGID_00000124845016102051708810000017981541591825509768_" style="overflow:visible"/></clipPath><g style="clip-path:url(#SVGID_00000054237564134243842100000002665892090880906431_);enable-background:new"><path d="M154.11,301.69c0-1.13-0.08-2.24-0.23-3.32h10.52c0.15,1.08,0.23,2.19,0.23,3.32 c0,11.61-8.14,21.01-18.19,21.01h-10.52C145.96,322.7,154.11,313.29,154.11,301.69z" class="st3"/><path d="M160.29,288.06c1.35,1.82,2.43,3.92,3.18,6.2c0.43,1.31,0.74,2.68,0.94,4.1h-10.52 c-0.2-1.42-0.51-2.79-0.94-4.1l0,0c-0.75-2.28-1.83-4.38-3.18-6.2H160.29z" class="st3"/><path d="M156.77,284.4c1.3,1.04,2.49,2.27,3.51,3.66h-10.52c-1.03-1.39-2.21-2.62-3.51-3.66H156.77z" class="st3"/><path d="M135.91,280.68h10.52c3.84,0,7.4,1.37,10.34,3.72h-10.52C143.31,282.05,139.75,280.68,135.91,280.68z" class="st3"/></g></g><g><path d="M136.32,280.68c-10.28,0-18.6,9.41-18.6,21.01c0,11.61,8.33,21.01,18.6,21.01s18.6-9.41,18.6-21.01 C154.93,290.09,146.6,280.68,136.32,280.68z" class="st2"/></g><g><path d="M135.91,280.68c-10.05,0-18.19,9.41-18.19,21.01c0,11.61,8.14,21.01,18.19,21.01 c10.05,0,18.19-9.41,18.19-21.01C154.11,290.09,145.96,280.68,135.91,280.68z" class="st7"/></g><g><path d="M135.91,286.06c-7.47,0-13.53,7-13.53,15.62c0,8.63,6.06,15.63,13.53,15.63c7.47,0,13.53-7,13.53-15.63 C149.45,293.06,143.39,286.06,135.91,286.06z" class="st1"/></g><g><path d="M135.91,287.83c-6.63,0-12,6.21-12,13.86c0,7.66,5.37,13.86,12,13.86c6.63,0,12-6.21,12-13.86 C147.92,294.03,142.54,287.83,135.91,287.83z" class="st3"/></g><path d="M125.68,310.77c0.21,0.31,0.43,0.62,0.67,0.91c0,0,0,0,0,0l0,0c0.14,0.18,0.28,0.37,0.43,0.55 c0.86,1,1.82,1.81,2.84,2.46c0.07,0.05,0.14,0.1,0.21,0.14l0,0c3.82,2.36,8.45,2.34,12.25-0.06l0,0 c0.06-0.04,0.13-0.09,0.19-0.13c0.99-0.65,1.92-1.44,2.76-2.41c3.03-3.51,4.23-8.32,3.61-12.87l0,0l0,0 c-0.05-0.39-0.12-0.78-0.2-1.17c0,0,0,0,0,0l0,0c-0.54-2.58-1.66-5.03-3.41-7.05c-2.11-2.44-4.78-3.85-7.54-4.24h0l0,0 c-1.45-0.21-2.93-0.13-4.36,0.23l0,0l0,0c-2.33,0.59-4.54,1.92-6.35,4.01c-0.68,0.78-1.26,1.64-1.75,2.53l0,0 c-0.19,0.34-0.37,0.68-0.53,1.03v0c-0.53,1.16-0.91,2.39-1.16,3.64l0,0c0,0,0,0,0,0C122.49,302.6,123.27,307.17,125.68,310.77 L125.68,310.77C125.68,310.77,125.68,310.77,125.68,310.77z M123.86,299.75l8.96,2.77l-6.61,7.64 C124.21,307.12,123.42,303.36,123.86,299.75z M133.19,287.99l0.8,10.52l-8.3-4.47c0.46-0.81,0.99-1.58,1.6-2.29 C128.98,289.8,131.03,288.56,133.19,287.99z M146.03,293.89l-8.37,4.51l0.79-10.46c2.22,0.55,4.34,1.81,6.06,3.8 C145.08,292.41,145.59,293.14,146.03,293.89z M145.66,310.06l-6.67-7.71l8.93-2.77C148.39,303.21,147.64,306.99,145.66,310.06z M130.24,314.14l5.72-9.45l5.69,9.38C138.1,316.28,133.8,316.31,130.24,314.14z M126.86,311.09l7.21-8.33l-0.49-0.57l0.14-0.62 l-9.68-3c0.24-1.21,0.6-2.39,1.12-3.5l9.06,4.88l0.29-0.72l0.56-0.06l-0.86-11.39c1.07-0.17,2.14-0.18,3.21-0.03l-0.86,11.41 l0.69,0.07l0.24,0.59l9.07-4.89c0.53,1.11,0.91,2.28,1.16,3.49l-9.72,3.01l0.18,0.77l-0.4,0.46l7.22,8.34 c-0.17,0.22-0.32,0.44-0.5,0.64c-0.61,0.7-1.27,1.32-1.96,1.84l-5.88-9.71l-0.77,0.63l-0.67-0.54l-5.87,9.68 c-0.73-0.54-1.42-1.17-2.06-1.9C127.14,311.46,127.01,311.27,126.86,311.09z" class="st8"/><g><g><path d="M136.64,297.13c-2.18,0-3.95,2.04-3.95,4.56c0,2.52,1.77,8.6,3.95,8.6c2.18,0,3.95-6.08,3.95-8.6 C140.59,299.17,138.82,297.13,136.64,297.13z" class="st2"/></g><g><g><path d="M136.64,297.13c-2.18,0-3.95,2.04-3.95,4.56c0,2.52,1.77,4.56,3.95,4.56c2.18,0,3.95-2.04,3.95-4.56 C140.59,299.17,138.82,297.13,136.64,297.13z" class="st3"/></g><g><path d="M134.96,297.13c-2.18,0-3.95,2.04-3.95,4.56c0,2.52,1.77,4.56,3.95,4.56c2.18,0,3.95-2.04,3.95-4.56 C138.9,299.17,137.14,297.13,134.96,297.13z" class="st9"/></g></g></g><path d="M123,301.69c0,8.23,5.77,14.9,12.9,14.9c7.12,0,12.9-6.67,12.9-14.9c0-8.23-5.77-14.9-12.9-14.9 C128.78,286.79,123,293.46,123,301.69z M123.91,301.69c0-7.65,5.37-13.85,11.99-13.85c6.62,0,11.99,6.2,11.99,13.85 c0,7.65-5.37,13.86-11.99,13.86C129.28,315.55,123.91,309.34,123.91,301.69z" class="st9"/><path d="M135.91,287.83c0.29,0,0.58,0.03,0.87,0.05c-6.22,0.52-11.13,6.5-11.13,13.81c0,7.32,4.91,13.3,11.13,13.81 c-0.29,0.02-0.58,0.05-0.87,0.05c-6.63,0-12-6.21-12-13.86C123.91,294.03,129.28,287.83,135.91,287.83z" class="st10"/></g><g><path d="M349.7,247.64h-16.79l0.76-6.66c0.26-2.32,2.07-3.98,4.08-3.74l9.08,1.09c2.81,0.34,5.03,2.93,5.31,6.19 l0,0C352.28,246.19,351.15,247.64,349.7,247.64z" class="st12"/><path d="M347.62,247.64h-17.2v-2.5h14.7C346.5,245.14,347.62,246.26,347.62,247.64L347.62,247.64z" class="st3"/><path d="M346.83,238.33l-9.08-1.09c-2.01-0.24-3.82,1.42-4.08,3.74l-0.16,1.45h11.98c1.91,0,3.6-0.95,4.66-2.39 C349.23,239.11,348.1,238.48,346.83,238.33z" class="st13"/></g><path d="M88.23,262.62c0-1.25,0.1-2.42,0.26-3.48c0.95-6.22,5.94-11.22,12.21-11.68c0.36-0.03,0.73-0.04,1.09-0.04 l2.48,0c5.07,0,10.04-1.45,14.32-4.17c13.17-8.34,43.03-26.32,56.01-26.37c0.03,0,26.52-3.21,47.5-3.21 c40.22,0,60.15,3.2,60.15,3.2c0.02,0,0.04,0.01,0.07,0.01c22.25,3.85,64.93,28.75,67.79,30.44c0.1,0.06,0.21,0.09,0.32,0.11 c2.69,0.25,36.25,3.65,64.04,18.27c6.85,3.61,15.39,10.75,15.39,18.49l-3.19,16.87c-0.64,3.38-3.59,5.83-7.03,5.83H309.67l0,0 h-1.04c-0.49,0-0.9-0.36-0.96-0.85c-2.43-17.98-9.15-31.98-25.47-31.98c-12.74,0-19.73,13.92-19.05,31.81 c0.02,0.55-0.41,1.02-0.97,1.02h0.69l0,0h-65.81l0,0h-36.29c-0.49,0-0.9-0.36-0.96-0.85c-2.43-17.98-9.15-31.98-25.47-31.98 c-12.94,0-19.96,14.36-19.02,32.66l-3.28-1.07c-12.57-4.12-21.51-15.25-22.91-28.4C88.29,269.36,88.23,262.62,88.23,262.62z" class="st12"/><path d="M295.7,245.42c-2.35-0.23,28.64-0.7,49.64-0.85c2.58,1.46,4.29,2.46,4.79,2.75c0.1,0.06,0.21,0.09,0.32,0.11 c2.4,0.22,29.27,2.95,54.76,13.88C345.45,250.77,314.72,247.27,295.7,245.42z" class="st14"/><path d="M402.93,270.72h-45.4c0,0-39.76-16.37-62.49-18.8c14.5-2.5,62.36,16.75,62.36,16.75 S403.04,269.08,402.93,270.72z" class="st15"/><path d="M88.84,257.37c0.88-3.76,3.33-7.06,6.86-8.65c1.9-0.85,3.98-1.31,6.1-1.31h2.85c4.83,0,9.55-1.37,13.63-3.96 c13.01-8.26,43.32-26.57,56.38-26.57h30.78c1.89,0,3.77,0.2,5.61,0.65c22.46,5.61,49.13,29.88,49.13,29.88s35.66,3.08,64.73,18.56 c6.51,3.47,14.87,10.25,14.87,17.63l0,0c-1.05,5.72,3.34,10.99,9.15,10.99h64.57c4.84,0,8.48,4.4,7.58,9.15h0 c-0.34,1.82-1.93,3.13-3.78,3.13H307.78c-2.33-18.38-9-32.83-25.58-32.83c-12.98,0-20,14.45-19.01,32.83H159.91 c-2.33-18.38-9-32.83-25.58-32.83c-12.94,0-19.96,14.36-19.02,32.66l-19.11-6.26c-8.02-8.18-7.97-37.84-7.97-37.84 C88.23,260.63,88.49,258.85,88.84,257.37z" class="st16"/><path d="M372.06,293.16h32.86c9.45,0,9.94,6.84,11.51,15.83h-63.23C354.79,300,362.62,293.16,372.06,293.16z" class="st3"/><path d="M90.16,253.96c1.25-2.28,3.13-4.16,5.53-5.24c1.9-0.85,3.98-1.31,6.1-1.31h1.55 c5.26-0.1,12.06-2.2,18.79-6.38c14.41-8.95,40.63-24.15,52.52-24.15h30.78c1.89,0,3.77,0.2,5.61,0.65 c22.46,5.61,49.13,29.88,49.13,29.88s35.66,3.08,64.73,18.56c5.5,2.93,12.31,8.23,14.29,14.26 C290.55,260.48,243.46,254.18,90.16,253.96z" class="st17"/><path d="M91.3,284.92l15.84,0c4.59,0,8.77-2.42,11.28-6.26c3.74-5.74,9.17-9.17,16.07-9.17 c6.99,0,12.44,2.19,16.68,5.98c7.71,6.9,17.57,10.9,27.83,12.21l67.33,8.56c7.3,0.93,14.23-3.42,16.6-10.38 c3.38-9.93,10.05-16.37,19.43-16.37c14.01,0,21.87,8.8,26.11,21.7c1.38,4.19,5.12,7.16,9.51,7.54l26.55,2.34h-29.53 c-2.09,0-3.72,1.85-3.43,3.92c0.09,0.63,0.17,1.26,0.25,1.89h-4.04c-2.33-18.38-9-32.83-25.58-32.83 c-12.98,0-20,14.45-19.01,32.83h-2.67l0,0c-0.18-3.54-3.03-6.34-6.56-6.34h-84.5c-3.35,0-5.94,2.94-5.52,6.27l0.01,0.07h-4.04 c-2.33-18.38-9-32.83-25.58-32.83c-12.94,0-19.96,14.36-19.02,32.66l-2.74-0.9c-0.24-5.01,0.06-9.74,0.87-14.03L91.3,284.92z" class="st12"/><path d="M260.4,271.68c0,0-56.57-5.79-80.45-7.2s-73.73-5.18-73.73-5.18S175.45,272.1,260.4,271.68z" class="st12"/><path d="M426.55,275.55c2.01,2.67,3.33,5.61,3.33,8.64l-0.08,0.43h-96.67c-4.72,0-9.09-2.83-10.71-7.26 c-0.01-0.03-0.02-0.06-0.03-0.09l-0.61-1.72H426.55z" class="st1"/><path d="M323,269.49h16.85c7.15,0,14.24,1.69,20.47,5.23c5.88,3.33,9.25,7.19,8.6,10.63c0,0.01,0,0.01,0,0.02 c-0.2,1.01-1.15,1.69-2.16,1.69h-30.12c-7.75,0-14.67-4.94-17.28-12.33v0C318.46,272.17,320.32,269.49,323,269.49z" class="st1"/><g><ellipse cx="189.9" cy="258.91" class="st2" rx="4.25" ry="2.98"/><g><path d="M186.77,260.59h7.34c0.93,0,1.68-0.75,1.68-1.68l0,0c0-0.93-0.75-1.68-1.68-1.68h-7.34 c-0.93,0-1.68,0.75-1.68,1.68l0,0C185.09,259.83,185.84,260.59,186.77,260.59z" class="st2"/></g><g><path d="M185.71,260.59h7.34c0.93,0,1.68-0.75,1.68-1.68l0,0c0-0.93-0.75-1.68-1.68-1.68h-7.34 c-0.93,0-1.68,0.75-1.68,1.68l0,0C184.04,259.83,184.79,260.59,185.71,260.59z" class="st9"/></g></g><g><ellipse cx="141.3" cy="257.61" class="st2" rx="4.25" ry="2.98"/><g><path d="M138.16,259.29h7.34c0.93,0,1.68-0.75,1.68-1.68l0,0c0-0.93-0.75-1.68-1.68-1.68h-7.34 c-0.93,0-1.68,0.75-1.68,1.68l0,0C136.48,258.54,137.23,259.29,138.16,259.29z" class="st2"/></g><g><path d="M137.11,259.29h7.34c0.93,0,1.68-0.75,1.68-1.68l0,0c0-0.93-0.75-1.68-1.68-1.68h-7.34 c-0.93,0-1.68,0.75-1.68,1.68l0,0C135.43,258.54,136.18,259.29,137.11,259.29z" class="st9"/></g></g><path d="M419.8,269.49h0.54c5.03,3.98,9.45,9.41,9.45,15.17l-0.44,2.4h-17.21c-1.7,0-3.28-1.02-3.91-2.65 c-0.21-0.55-0.38-1.13-0.49-1.73c-0.49-2.66,0.15-5.33,1.64-7.65C411.67,271.46,415.67,269.49,419.8,269.49z" class="st1"/><g><path d="M323.85,269.49h16.54c7.01,0,13.97,1.64,20.09,5.07c5.77,3.23,9.08,6.97,8.44,10.3c0,0.01,0,0.01,0,0.02 c-0.19,0.98-1.13,1.63-2.12,1.63h-29.56c-7.61,0-14.4-4.78-16.96-11.95l0,0C319.39,272.09,321.22,269.49,323.85,269.49z" class="st8"/><path d="M327.73,275.82h8.94c3.79,0,7.56,0.89,10.86,2.74c3.12,1.75,4.91,3.77,4.56,5.57c0,0,0,0.01,0,0.01 c-0.1,0.53-0.61,0.88-1.15,0.88h-15.99c-4.12,0-7.79-2.59-9.17-6.46v0C325.32,277.23,326.31,275.82,327.73,275.82z" class="st18"/><path d="M339.39,271.69h8.03c3.41,0,6.79,0.8,9.76,2.46c2.8,1.57,4.41,3.38,4.1,5c0,0,0,0.01,0,0.01 c-0.09,0.47-0.55,0.79-1.03,0.79h-14.36c-3.7,0-6.99-2.32-8.23-5.8l0,0C337.22,272.95,338.11,271.69,339.39,271.69z" class="st9"/></g><path d="M419.84,269.49h0.54c5.04,3.86,9.48,9.12,9.48,14.7l-0.44,2.32h-17.27c-1.7,0-3.29-0.99-3.92-2.57 c-0.21-0.53-0.38-1.09-0.49-1.67c-0.5-2.58,0.15-5.17,1.64-7.41C411.68,271.4,415.7,269.49,419.84,269.49z" class="st8"/><path d="M415.66,277.79h0.26c2.42,1.85,4.55,4.37,4.55,7.05l-0.21,1.11h-8.28c-0.82,0-1.58-0.48-1.88-1.23 c-0.1-0.26-0.18-0.52-0.24-0.8c-0.24-1.24,0.07-2.48,0.79-3.55C411.75,278.7,413.67,277.79,415.66,277.79z" class="st18"/><path d="M419.17,270.72h0.34c3.19,2.44,6,5.77,6,9.31l-0.28,1.47h-10.93c-1.08,0-2.08-0.63-2.48-1.63 c-0.14-0.34-0.24-0.69-0.31-1.06c-0.31-1.63,0.1-3.27,1.04-4.69C414,271.94,416.55,270.72,419.17,270.72z" class="st9"/><path d="M214.76,218.62h74.74c23.13,6.83,57.96,27.14,60.62,28.7c0.04,0.02,0.08,0.02,0.11,0.04h-90.11 C258.9,246.26,235.77,225.54,214.76,218.62z" class="st3"/><g><path d="M176.35,219.76h22.23c8.78,0,17.45,2.09,25.1,6.27c14.08,7.68,27.26,19.62,31.27,23.39 c-35.29-2.94-73.78-4.55-114.06-4.55c-1.65,0-3.29,0.01-4.93,0.02c-1.25,0.01-2.37-0.74-2.81-1.87l0,0 c-0.5-1.27-0.02-2.7,1.15-3.45C148.06,230.71,166.98,219.76,176.35,219.76z" class="st19"/><path d="M294.32,220.17c19.97,6.93,45.74,21.36,53.58,25.86h-76.3c-5.68,0-11.19-1.91-15.65-5.44 c-7.39-5.84-18.88-14.13-30.51-19.33c-0.56-0.25-0.38-1.09,0.24-1.09H294.32z" class="st19"/></g><g><path d="M133.16,243.01c0.44,1.13,1.56,1.88,2.81,1.87c1.64-0.01,3.28-0.02,4.93-0.02 c40.29,0,78.77,1.62,114.06,4.55c-1.12-1.05-2.97-2.75-5.33-4.81c-5.94-0.11-11.89-0.21-17.85-0.25 c-4.17-9.16-5.27-14.52-5.55-16.9c-0.84-0.49-1.69-0.97-2.54-1.43c-7.66-4.17-16.33-6.27-25.1-6.27h-22.23 c-9.38,0-28.29,10.95-42.05,19.8C133.14,240.31,132.66,241.74,133.16,243.01z M218.39,231.73c2.12-1.66,4.29-3.24,6.47-4.68 c0.29,2.5,1.44,7.96,5.7,17.29c-4.25-0.03-8.51-0.05-12.77-0.05c-0.12,0-0.24,0-0.36,0l-1.17-4.39 C215.33,236.45,216.1,233.52,218.39,231.73z M143.71,234.84l11.11-7.02c3.42-2.16,7.38-3.31,11.43-3.31h49.36 c1.67,0,2.31,2.19,0.89,3.08l-10.89,6.88c-5.62,3.55-12.12,5.43-18.77,5.43h-41.67C142.43,239.9,141.39,236.31,143.71,234.84z M254.18,221.89c0.55,2.56,2.54,8.83,8.37,22.44c2.87,1.1,5.93,1.7,9.05,1.7h22.59c-9.19-0.42-18.43-0.76-27.69-1.03 c-6.34-14.8-8.21-21.62-8.51-23.11c0,0,22.9-0.57,37.23,4.63c5.77,2.09,31.49,13,32.11,16.12l-6.87,2.22 c0.09,0.44,0.05,0.83-0.07,1.17h27.52c-7.84-4.5-33.61-18.93-53.58-25.86h-68.64c-0.61,0-0.8,0.84-0.24,1.09 c1.69,0.76,3.38,1.58,5.05,2.45C234.49,221.64,254.18,221.89,254.18,221.89z" class="st20"/><path d="M138.98,244.86L138.98,244.86c0.64,0.01,1.27,0,1.92,0c12.2,0,24.23,0.15,36.06,0.44l-0.07-0.44 c-0.46-2.74-3.37-4.96-6.48-4.96h-2.91l-2.24-6.51c-1.06-3.09-4.47-5.37-8.03-5.37h-3.49c-2.23,1.19-4.47,2.44-6.7,3.74 c-0.18,0.51-0.3,1.05-0.3,1.63l-0.04,6.51h-2.91C140.67,239.9,138.51,242.13,138.98,244.86z M182.38,244.86l0.1,0.59 c13,0.37,25.74,0.9,38.17,1.59l-0.37-2.18c-0.46-2.74-3.37-4.96-6.48-4.96h-2.91l-2.24-6.51c-1.06-3.09-4.47-5.37-8.03-5.37 h-4.28c-3.56,0-6.2,2.28-6.21,5.37l-0.04,6.51h-2.91C184.07,239.9,181.91,242.13,182.38,244.86z" class="st21"/><path d="M251.95,237.51c1.43,1.08,2.78,2.12,4,3.09c4.46,3.53,9.96,5.44,15.65,5.44h10.72l-0.2-1.17 c-0.46-2.74-3.37-4.96-6.48-4.96h-2.91l-2.24-6.51c-1.06-3.09-4.47-5.37-8.03-5.37h-4.28c-3.56,0-6.19,2.28-6.21,5.37 L251.95,237.51z M192.3,244.86l0.15,0.9c13.04,0.46,25.79,1.09,38.22,1.88l-0.47-2.78c-0.46-2.74-3.37-4.96-6.48-4.96h-2.91 l-2.24-6.51c-1.06-3.09-4.47-5.37-8.03-5.37h-4.28c-3.56,0-6.2,2.28-6.21,5.37l-0.04,6.51h-2.91 C193.99,239.9,191.84,242.13,192.3,244.86z M244.22,244.86l0.64,3.76c3.39,0.25,6.76,0.52,10.09,0.79 c-1.7-1.6-5.06-4.67-9.42-8.26C244.51,242.06,243.97,243.38,244.22,244.86z" class="st22"/><path d="M342.94,246.03H271.6c-4.59,0-9.05-1.27-12.95-3.6h69.08C330.57,242.43,337.84,243.86,342.94,246.03z" class="st23"/></g><g><path d="M213.04,236.01c-7.66-4.17-16.33-6.27-25.1-6.27H165.7c-7.3,0-20.37,6.64-32.3,13.75 c-0.1-0.15-0.18-0.31-0.25-0.48c-0.5-1.27-0.02-2.7,1.15-3.45c13.76-8.85,32.67-19.8,42.05-19.8h22.23 c8.78,0,17.45,2.09,25.1,6.27c14.08,7.68,27.26,19.62,31.27,23.39c-8-0.67-16.16-1.26-24.47-1.79 C225.32,243.64,219.27,239.41,213.04,236.01z" class="st24"/><path d="M311.29,241.64c-12.83-6.1-26.86-9.28-41.06-9.28h-25.45c-5.88-4.02-12.58-8.08-19.33-11.1 c-0.56-0.25-0.38-1.09,0.24-1.09h68.64c19.97,6.93,45.74,21.36,53.58,25.86h-27.67C317.35,244.57,314.35,243.09,311.29,241.64z" class="st24"/></g><g><g><path d="M168.6,303.58h68.93c2.54,0,4.6-2.06,4.6-4.6v-40.03l4.58-11.56l-0.53-0.21l-4.62,11.72v40.09 c0,2.22-1.81,4.03-4.03,4.03H168.6c-3.21,0-5.99-2.04-6.92-5.08c-2.61-8.55-8.88-23.3-21.56-26.12 c-4.13-0.8-7.19-4.14-7.61-8.31l-0.93-9.2l5-10.99l-0.52-0.24L131,254.2l0.95,9.36c0.45,4.43,3.69,7.97,8.06,8.81 c12.39,2.75,18.56,17.3,21.13,25.73C162.15,301.38,165.14,303.58,168.6,303.58z" class="st3"/><polygon points="182.59 303.31 183.16 303.29 181.23 255.36 185.09 244.44 184.55 244.25 180.65 255.28" class="st3"/></g><path d="M132.63,243.22c0.53,1.35,1.88,2.24,3.34,2.24l0.22,0c1.56-0.01,3.12-0.02,4.7-0.02 c39.37,0,77.73,1.53,114.01,4.55c0.02,0,0.03,0,0.05,0c0.22,0,0.43-0.13,0.52-0.34c0.1-0.22,0.05-0.48-0.13-0.65 c-3.77-3.55-17.17-15.73-31.39-23.48c-7.6-4.15-16.38-6.34-25.38-6.34h-22.23c-4.58,0-11.36,2.55-18.73,6.2l0,0 c0,0,0,0.01,0,0.01c-7.84,3.88-16.35,9.01-23.62,13.69C132.59,239.98,132.03,241.69,132.63,243.22z M176.35,220.33h11.72 c-0.86,2.59-3.25,10.6-5.09,24.58c-9.57-0.27-19.22-0.46-28.94-0.55c1.23-11.4,3.79-16.93,4.42-18.13 C165.54,222.74,172,220.33,176.35,220.33z M233.7,247.28c-15.46-1.02-31.24-1.78-47.27-2.28c1.97-14.8,4.71-23.18,5.23-24.68 h6.93c8.81,0,17.39,2.14,24.83,6.2c4.16,2.27,8.24,4.91,12.03,7.61c2.69,1.92,3.78,5.39,2.69,8.5l-0.78,2.22 C236.82,246.4,235.32,247.38,233.7,247.28z M140.56,244.3l1.25-4.39c0.99-3.45,3.28-6.38,6.4-8.17c2.89-1.66,5.79-3.24,8.61-4.68 c-1.07,2.5-2.92,7.96-3.92,17.29c-3.99-0.03-7.99-0.05-12.01-0.05C140.78,244.29,140.67,244.3,140.56,244.3z" class="st3"/></g><g><path d="M100.03,261.08l-0.99,2.62c-1.76,4.65-5.68,8.03-10.37,9.19c-0.45-5.87-0.44-10.27-0.44-10.27 c0-1.89,0.23-3.57,0.56-5.01h8.85C99.43,257.61,100.67,259.4,100.03,261.08z" class="st25"/><path d="M96.36,261.46l-0.62,1.64c-0.66,1.75-1.82,3.22-3.27,4.27c-1.39,1-3.34,0-3.41-1.71 c-0.09-1.97-0.09-3.23-0.09-3.23c0-0.17,0-0.34,0.01-0.51c0.05-1.46,1.23-2.63,2.7-2.63h3.19 C95.98,259.29,96.75,260.41,96.36,261.46z" class="st26"/><path d="M98.85,259.32l-0.55,0.88c-0.59,0.94-1.62,1.72-2.91,2.28c-1.23,0.53-2.97,0-3.04-0.91 c-0.08-1.05-0.08-1.73-0.08-1.73c0-0.09,0-0.18,0.01-0.27c0.05-0.78,1.1-1.4,2.4-1.4h2.84 C98.52,258.16,99.21,258.76,98.85,259.32z" class="st24"/><path d="M88.68,273.03c0.01,0,0.02,0,0.03,0c4.8-1.19,8.71-4.66,10.46-9.28l0.99-2.62c0.32-0.84,0.21-1.75-0.3-2.49 c-0.51-0.74-1.32-1.17-2.22-1.17h-8.85c-0.08,0-0.14,0.06-0.14,0.14c0,0.08,0.06,0.14,0.14,0.14h8.85c0.81,0,1.53,0.38,1.99,1.04 c0.46,0.66,0.56,1.48,0.27,2.23l-0.99,2.62c-1.72,4.53-5.56,7.93-10.27,9.1c-0.08,0.02-0.12,0.1-0.1,0.17 C88.55,272.99,88.61,273.03,88.68,273.03z" class="st3"/></g><g><path d="M225.01,254.16c0.01-0.02,0.01-0.03,0.02-0.05c0.12-0.4,0.26-0.79,0.4-1.15c0.04-0.11,0.1-0.21,0.14-0.32 c0.12-0.26,0.23-0.53,0.35-0.77c0.18-0.34,0.37-0.65,0.58-0.93c0,0,0.01-0.01,0.01-0.02l5.71-7.67c0.47-0.64,0.98-0.89,1.45-0.81 c0.79,0.14,1.5,1.22,1.87,3.07l0.12,0.63l0.92,4.65l5.97-5.95l0.45,3.38l-16.71,17.24c-0.94,0.99-1.94-0.19-2.14-2.54l0,0 C223.89,259.88,224.24,256.68,225.01,254.16z" class="st2"/><g><path d="M223.73,247.64h16.79l-0.76-6.66c-0.26-2.32-2.07-3.98-4.08-3.74l-9.08,1.09 c-2.81,0.34-5.03,2.93-5.31,6.19l0,0C221.15,246.19,222.28,247.64,223.73,247.64z" class="st12"/><path d="M225.81,247.64h17.2v-2.5h-14.7C226.93,245.14,225.81,246.26,225.81,247.64L225.81,247.64z" class="st3"/><path d="M226.6,238.33l9.08-1.09c2.01-0.24,3.82,1.42,4.08,3.74l0.16,1.45h-11.98c-1.91,0-3.6-0.95-4.66-2.39 C224.19,239.11,225.33,238.48,226.6,238.33z" class="st13"/></g></g></g><ellipse cx="401.15" cy="415.34" class="st27" rx="340.89" ry="2.8"/><g><g><g><path d="M495.38,222.85c0-8.58,6.98-15.56,15.56-15.56h59.65c8.58,0,20.48,6.98,20.48,15.56v47.09h-95.69V222.85z M583.01,222.85c0-6.85-5.57-12.42-12.42-12.42h-59.65c-6.85,0-6.73,5.57-6.73,12.42v43.95h78.81V222.85z" class="st7"/><path d="M501.43,222.85c0-8.58,6.98-15.56,15.56-15.56h59.65c8.58,0,15.56,6.98,15.56,15.56v47.09h-90.77V222.85z M589.07,222.85c0-6.85-5.57-12.42-12.42-12.42h-59.65c-6.85,0-12.42,5.57-12.42,12.42v43.95h84.49V222.85z" class="st27"/></g><g><path d="M511.26,202.16h16.78v-9.79c0-4.63-3.76-8.39-8.39-8.39l0,0c-4.63,0-8.39,3.76-8.39,8.39V202.16z" class="st28"/><g><g><ellipse cx="519.65" cy="193.77" class="st18" rx="6.65" ry="6.65" transform="matrix(0.968 -0.2509 0.2509 0.968 -31.9974 136.5965)"/><ellipse cx="517.79" cy="195.1" class="st18" rx="3.99" ry="3.99" transform="matrix(0.983 -0.1839 0.1839 0.983 -27.0444 98.5257)"/></g><path d="M519.65,191.11c0,1.47,1.19,2.66,2.66,2.66c1.47,0,2.66-1.19,2.66-2.66c0-1.47-1.19-2.66-2.66-2.66 C520.84,188.45,519.65,189.64,519.65,191.11z" class="st9"/></g><rect width="19.2" height="5.03" x="510.05" y="202.16" class="st7" transform="matrix(-1 -4.481139e-11 4.481139e-11 -1 1039.3049 409.3566)"/><rect width="14.92" height="5.03" x="510.05" y="202.16" class="st1" transform="matrix(-1 -4.486423e-11 4.486423e-11 -1 1035.025 409.3566)"/><rect width="7.74" height="5.03" x="510.05" y="202.16" class="st3" transform="matrix(-1 -4.489621e-11 4.489621e-11 -1 1027.8433 409.3566)"/></g><g><path d="M558.08,202.16h16.78v-9.79c0-4.63-3.76-8.39-8.39-8.39l0,0c-4.63,0-8.39,3.76-8.39,8.39V202.16z" class="st28"/><g><g><ellipse cx="566.47" cy="193.77" class="st18" rx="6.65" ry="6.65" transform="matrix(0.5798 -0.8148 0.8148 0.5798 80.1727 542.9892)"/><ellipse cx="564.61" cy="195.1" class="st18" rx="3.99" ry="3.99" transform="matrix(0.9735 -0.2287 0.2287 0.9735 -29.6562 134.2975)"/></g><path d="M566.47,191.11c0,1.47,1.19,2.66,2.66,2.66c1.47,0,2.66-1.19,2.66-2.66c0-1.47-1.19-2.66-2.66-2.66 C567.66,188.45,566.47,189.64,566.47,191.11z" class="st9"/></g><rect width="19.2" height="5.03" x="556.87" y="202.16" class="st7" transform="matrix(-1 -4.490598e-11 4.490598e-11 -1 1132.9443 409.3566)"/><rect width="14.92" height="5.03" x="556.87" y="202.16" class="st1" transform="matrix(-1 -4.498636e-11 4.498636e-11 -1 1128.6646 409.3566)"/><rect width="7.74" height="5.03" x="556.87" y="202.16" class="st3" transform="matrix(-1 -4.513113e-11 4.513113e-11 -1 1121.4827 409.3566)"/></g></g><rect width="73.11" height="86.44" x="482.4" y="247.21" class="st3" transform="matrix(-1 -4.488377e-11 4.488377e-11 -1 1037.9121 580.8658)"/><g><g><g class="st5"><defs><path id="SVGID_00000090272873497978887360000017560379577135979147_" d="M332.02,415.34h16.56 c15.82,0,28.64-14.81,28.64-33.07c0-18.26-12.82-33.07-28.64-33.07h-16.56c15.82,0,28.64,14.81,28.64,33.07 C360.65,400.53,347.84,415.34,332.02,415.34z" class="st5"/></defs><clipPath id="SVGID_00000181796715335437692190000007333920160920084657_"><use xlink:href="#SVGID_00000090272873497978887360000017560379577135979147_" style="overflow:visible"/></clipPath><g style="clip-path:url(#SVGID_00000181796715335437692190000007333920160920084657_)"><path d="M360.65,382.27c0-1.78-0.13-3.52-0.36-5.23h16.56c0.23,1.7,0.36,3.45,0.36,5.23 c0,18.27-12.82,33.07-28.64,33.07h-16.56C347.84,415.34,360.65,400.53,360.65,382.27z" class="st1"/><path d="M370.38,360.82c2.12,2.87,3.82,6.17,5,9.76c0.67,2.06,1.17,4.22,1.48,6.46h-16.56 c-0.31-2.23-0.8-4.39-1.48-6.46l0,0c-1.18-3.59-2.88-6.89-5-9.76H370.38z" class="st3"/><path d="M364.85,355.06c2.05,1.64,3.91,3.58,5.53,5.77h-16.56c-1.62-2.19-3.48-4.13-5.53-5.77H364.85z" class="st3"/><path d="M332.02,349.2h16.56c6.04,0,11.65,2.16,16.27,5.85h-16.56C343.66,351.37,338.06,349.2,332.02,349.2z" class="st3"/></g></g><g><path d="M332.66,349.2c-16.17,0-29.28,14.81-29.28,33.07c0,18.27,13.1,33.07,29.28,33.07 c16.17,0,29.28-14.81,29.28-33.07C361.94,364.01,348.83,349.2,332.66,349.2z" class="st2"/></g><g><path d="M332.02,349.2c-15.82,0-28.64,14.81-28.64,33.07c0,18.27,12.82,33.07,28.64,33.07 c15.82,0,28.64-14.81,28.64-33.07C360.65,364.01,347.84,349.2,332.02,349.2z" class="st7"/></g></g><g><g class="st5"><defs><path id="SVGID_00000057826939900151088350000013980242260541587887_" d="M314.39,415.34h16.56 c15.82,0,28.64-14.81,28.64-33.07c0-18.26-12.82-33.07-28.64-33.07h-16.56c15.82,0,28.64,14.81,28.64,33.07 C343.02,400.53,330.2,415.34,314.39,415.34z" class="st5"/></defs><clipPath id="SVGID_00000089563451186632383640000012595565218692137858_"><use xlink:href="#SVGID_00000057826939900151088350000013980242260541587887_" style="overflow:visible"/></clipPath><g style="clip-path:url(#SVGID_00000089563451186632383640000012595565218692137858_);enable-background:new"><path d="M343.02,382.27c0-1.78-0.13-3.52-0.36-5.23h16.56c0.23,1.7,0.36,3.45,0.36,5.23 c0,18.27-12.82,33.07-28.64,33.07h-16.56C330.2,415.34,343.02,400.53,343.02,382.27z" class="st1"/><path d="M352.75,360.82c2.12,2.87,3.82,6.17,5,9.76c0.67,2.06,1.17,4.22,1.48,6.46h-16.56 c-0.31-2.23-0.8-4.39-1.48-6.46l0,0c-1.18-3.59-2.88-6.89-5-9.76H352.75z" class="st3"/><path d="M347.22,355.06c2.05,1.64,3.91,3.58,5.53,5.77h-16.56c-1.62-2.19-3.48-4.13-5.53-5.77H347.22z" class="st3"/><path d="M314.39,349.2h16.56c6.04,0,11.65,2.16,16.27,5.85h-16.56C326.03,351.37,320.43,349.2,314.39,349.2z" class="st3"/></g></g><g><path d="M315.03,349.2c-16.17,0-29.28,14.81-29.28,33.07c0,18.27,13.1,33.07,29.28,33.07s29.28-14.81,29.28-33.07 C344.31,364.01,331.2,349.2,315.03,349.2z" class="st2"/></g><g><path d="M314.39,349.2c-15.82,0-28.64,14.81-28.64,33.07c0,18.27,12.82,33.07,28.64,33.07 c15.82,0,28.64-14.81,28.64-33.07C343.02,364.01,330.2,349.2,314.39,349.2z" class="st3"/></g></g></g><rect width="503.87" height="67.9" x="224.07" y="319.07" class="st3" transform="matrix(-1 -4.489443e-11 4.489443e-11 -1 952.0167 706.038)"/><g><g class="st5"><defs><path id="SVGID_00000053504324576482594470000012292534977187615402_" d="M642.03,415.34h16.56 c15.82,0,28.64-14.81,28.64-33.07c0-18.26-12.82-33.07-28.64-33.07h-16.56c15.82,0,28.64,14.81,28.64,33.07 C670.67,400.53,657.85,415.34,642.03,415.34z" class="st5"/></defs><clipPath id="SVGID_00000060728302625021793930000000552189610904771500_"><use xlink:href="#SVGID_00000053504324576482594470000012292534977187615402_" style="overflow:visible"/></clipPath><g style="clip-path:url(#SVGID_00000060728302625021793930000000552189610904771500_);enable-background:new"><path d="M670.67,382.27c0-1.78-0.13-3.52-0.36-5.23h16.56c0.23,1.7,0.36,3.45,0.36,5.23 c0,18.27-12.82,33.07-28.64,33.07h-16.56C657.85,415.34,670.67,400.53,670.67,382.27z" class="st1"/><path d="M680.39,360.82c2.12,2.87,3.82,6.17,5,9.76c0.67,2.06,1.17,4.22,1.48,6.46h-16.56 c-0.31-2.23-0.8-4.39-1.48-6.46l0,0c-1.18-3.59-2.88-6.89-5-9.76H680.39z" class="st1"/><path d="M674.86,355.06c2.05,1.64,3.91,3.58,5.53,5.77h-16.56c-1.62-2.19-3.48-4.13-5.53-5.77H674.86z" class="st1"/><path d="M642.03,349.2h16.56c6.04,0,11.65,2.16,16.27,5.85H658.3C653.68,351.37,648.08,349.2,642.03,349.2z" class="st1"/></g></g><g><path d="M642.68,349.2c-16.17,0-29.28,14.81-29.28,33.07c0,18.27,13.1,33.07,29.28,33.07s29.28-14.81,29.28-33.07 C671.96,364.01,658.85,349.2,642.68,349.2z" class="st7"/></g><g><path d="M642.03,349.2c-15.82,0-28.64,14.81-28.64,33.07c0,18.27,12.82,33.07,28.64,33.07s28.64-14.81,28.64-33.07 C670.67,364.01,657.85,349.2,642.03,349.2z" class="st3"/></g></g><g><g><g class="st5"><defs><path id="SVGID_00000042738476019909814270000011967287775458443159_" d="M541.86,415.34h16.56 c15.82,0,28.64-14.81,28.64-33.07c0-18.26-12.82-33.07-28.64-33.07h-16.56c15.82,0,28.64,14.81,28.64,33.07 C570.5,400.53,557.68,415.34,541.86,415.34z" class="st5"/></defs><clipPath id="SVGID_00000085252431366172324080000002226508154744499339_"><use xlink:href="#SVGID_00000042738476019909814270000011967287775458443159_" style="overflow:visible"/></clipPath><g style="clip-path:url(#SVGID_00000085252431366172324080000002226508154744499339_);enable-background:new"><path d="M570.5,382.27c0-1.78-0.13-3.52-0.36-5.23h16.56c0.23,1.7,0.36,3.45,0.36,5.23 c0,18.27-12.82,33.07-28.64,33.07h-16.56C557.68,415.34,570.5,400.53,570.5,382.27z" class="st3"/><path d="M580.22,360.82c2.12,2.87,3.82,6.17,5,9.76c0.67,2.06,1.17,4.22,1.48,6.46h-16.56 c-0.31-2.23-0.8-4.39-1.48-6.46l0,0c-1.18-3.59-2.88-6.89-5-9.76H580.22z" class="st3"/><path d="M574.69,355.06c2.05,1.64,3.91,3.58,5.53,5.77h-16.56c-1.62-2.19-3.48-4.13-5.53-5.77H574.69z" class="st3"/><path d="M541.86,349.2h16.56c6.04,0,11.65,2.16,16.27,5.85h-16.56C553.51,351.37,547.91,349.2,541.86,349.2z" class="st3"/></g></g><g><path d="M542.51,349.2c-16.17,0-29.28,14.81-29.28,33.07c0,18.27,13.1,33.07,29.28,33.07 c16.17,0,29.28-14.81,29.28-33.07C571.78,364.01,558.68,349.2,542.51,349.2z" class="st2"/></g><g><path d="M541.86,349.2c-15.82,0-28.64,14.81-28.64,33.07c0,18.27,12.82,33.07,28.64,33.07s28.64-14.81,28.64-33.07 C570.5,364.01,557.68,349.2,541.86,349.2z" class="st7"/></g><g><path d="M541.86,359.98c-10.66,0-19.3,9.98-19.3,22.29c0,12.31,8.64,22.29,19.3,22.29 c10.66,0,19.3-9.98,19.3-22.29C561.16,369.96,552.52,359.98,541.86,359.98z" class="st1"/></g><g><g><path d="M541.86,361.9c-9.74,0-17.64,9.12-17.64,20.37c0,11.25,7.89,20.37,17.64,20.37 c9.74,0,17.64-9.12,17.64-20.37C559.5,371.02,551.61,361.9,541.86,361.9z" class="st18"/></g><g><path d="M541.86,364.35c-8.57,0-15.52,8.02-15.52,17.92c0,9.9,6.95,17.92,15.52,17.92s15.52-8.02,15.52-17.92 C557.38,372.38,550.43,364.35,541.86,364.35z" class="st2"/></g><ellipse cx="541.87" cy="382.27" class="st8" rx="15.51" ry="17.92"/><path d="M541.86,383.94c-5.71,0-11.02-1.08-15.46-2.94c-0.03,0.42-0.06,0.84-0.06,1.27 c0,9.89,6.95,17.92,15.52,17.92c8.57,0,15.52-8.02,15.52-17.92c0-0.43-0.03-0.85-0.06-1.27 C552.88,382.86,547.57,383.94,541.86,383.94z" class="st15"/><g><g><path d="M554.11,385.74c0.9,0.62,0.75,2.95-0.33,5.2c-1.08,2.25-2.68,3.56-3.58,2.94 c-0.9-0.62-0.75-2.95,0.33-5.2C551.61,386.43,553.21,385.12,554.11,385.74z" class="st3"/><path d="M527.75,378.54c-0.56-0.72-0.09-3,1.03-5.1c1.12-2.1,2.49-3.22,3.04-2.5c0.56,0.72,0.09,3-1.03,5.1 C529.67,378.13,528.31,379.25,527.75,378.54z" class="st3"/><path d="M553.78,373.61c1.08,2.25,1.22,4.57,0.33,5.2c-0.9,0.62-2.5-0.69-3.58-2.94 c-1.08-2.25-1.22-4.57-0.33-5.2C551.1,370.04,552.7,371.36,553.78,373.61z" class="st3"/><path d="M541.31,395.09c2.16,0,3.9,1.01,3.9,2.26c0,1.25-1.75,2.26-3.9,2.26c-2.16,0-3.9-1.01-3.9-2.26 C537.41,396.1,539.15,395.09,541.31,395.09z" class="st3"/><path d="M531.15,388.54c1.06,2.13,1.45,4.43,0.87,5.13c-0.58,0.7-1.9-0.46-2.96-2.6 c-1.06-2.13-1.45-4.43-0.87-5.13C528.77,385.25,530.09,386.41,531.15,388.54z" class="st3"/><path d="M541.31,364.94c2.16,0,3.9,1.01,3.9,2.26c0,1.25-1.75,2.26-3.9,2.26c-2.16,0-3.9-1.01-3.9-2.26 C537.41,365.95,539.15,364.94,541.31,364.94z" class="st3"/></g><g><g><path d="M540.92,374.59c-3.67,0-6.65,3.44-6.65,7.68c0,4.24,2.98,13.08,6.65,13.08s6.65-8.84,6.65-13.08 C547.57,378.03,544.6,374.59,540.92,374.59z" class="st2"/></g><g><g class="st5"><defs><path id="SVGID_00000081631245685015879440000017869778187021309832_" d="M538.95,389.95h1.98 c3.67,0,6.65-3.44,6.65-7.68c0-4.24-2.98-7.68-6.65-7.68h-1.98c3.67,0,6.65,3.44,6.65,7.68 C545.6,386.51,542.62,389.95,538.95,389.95z" class="st5"/></defs><clipPath id="SVGID_00000028314397737788299500000008349932830106888865_"><use xlink:href="#SVGID_00000081631245685015879440000017869778187021309832_" style="overflow:visible"/></clipPath><g style="clip-path:url(#SVGID_00000028314397737788299500000008349932830106888865_);enable-background:new"><path d="M538.95,389.95h1.98c3.67,0,6.65-3.44,6.65-7.68c0-0.95-0.15-1.87-0.43-2.71h-1.98 c0.28,0.84,0.43,1.76,0.43,2.71C545.6,386.51,542.62,389.95,538.95,389.95" class="st1"/><path d="M545.17,379.56h1.98c-0.27-0.83-0.67-1.6-1.16-2.27h-1.98C544.5,377.96,544.9,378.72,545.17,379.56" class="st15"/><path d="M544.01,377.29h1.98c-1.22-1.65-3.03-2.7-5.06-2.7h-1.98C540.98,374.59,542.79,375.64,544.01,377.29" class="st34"/></g></g><g><path d="M538.95,374.59c-3.67,0-6.65,3.44-6.65,7.68c0,4.24,2.98,7.68,6.65,7.68s6.65-3.44,6.65-7.68 C545.6,378.03,542.62,374.59,538.95,374.59z" class="st9"/></g></g></g></g></g></g></g><path d="M233.51,331.75h35.26c22.42,0,40.89,19.48,43.44,44.57h-40.39c-1.7-14.76-9.65-27.23-20.68-33.77 c-11.03,6.54-18.97,19.02-20.68,33.77h-40.39C192.63,351.22,211.09,331.75,233.51,331.75z" class="st27"/><g><g><g class="st5"><defs><path id="SVGID_00000153694485718970908690000008795727786730394300_" d="M249.48,415.34h16.56 c15.82,0,28.64-14.81,28.64-33.07c0-18.26-12.82-33.07-28.64-33.07h-16.56c15.82,0,28.64,14.81,28.64,33.07 C278.11,400.53,265.29,415.34,249.48,415.34z" class="st5"/></defs><clipPath id="SVGID_00000042005751380392912370000017351181899534688928_"><use xlink:href="#SVGID_00000153694485718970908690000008795727786730394300_" style="overflow:visible"/></clipPath><g style="clip-path:url(#SVGID_00000042005751380392912370000017351181899534688928_)"><path d="M278.11,382.27c0-1.78-0.13-3.52-0.36-5.23h16.56c0.23,1.7,0.36,3.45,0.36,5.23 c0,18.27-12.82,33.07-28.64,33.07h-16.56C265.29,415.34,278.11,400.53,278.11,382.27z" class="st3"/><path d="M287.84,360.82c2.12,2.87,3.82,6.17,5,9.76c0.67,2.06,1.17,4.22,1.48,6.46h-16.56 c-0.31-2.23-0.8-4.39-1.48-6.46l0,0c-1.18-3.59-2.88-6.89-5-9.76H287.84z" class="st3"/><path d="M282.31,355.06c2.05,1.64,3.91,3.58,5.53,5.77h-16.56c-1.62-2.19-3.48-4.13-5.53-5.77H282.31z" class="st3"/><path d="M249.48,349.2h16.56c6.04,0,11.65,2.16,16.27,5.85h-16.56C261.12,351.37,255.52,349.2,249.48,349.2z" class="st3"/></g></g><g><path d="M250.12,349.2c-16.17,0-29.28,14.81-29.28,33.07c0,18.27,13.1,33.07,29.28,33.07 c16.17,0,29.28-14.81,29.28-33.07C279.4,364.01,266.29,349.2,250.12,349.2z" class="st2"/></g><g><path d="M249.48,349.2c-15.82,0-28.64,14.81-28.64,33.07c0,18.27,12.82,33.07,28.64,33.07 c15.82,0,28.64-14.81,28.64-33.07C278.11,364.01,265.29,349.2,249.48,349.2z" class="st7"/></g></g><g><g class="st5"><defs><path id="SVGID_00000151517535738957023040000017900632022107414420_" d="M231.84,415.34h16.56 c15.82,0,28.64-14.81,28.64-33.07c0-18.26-12.82-33.07-28.64-33.07h-16.56c15.82,0,28.64,14.81,28.64,33.07 C260.48,400.53,247.66,415.34,231.84,415.34z" class="st5"/></defs><clipPath id="SVGID_00000168108530165519482430000017032048829291347344_"><use xlink:href="#SVGID_00000151517535738957023040000017900632022107414420_" style="overflow:visible"/></clipPath><g style="clip-path:url(#SVGID_00000168108530165519482430000017032048829291347344_);enable-background:new"><path d="M260.48,382.27c0-1.78-0.13-3.52-0.36-5.23h16.56c0.23,1.7,0.36,3.45,0.36,5.23 c0,18.27-12.82,33.07-28.64,33.07h-16.56C247.66,415.34,260.48,400.53,260.48,382.27z" class="st3"/><path d="M270.2,360.82c2.12,2.87,3.82,6.17,5,9.76c0.67,2.06,1.17,4.22,1.48,6.46h-16.56 c-0.31-2.23-0.8-4.39-1.48-6.46l0,0c-1.18-3.59-2.88-6.89-5-9.76H270.2z" class="st3"/><path d="M264.67,355.06c2.05,1.64,3.91,3.58,5.53,5.77h-16.56c-1.62-2.19-3.48-4.13-5.53-5.77H264.67z" class="st3"/><path d="M231.84,349.2h16.56c6.04,0,11.65,2.16,16.27,5.85h-16.56C243.49,351.37,237.89,349.2,231.84,349.2z" class="st3"/></g></g><g><path d="M232.49,349.2c-16.17,0-29.28,14.81-29.28,33.07c0,18.27,13.1,33.07,29.28,33.07s29.28-14.81,29.28-33.07 C261.77,364.01,248.66,349.2,232.49,349.2z" class="st2"/></g><g><path d="M231.84,349.2c-15.82,0-28.64,14.81-28.64,33.07c0,18.27,12.82,33.07,28.64,33.07 c15.82,0,28.64-14.81,28.64-33.07C260.48,364.01,247.66,349.2,231.84,349.2z" class="st7"/></g><g><path d="M231.84,359.98c-10.66,0-19.3,9.98-19.3,22.29c0,12.31,8.64,22.29,19.3,22.29 c10.66,0,19.3-9.98,19.3-22.29C251.15,369.96,242.51,359.98,231.84,359.98z" class="st1"/></g><g><g><path d="M231.84,361.9c-9.74,0-17.64,9.12-17.64,20.37c0,11.25,7.89,20.37,17.64,20.37 c9.74,0,17.64-9.12,17.64-20.37C249.48,371.02,241.59,361.9,231.84,361.9z" class="st18"/></g><g><path d="M231.84,364.35c-8.57,0-15.52,8.02-15.52,17.92c0,9.9,6.95,17.92,15.52,17.92s15.52-8.02,15.52-17.92 C247.36,372.38,240.42,364.35,231.84,364.35z" class="st2"/></g><path d="M235.17,364.77c6.97,1.76,12.19,8.92,12.19,17.5c0,8.58-5.22,15.74-12.19,17.5 c-6.97-1.76-12.19-8.92-12.19-17.5C222.98,373.69,228.2,366.53,235.17,364.77z" class="st10"/><g><path d="M232.94,393.37c-1.94-1.3-3.96-1.47-4.5-0.39c-0.54,1.08,0.6,3.01,2.54,4.3c1.94,1.3,3.96,1.47,4.5,0.39 C236.02,396.59,234.88,394.67,232.94,393.37z M225.44,377.57c-1.08,0-1.95,2.1-1.95,4.7c0,2.59,0.87,4.7,1.95,4.7 c1.08,0,1.95-2.1,1.95-4.7C227.39,379.68,226.52,377.57,225.44,377.57z M230.98,367.26c-1.94,1.3-3.08,3.22-2.54,4.3 c0.54,1.08,2.55,0.9,4.5-0.39c1.94-1.3,3.08-3.22,2.54-4.3C234.94,365.79,232.93,365.96,230.98,367.26z" class="st3"/></g><g><path d="M231.84,380.6c-5.71,0-11.02,1.08-15.46,2.94c-0.03-0.42-0.06-0.84-0.06-1.27 c0-9.89,6.95-17.92,15.52-17.92c8.57,0,15.52,8.02,15.52,17.92c0,0.43-0.03,0.85-0.06,1.27 C242.87,381.69,237.56,380.6,231.84,380.6z" class="st2"/><g><g><path d="M238.49,374.59c-3.67,0-6.65,3.44-6.65,7.68c0,4.24,2.98,13.08,6.65,13.08c3.67,0,6.65-8.84,6.65-13.08 C245.14,378.03,242.17,374.59,238.49,374.59z" class="st2"/></g><g class="st5"><defs><path id="SVGID_00000073692286670469652990000006666529599466325932_" d="M231.84,389.95h6.65 c3.67,0,6.65-3.44,6.65-7.68c0-4.24-2.98-7.68-6.65-7.68h-6.65c3.67,0,6.65,3.44,6.65,7.68 C238.49,386.51,235.52,389.95,231.84,389.95z" class="st5"/></defs><clipPath id="SVGID_00000065065302036418972030000018367168246962080151_"><use xlink:href="#SVGID_00000073692286670469652990000006666529599466325932_" style="overflow:visible"/></clipPath><g style="clip-path:url(#SVGID_00000065065302036418972030000018367168246962080151_);enable-background:new"><path d="M231.84,389.95h6.65c3.67,0,6.65-3.44,6.65-7.68c0-0.95-0.15-1.87-0.43-2.71h-6.65 c0.28,0.84,0.43,1.76,0.43,2.71C238.49,386.51,235.52,389.95,231.84,389.95" class="st1"/><path d="M238.07,379.56h6.65c-0.27-0.83-0.67-1.6-1.16-2.27h-6.65C237.4,377.96,237.79,378.72,238.07,379.56" class="st2"/><path d="M236.91,377.29h6.65c-1.22-1.65-3.03-2.7-5.06-2.7h-6.65C233.87,374.59,235.69,375.64,236.91,377.29" class="st2"/></g></g><g><path d="M231.84,374.59c-3.67,0-6.65,3.44-6.65,7.68c0,4.24,2.98,7.68,6.65,7.68c3.67,0,6.65-3.44,6.65-7.68 C238.49,378.03,235.52,374.59,231.84,374.59z" class="st9"/></g></g></g></g></g></g><g><g><path d="M745.88,284.44L745.88,284.44c4.98,0,9.02-4.04,9.02-9.02v-12.09c0-4.98-4.04-9.02-9.02-9.02l0,0 c-4.98,0-9.02,4.04-9.02,9.02v12.09C736.86,280.4,740.9,284.44,745.88,284.44z" class="st3"/><path d="M746.33,284.44L746.33,284.44c4.74,0,8.58-3.84,8.58-8.58v-12.97c0-4.74-3.84-8.58-8.58-8.58l0,0 c-4.74,0-8.58,3.84-8.58,8.58v12.97C737.75,280.6,741.59,284.44,746.33,284.44z" class="st18"/></g><g><path d="M721.09,309.19c0.19,0,0.39-0.06,0.56-0.17l19.71-13.45c3.73-2.55,5.96-6.76,5.96-11.28v-30.27 c0-5.44-3.88-10.13-9.21-11.15l-44.45-8.53c-0.54-0.1-1.06,0.25-1.16,0.79c-0.1,0.54,0.25,1.06,0.79,1.16l44.45,8.53 c4.41,0.85,7.6,4.71,7.6,9.2v30.27c0,3.86-1.9,7.46-5.09,9.64l-19.71,13.45c-0.45,0.31-0.57,0.93-0.26,1.38 C720.47,309.04,720.78,309.19,721.09,309.19z" class="st3"/><path d="M721.09,308.2l19.71-13.45c3.46-2.36,5.52-6.27,5.52-10.45v-30.27c0-4.97-3.53-9.24-8.41-10.18l-44.45-8.53 h-0.97c0-0.06-0.01-0.12,0-0.19c0.1-0.54,0.62-0.89,1.16-0.79l44.45,8.53c5.34,1.02,9.21,5.71,9.21,11.15v30.27 c0,4.51-2.23,8.73-5.96,11.28l-19.71,13.45c-0.17,0.12-0.37,0.17-0.56,0.17C720.78,309.19,721.09,308.2,721.09,308.2z" class="st1"/></g></g><path d="M593.31,371.61c0-19.47-15.79-35.26-35.26-35.26h-48.64v-47.26l6.89-55.07c0.56-4.5,4.39-7.88,8.93-7.88 h145.31c50.23,0,62.59,79.49,62.59,79.49v70.69H593.31V371.61z" class="st26"/><path d="M586.36,362.61c0-14.5-11.76-26.26-26.26-26.26h-57.64v-44.68l9.13-60.96c0.39-2.62,2.65-4.57,5.3-4.57h64.5 c46.53,0,51.57,79.49,51.57,79.49v70.69h-46.59V362.61z" class="st38"/><path d="M502.56,290.98l9.03-60.28c0.39-2.62,2.65-4.57,5.3-4.57h64.5c33.79,0,45.69,41.89,49.68,64.85H502.56z" class="st39"/><g><rect width="25.5" height="15.23" x="593.46" y="355.94" class="st15" transform="matrix(-1 -4.493928e-11 4.493928e-11 -1 1212.4238 727.1136)"/><rect width="17.54" height="15.23" x="601.42" y="355.94" class="st15" transform="matrix(-1 -4.490287e-11 4.490287e-11 -1 1220.3833 727.1136)"/><polygon points="601.42 361.97 618.96 361.97 618.96 355.94 593.46 355.94" class="st2"/></g><path d="M540.65,336.35l0-44.7l7.34-54c0.32-2.25,2.28-3.95,4.56-3.95h28.43c22.22,0,33.84,23.14,39.68,42.55 c1.23,4.09,1.85,8.28,1.85,12.48v87.6h-0.5v-28.48H575.6v-0.5h46.42v-58.62c0-4.15-0.62-8.3-1.83-12.34 c-5.79-19.25-17.29-42.2-39.21-42.2h-28.43c-2.03,0-3.78,1.52-4.07,3.53l-7.34,53.97v44.67H540.65z" class="st3"/><g><path d="M550.43,331.75c22.06,0,39.94,17.88,39.94,39.94v4.62h-8.36v-4.71c0-19.47-15.79-35.26-35.26-35.26h-52.12 v-4.6H550.43z" class="st26"/><path d="M544.09,331.75c22.06,0,39.94,17.88,39.94,39.94v4.62h-5.49v-4.71c0-19.47-15.79-35.26-35.26-35.26h-48.64 v-4.6H544.09z" class="st40"/></g><rect width="88.11" height="17.92" x="638.98" y="344.05" class="st3" transform="matrix(-1 -4.490065e-11 4.490065e-11 -1 1366.0754 706.0214)"/><g><g><path d="M631.62,226.16h13.41v-12.19h-9.31c-2.26,0-4.1,1.84-4.1,4.1V226.16z" class="st3"/><rect width="11.12" height="12.19" x="633.91" y="213.97" class="st1" transform="matrix(-1 -4.483404e-11 4.483404e-11 -1 1278.9437 440.1322)"/><path d="M635.21,225.08H643c1.79,0,3.24-1.45,3.24-3.24v-3.54c0-1.79-1.45-3.24-3.24-3.24h-7.79V225.08z" class="st41"/><path d="M635.21,225.08L635.21,225.08c0.95,0,1.72-0.77,1.72-1.72v-6.58c0-0.95-0.77-1.72-1.72-1.72l0,0V225.08z" class="st42"/></g><g><path d="M604.77,226.16h13.41v-12.19h-9.31c-2.26,0-4.1,1.84-4.1,4.1V226.16z" class="st3"/><rect width="11.12" height="12.19" x="607.06" y="213.97" class="st1" transform="matrix(-1 -4.483404e-11 4.483404e-11 -1 1225.2389 440.1322)"/><path d="M608.36,225.08h7.79c1.79,0,3.24-1.45,3.24-3.24v-3.54c0-1.79-1.45-3.24-3.24-3.24h-7.79V225.08z" class="st41"/><path d="M608.36,225.08L608.36,225.08c0.95,0,1.72-0.77,1.72-1.72v-6.58c0-0.95-0.77-1.72-1.72-1.72l0,0V225.08z" class="st42"/></g><g><path d="M577.91,226.16h13.41v-12.19h-9.31c-2.26,0-4.1,1.84-4.1,4.1V226.16z" class="st3"/><rect width="11.12" height="12.19" x="580.21" y="213.97" class="st1" transform="matrix(-1 -4.483404e-11 4.483404e-11 -1 1171.5341 440.1322)"/><path d="M581.5,225.08h7.79c1.79,0,3.24-1.45,3.24-3.24v-3.54c0-1.79-1.45-3.24-3.24-3.24h-7.79V225.08z" class="st41"/><path d="M581.5,225.08L581.5,225.08c0.95,0,1.72-0.77,1.72-1.72v-6.58c0-0.95-0.77-1.72-1.72-1.72l0,0V225.08z" class="st42"/></g><g><path d="M551.06,226.16h13.41v-12.19h-9.31c-2.26,0-4.1,1.84-4.1,4.1V226.16z" class="st3"/><rect width="11.12" height="12.19" x="553.36" y="213.97" class="st1" transform="matrix(-1 -4.483404e-11 4.483404e-11 -1 1117.8293 440.1322)"/><path d="M554.65,225.08h7.79c1.79,0,3.24-1.45,3.24-3.24v-3.54c0-1.79-1.45-3.24-3.24-3.24h-7.79V225.08z" class="st41"/><path d="M554.65,225.08L554.65,225.08c0.95,0,1.72-0.77,1.72-1.72v-6.58c0-0.95-0.77-1.72-1.72-1.72l0,0V225.08z" class="st42"/></g></g><path d="M629.41,305.62c0,0-3.04-48-26.24-69.4c-0.88-0.81-0.28-2.29,0.92-2.29h91.55 c29.44,20.02,37.48,71.69,37.48,71.69v1.17h-100.8C631.24,306.79,630.2,306.37,629.41,305.62L629.41,305.62z" class="st3"/><path d="M635.58,354.03h97.54v-22.28h-97.54c-3.89,0-7.04,3.15-7.04,7.04v8.21 C628.54,350.88,631.69,354.03,635.58,354.03z" class="st1"/><path d="M632.95,354.03L632.95,354.03v-22.28l0,0c-2.43,0-4.41,1.97-4.41,4.41v13.47 C628.54,352.06,630.52,354.03,632.95,354.03z" class="st3"/><g><path d="M628.54,382.49h92.31c11.7,0,21.19-9.49,21.19-21.19v-5.36h-113.5V382.49z" class="st26"/><path d="M741.72,376.83c-0.96,3.27-3.97,5.66-7.55,5.66H628.54v-5.66H741.72z" class="st43"/><path d="M628.54,382.49L628.54,382.49c7.47,0,13.53-6.06,13.53-13.53v-13.02h-13.53V382.49z" class="st40"/></g><path d="M701.75,241.72c15.07,15.82,22.81,39.87,26.19,53.51h-92.81c-2.06-13.81-7.39-38.31-20.44-54.12 c-1.11-1.34-0.16-3.36,1.58-3.36h76.05C695.87,237.76,699.3,239.15,701.75,241.72z" class="st10"/><path d="M554.08,241.59c0.34-2.2,2.23-3.83,4.46-3.83h19.13c21.87,0,33.47,22.51,39.44,42.38 c1.21,4.03,1.84,8.2,1.84,12.4v6.94c0,4.04-3.27,7.31-7.31,7.31h-9.96c-3.61,0-6.95-1.93-8.74-5.07l-1.11-1.93 c-3.79-6.62-10.84-10.7-18.47-10.7h-21.32c-2.77,0-4.88-2.47-4.46-5.2L554.08,241.59z" class="st20"/><path d="M616.27,237.76h76.05c3.55,0,6.98,1.4,9.43,3.97c15.07,15.82,22.81,39.87,26.19,53.51h-7v-2.08 c0-4.02-0.63-8.02-1.84-11.87c-5.98-19.01-17.57-40.54-39.44-40.54h-17.11c-3.17,0-5.65,2.6-5.36,5.62l3.7,38.81 c0.25,2.65,2.58,4.68,5.36,4.68h9.11c5.41,0,10.52,1.97,14.4,5.38h-54.62c-0.24-1.6-0.52-3.34-0.86-5.2h10.55 c3.57,0,6.37-2.93,6.05-6.33l-3.55-37.66c-0.28-2.99-2.91-5.29-6.05-5.29h-12.23c-3.57,0-6.37,2.93-6.05,6.33l0.82,8.68 c-2.52-5.27-5.53-10.29-9.12-14.65C613.58,239.77,614.53,237.76,616.27,237.76z" class="st20"/><g><g><g><path d="M717.24,350.59h15.89v-15.04h-11.27c-2.5,0-4.79,1.44-5.86,3.7l-2.54,5.35 C712.14,347.39,714.16,350.59,717.24,350.59z" class="st15"/><path d="M733.12,348.43L733.12,348.43v-10.25l0,0c-1.95,0-3.53,1.58-3.53,3.53v3.19 C729.59,346.85,731.17,348.43,733.12,348.43z" class="st44"/></g><g><path d="M721.87,337.62c-2.7,0-4.88,2.52-4.88,5.64c0,3.11,2.19,5.64,4.88,5.64c2.7,0,4.88-2.52,4.88-5.64 C726.75,340.15,724.57,337.62,721.87,337.62z" class="st8"/></g><path d="M721.87,337.62c-0.43,0-0.84,0.08-1.24,0.21c2.09,0.64,3.65,2.82,3.65,5.43c0,2.62-1.55,4.8-3.65,5.43 c0.4,0.12,0.81,0.21,1.24,0.21c2.7,0,4.88-2.52,4.88-5.64C726.75,340.15,724.57,337.62,721.87,337.62z" class="st9"/></g><g><g><path d="M634.86,350.59h1.58v-15.04h-1.58c-2.81,0-5.08,2.27-5.08,5.08v4.88 C629.78,348.32,632.06,350.59,634.86,350.59z" class="st2"/><rect width="3.79" height="10.25" x="629.78" y="338.18" class="st28" transform="matrix(-1 -4.513690e-11 4.513690e-11 -1 1263.3501 686.6075)"/></g><g><g><path d="M648.84,350.59h-15.89v-15.04h11.27c2.5,0,4.79,1.44,5.86,3.7l2.54,5.35 C653.94,347.39,651.91,350.59,648.84,350.59z" class="st15"/><path d="M632.95,348.43L632.95,348.43v-10.25l0,0c1.95,0,3.53,1.58,3.53,3.53v3.19 C636.48,346.85,634.9,348.43,632.95,348.43z" class="st44"/></g><g><path d="M644.21,337.62c-2.7,0-4.88,2.52-4.88,5.64c0,3.11,2.19,5.64,4.88,5.64c2.7,0,4.88-2.52,4.88-5.64 C649.09,340.15,646.9,337.62,644.21,337.62z" class="st8"/></g><path d="M644.21,337.62c-0.43,0-0.84,0.08-1.24,0.21c2.09,0.64,3.65,2.82,3.65,5.43c0,2.62-1.55,4.8-3.65,5.43 c0.4,0.12,0.81,0.21,1.24,0.21c2.7,0,4.88-2.52,4.88-5.64C649.09,340.15,646.9,337.62,644.21,337.62z" class="st9"/></g></g></g><path d="M647.92,319.17h70.23c2.05,0,3.71-1.66,3.71-3.71l0,0c0-2.05-1.66-3.71-3.71-3.71h-70.23 c-2.05,0-3.71,1.66-3.71,3.71l0,0C644.21,317.5,645.87,319.17,647.92,319.17z" class="st3"/><g><g><rect width="50.44" height="4.43" x="657.82" y="334.8" class="st7" transform="matrix(-1 -4.486423e-11 4.486423e-11 -1 1366.0754 674.0288)"/><rect width="50.44" height="4.43" x="657.82" y="340.67" class="st7" transform="matrix(-1 -4.486423e-11 4.486423e-11 -1 1366.0754 685.7679)"/><rect width="50.44" height="4.43" x="657.82" y="346.54" class="st7" transform="matrix(-1 -4.490021e-11 4.490021e-11 -1 1366.0754 697.5072)"/></g><g><rect width="48.79" height="4.43" x="657.82" y="334.8" class="st3" transform="matrix(-1 -4.489088e-11 4.489088e-11 -1 1364.4246 674.0288)"/><rect width="48.79" height="4.43" x="657.82" y="340.67" class="st3" transform="matrix(-1 -4.485358e-11 4.485358e-11 -1 1364.4246 685.7679)"/><rect width="48.79" height="4.43" x="657.82" y="346.54" class="st3" transform="matrix(-1 -4.489088e-11 4.489088e-11 -1 1364.4246 697.5072)"/></g></g><g><path d="M612.86,268.19c-0.86,1.36-1.3,3.02-1.14,4.83l2.9,33.14c2.56-1.14,4.35-3.7,4.35-6.68v-6.94 c0-4.2-0.63-8.38-1.84-12.4C615.93,276.19,614.52,272.14,612.86,268.19z M559.15,273.02l1.41,16.07h12.81 c7.63,0,14.68,4.08,18.47,10.7l1.11,1.93c1.8,3.13,5.13,5.07,8.74,5.07h5.02l-2.95-33.77c-0.38-4.38-4.1-7.96-8.43-8.26 c0.93-1.24,1.42-2.84,1.27-4.59l-0.53-6.03c-0.35-3.95-3.83-7.16-7.79-7.16h-18.19c-3.95,0-6.88,3.21-6.53,7.16l0.53,6.03 c0.15,1.75,0.92,3.35,2.07,4.59C561.86,265.06,558.77,268.64,559.15,273.02z M622.64,246.97c-1.18,0-2.26,0.29-3.19,0.79 c9.63,15.42,13.9,35.47,15.69,47.47h23.12l-1.94-22.21c-0.38-4.38-4.1-7.96-8.43-8.26c0.93-1.24,1.42-2.84,1.27-4.59l-0.53-6.03 c-0.35-3.95-3.83-7.16-7.79-7.16H622.64z" class="st45"/><path d="M707.06,284.44c7.13,0,13.19,4.49,15.56,10.79h-87.48c-0.47-3.12-1.1-6.8-1.95-10.79H707.06z" class="st46"/></g><g class="st47"><path d="M616.27,237.76h76.05c3.55,0,6.98,1.4,9.43,3.97c15.07,15.82,22.81,39.87,26.19,53.51h-24.56 c-9.24-31.14-47.19-33.45-76.47-32.24c-3.03-7.86-7.01-15.56-12.23-21.88C613.58,239.77,614.53,237.76,616.27,237.76z" class="st9"/><path d="M558.54,237.76h19.13c21.87,0,33.47,22.51,39.44,42.38c1.21,4.03,1.84,8.2,1.84,12.4v6.94 c0,4.04-3.27,7.31-7.31,7.31h-3.69c-6.32-16.78-12.68-35-29.11-42.3c-9.05-3.62-18.46-3.57-27.79-3.2l3.02-19.69 C554.42,239.38,556.31,237.76,558.54,237.76z" class="st9"/></g><g><g><path d="M550.19,308.2h11.61c1.47,0,2.65-1.19,2.65-2.65l0,0c0-1.47-1.19-2.65-2.65-2.65h-11.61 c-1.47,0-2.65,1.19-2.65,2.65l0,0C547.54,307.01,548.73,308.2,550.19,308.2z" class="st2"/></g><g><path d="M547.23,308.2h11.61c1.47,0,2.65-1.19,2.65-2.65l0,0c0-1.47-1.19-2.65-2.65-2.65h-11.61 c-1.47,0-2.65,1.19-2.65,2.65l0,0C544.58,307.01,545.77,308.2,547.23,308.2z" class="st9"/></g></g><path d="M521.7,237.76h14.38c3.04,0,5.37,2.71,4.91,5.72l-6.38,41.58c-0.37,2.42-2.46,4.21-4.91,4.21h-14.38 c-3.04,0-5.37-2.71-4.91-5.72l6.38-41.58C517.16,239.55,519.25,237.76,521.7,237.76z" class="st3"/><path d="M592.52,301.97l-1.11-1.93c-3.69-6.45-10.61-10.45-18.04-10.45h-21.32c-1.46,0-2.85-0.64-3.8-1.75 c-0.95-1.11-1.37-2.58-1.15-4.02l6.49-42.3l0,0c0.38-2.46,2.46-4.25,4.95-4.25h19.13c22.37,0,34.06,23.24,39.92,42.73 c1.24,4.11,1.86,8.33,1.86,12.55v6.94c0,4.31-3.5,7.81-7.81,7.81h-9.96C597.91,307.28,594.4,305.25,592.52,301.97z M558.54,238.25 c-2,0-3.67,1.43-3.97,3.41l-6.49,42.3c-0.18,1.16,0.16,2.34,0.92,3.23s1.88,1.4,3.05,1.4h21.32c7.79,0,15.03,4.2,18.9,10.95 l1.11,1.93c1.7,2.97,4.89,4.82,8.31,4.82h9.96c3.76,0,6.81-3.06,6.81-6.81v-6.94c0-4.12-0.61-8.25-1.82-12.26 c-5.76-19.17-17.21-42.02-38.97-42.02H558.54z" class="st3"/><g><path d="M597.91,236.99L597.91,236.99c0.55,0,0.99-0.45,0.99-0.99v-1.74c0-0.55-0.45-0.99-0.99-0.99l0,0 c-0.55,0-0.99,0.45-0.99,0.99V236C596.92,236.54,597.36,236.99,597.91,236.99z" class="st3"/><path d="M625.64,310.27L625.64,310.27c0.55,0,0.99-0.45,0.99-0.99v-1.74c0-0.55-0.45-0.99-0.99-0.99l0,0 c-0.55,0-0.99,0.45-0.99,0.99v1.74C624.65,309.82,625.09,310.27,625.64,310.27z" class="st3"/><g><g><path d="M650.74,284.44L650.74,284.44c4.98,0,9.02-4.04,9.02-9.02v-12.09c0-4.98-4.04-9.02-9.02-9.02l0,0 c-4.98,0-9.02,4.04-9.02,9.02v12.09C641.71,280.4,645.75,284.44,650.74,284.44z" class="st3"/><path d="M651.18,284.44L651.18,284.44c4.74,0,8.58-3.84,8.58-8.58v-12.97c0-4.74-3.84-8.58-8.58-8.58l0,0 c-4.74,0-8.58,3.84-8.58,8.58v12.97C642.6,280.6,646.44,284.44,651.18,284.44z" class="st18"/></g><g><path d="M625.94,309.19c0.19,0,0.39-0.06,0.56-0.17l19.71-13.45c3.73-2.55,5.96-6.76,5.96-11.28v-30.27 c0-5.44-3.87-10.13-9.21-11.15l-44.45-8.53c-0.54-0.1-1.06,0.25-1.16,0.79c-0.1,0.54,0.25,1.06,0.79,1.16l44.45,8.53 c4.41,0.85,7.6,4.71,7.6,9.2v30.27c0,3.86-1.9,7.46-5.09,9.64l-19.71,13.45c-0.45,0.31-0.57,0.93-0.26,1.38 C625.32,309.04,625.63,309.19,625.94,309.19z" class="st3"/><path d="M625.94,308.2l19.71-13.45c3.46-2.36,5.52-6.27,5.52-10.45v-30.27c0-4.97-3.53-9.24-8.41-10.18 l-44.45-8.53h-0.97c0-0.06-0.01-0.12,0-0.19c0.1-0.54,0.62-0.89,1.16-0.79l44.45,8.53c5.34,1.02,9.21,5.71,9.21,11.15v30.27 c0,4.51-2.23,8.73-5.96,11.28l-19.71,13.45c-0.17,0.12-0.37,0.17-0.56,0.17C625.63,309.19,625.94,308.2,625.94,308.2z" class="st1"/></g></g></g><path d="M488.55,331.75v44.57H273.12c-2.46-23.71-19.37-42.08-39.9-42.08s-37.44,18.37-39.9,42.08h-31.91 c-24.61,0-44.57-19.95-44.57-44.57v0H488.55z" class="st38"/><g><g><path d="M271.82,376.31c-2.52-21.84-18.7-38.69-38.31-38.69s-35.79,16.86-38.31,38.69h-5.13 c2.55-25.09,21.02-44.57,43.44-44.57s40.89,19.48,43.44,44.57H271.82z" class="st34"/><path d="M271.82,376.31c-2.52-21.84-18.7-38.69-38.31-38.69s-35.79,16.86-38.31,38.69h-5.13 c2.55-25.09,21.02-44.57,43.44-44.57s40.89,19.48,43.44,44.57H271.82z" class="st34"/></g></g><polygon points="451.77 331.75 488.55 331.75 501 247.21 482.4 247.21" class="st26"/><g><g><g><polygon points="420.23 364.15 420.23 367.76 430.09 367.76 430.09 364.15 431.5 364.15 431.5 369.33 418.82 369.33 418.82 364.15" class="st2"/><rect width="18.19" height="4.21" x="413.31" y="360.31" class="st3"/><rect width="12.56" height="4.21" x="413.31" y="360.31" class="st1"/><g><path d="M425.16,363.76h-1.89c-0.72,0-1.3-0.58-1.3-1.3v-0.09c0-0.72,0.58-1.3,1.3-1.3h1.89V363.76z" class="st44"/><path d="M425.16,363.76L425.16,363.76c-0.38,0-0.69-0.31-0.69-0.69v-1.31c0-0.38,0.31-0.69,0.69-0.69l0,0V363.76 z" class="st28"/></g><g><path d="M416.31,363.76h-1.89c-0.72,0-1.3-0.58-1.3-1.3v-0.09c0-0.72,0.58-1.3,1.3-1.3h1.89V363.76z" class="st44"/><path d="M416.31,363.76L416.31,363.76c-0.38,0-0.69-0.31-0.69-0.69v-1.31c0-0.38,0.31-0.69,0.69-0.69l0,0V363.76 z" class="st28"/></g></g><path d="M405.01,340.13h43.51v31.62h-43.51V340.13z M448,340.66h-42.46v30.58H448V340.66z" class="st3"/></g><g><g><polygon points="371.31 364.15 371.31 367.76 381.18 367.76 381.18 364.15 382.58 364.15 382.58 369.33 369.9 369.33 369.9 364.15" class="st2"/><rect width="18.19" height="4.21" x="364.39" y="360.31" class="st3"/><rect width="12.56" height="4.21" x="364.39" y="360.31" class="st1"/><g><path d="M376.24,363.76h-1.89c-0.72,0-1.3-0.58-1.3-1.3v-0.09c0-0.72,0.58-1.3,1.3-1.3h1.89V363.76z" class="st44"/><path d="M376.24,363.76L376.24,363.76c-0.38,0-0.69-0.31-0.69-0.69v-1.31c0-0.38,0.31-0.69,0.69-0.69l0,0V363.76 z" class="st28"/></g><g><path d="M367.39,363.76h-1.89c-0.72,0-1.3-0.58-1.3-1.3v-0.09c0-0.72,0.58-1.3,1.3-1.3h1.89V363.76z" class="st44"/><path d="M367.39,363.76L367.39,363.76c-0.38,0-0.69-0.31-0.69-0.69v-1.31c0-0.38,0.31-0.69,0.69-0.69l0,0V363.76 z" class="st28"/></g></g><path d="M356.1,340.13h43.51v31.62H356.1V340.13z M399.08,340.66h-42.46v30.58h42.46V340.66z" class="st3"/></g><g><g><polygon points="322.39 364.15 322.39 367.76 332.26 367.76 332.26 364.15 333.67 364.15 333.67 369.33 320.98 369.33 320.98 364.15" class="st2"/><rect width="18.19" height="4.21" x="315.47" y="360.31" class="st3"/><rect width="12.56" height="4.21" x="315.47" y="360.31" class="st1"/><g><path d="M327.32,363.76h-1.89c-0.72,0-1.3-0.58-1.3-1.3v-0.09c0-0.72,0.58-1.3,1.3-1.3h1.89V363.76z" class="st44"/><path d="M327.32,363.76L327.32,363.76c-0.38,0-0.69-0.31-0.69-0.69v-1.31c0-0.38,0.31-0.69,0.69-0.69l0,0V363.76 z" class="st28"/></g><g><path d="M318.47,363.76h-1.89c-0.72,0-1.3-0.58-1.3-1.3v-0.09c0-0.72,0.58-1.3,1.3-1.3h1.89V363.76z" class="st44"/><path d="M318.47,363.76L318.47,363.76c-0.38,0-0.69-0.31-0.69-0.69v-1.31c0-0.38,0.31-0.69,0.69-0.69l0,0V363.76 z" class="st28"/></g></g><path d="M307.18,340.13h43.51v31.62h-43.51V340.13z M350.16,340.66H307.7v30.58h42.46V340.66z" class="st3"/></g></g><g><rect width="394.07" height="7.93" x="47.39" y="319.07" class="st8" transform="matrix(-1 -4.489443e-11 4.489443e-11 -1 488.8418 646.0704)"/><polygon points="54.47 331.75 448.54 331.75 441.46 327 47.39 327" class="st2"/></g><rect width="334.92" height="4.3" x="116.85" y="331.75" class="st43" transform="matrix(-1 -4.489354e-11 4.489354e-11 -1 568.6271 667.7881)"/><g><g><g><rect width="10.71" height="4.13" x="426.93" y="320.97" class="st3" transform="matrix(-1 -4.499613e-11 4.499613e-11 -1 864.577 646.0704)"/><rect width="10.71" height="4.13" x="416.22" y="320.97" class="st48" transform="matrix(-1 -4.482604e-11 4.482604e-11 -1 843.1514 646.0704)"/></g><g><rect width="10.71" height="4.13" x="405.51" y="320.97" class="st3" transform="matrix(-1 -4.482604e-11 4.482604e-11 -1 821.7256 646.0704)"/><rect width="10.71" height="4.13" x="394.79" y="320.97" class="st48" transform="matrix(-1 -4.499613e-11 4.499613e-11 -1 800.3 646.0704)"/></g><g><rect width="10.71" height="4.13" x="384.08" y="320.97" class="st3" transform="matrix(-1 -4.482604e-11 4.482604e-11 -1 778.8743 646.0704)"/><rect width="10.71" height="4.13" x="373.37" y="320.97" class="st48" transform="matrix(-1 -4.499613e-11 4.499613e-11 -1 757.4486 646.0704)"/></g><g><rect width="10.71" height="4.13" x="362.66" y="320.97" class="st3" transform="matrix(-1 -4.482604e-11 4.482604e-11 -1 736.0229 646.0704)"/><rect width="10.71" height="4.13" x="351.94" y="320.97" class="st48" transform="matrix(-1 -4.499568e-11 4.499568e-11 -1 714.5972 646.0704)"/></g><g><rect width="10.71" height="4.13" x="341.23" y="320.97" class="st3" transform="matrix(-1 -4.482604e-11 4.482604e-11 -1 693.1716 646.0704)"/><rect width="10.71" height="4.13" x="330.52" y="320.97" class="st48" transform="matrix(-1 -4.499613e-11 4.499613e-11 -1 671.7459 646.0704)"/></g><g><rect width="10.71" height="4.13" x="319.8" y="320.97" class="st3" transform="matrix(-1 -4.482604e-11 4.482604e-11 -1 650.3203 646.0704)"/><rect width="10.71" height="4.13" x="309.09" y="320.97" class="st48" transform="matrix(-1 -4.482604e-11 4.482604e-11 -1 628.8945 646.0704)"/></g><g><rect width="10.71" height="4.13" x="298.38" y="320.97" class="st3" transform="matrix(-1 -4.499613e-11 4.499613e-11 -1 607.4689 646.0704)"/><rect width="10.71" height="4.13" x="287.67" y="320.97" class="st48" transform="matrix(-1 -4.482604e-11 4.482604e-11 -1 586.0432 646.0704)"/></g><g><rect width="10.71" height="4.13" x="276.95" y="320.97" class="st3" transform="matrix(-1 -4.482604e-11 4.482604e-11 -1 564.6175 646.0704)"/><rect width="10.71" height="4.13" x="266.24" y="320.97" class="st48" transform="matrix(-1 -4.499613e-11 4.499613e-11 -1 543.1918 646.0704)"/></g><g><rect width="10.71" height="4.13" x="255.53" y="320.97" class="st3" transform="matrix(-1 -4.482604e-11 4.482604e-11 -1 521.7662 646.0704)"/><rect width="10.71" height="4.13" x="244.81" y="320.97" class="st48" transform="matrix(-1 -4.499613e-11 4.499613e-11 -1 500.3405 646.0704)"/></g></g><g><g><rect width="10.71" height="4.13" x="234.1" y="320.97" class="st3" transform="matrix(-1 -4.482604e-11 4.482604e-11 -1 478.9148 646.0704)"/><rect width="10.71" height="4.13" x="223.39" y="320.97" class="st48" transform="matrix(-1 -4.482604e-11 4.482604e-11 -1 457.4891 646.0704)"/></g><g><rect width="10.71" height="4.13" x="212.68" y="320.97" class="st3" transform="matrix(-1 -4.499613e-11 4.499613e-11 -1 436.0635 646.0704)"/><rect width="10.71" height="4.13" x="201.96" y="320.97" class="st48" transform="matrix(-1 -4.482604e-11 4.482604e-11 -1 414.6378 646.0704)"/></g><g><rect width="10.71" height="4.13" x="191.25" y="320.97" class="st3" transform="matrix(-1 -4.499613e-11 4.499613e-11 -1 393.2121 646.0704)"/><rect width="10.71" height="4.13" x="180.54" y="320.97" class="st48" transform="matrix(-1 -4.482604e-11 4.482604e-11 -1 371.7864 646.0704)"/></g><g><rect width="10.71" height="4.13" x="169.82" y="320.97" class="st3" transform="matrix(-1 -4.482604e-11 4.482604e-11 -1 350.3607 646.0704)"/><rect width="10.71" height="4.13" x="159.11" y="320.97" class="st48" transform="matrix(-1 -4.516577e-11 4.516577e-11 -1 328.9351 646.0704)"/></g><g><rect width="10.71" height="4.13" x="148.4" y="320.97" class="st3" transform="matrix(-1 -4.465640e-11 4.465640e-11 -1 307.5094 646.0704)"/><rect width="10.71" height="4.13" x="137.69" y="320.97" class="st48" transform="matrix(-1 -4.499613e-11 4.499613e-11 -1 286.0837 646.0704)"/></g><g><rect width="10.71" height="4.13" x="126.97" y="320.97" class="st3" transform="matrix(-1 -4.482604e-11 4.482604e-11 -1 264.6581 646.0704)"/><rect width="10.71" height="4.13" x="116.26" y="320.97" class="st48" transform="matrix(-1 -4.499613e-11 4.499613e-11 -1 243.2323 646.0704)"/></g><g><rect width="10.71" height="4.13" x="105.55" y="320.97" class="st3" transform="matrix(-1 -4.482604e-11 4.482604e-11 -1 221.8067 646.0704)"/><rect width="10.71" height="4.13" x="94.83" y="320.97" class="st48" transform="matrix(-1 -4.499568e-11 4.499568e-11 -1 200.381 646.0704)"/></g><g><rect width="10.71" height="4.13" x="84.12" y="320.97" class="st3" transform="matrix(-1 -4.482604e-11 4.482604e-11 -1 178.9553 646.0704)"/><rect width="10.71" height="4.13" x="73.41" y="320.97" class="st48" transform="matrix(-1 -4.499613e-11 4.499613e-11 -1 157.5296 646.0704)"/></g><g><rect width="10.71" height="4.13" x="62.7" y="320.97" class="st3" transform="matrix(-1 -4.465640e-11 4.465640e-11 -1 136.104 646.0704)"/><rect width="10.71" height="4.13" x="51.98" y="320.97" class="st48" transform="matrix(-1 -4.516577e-11 4.516577e-11 -1 114.6783 646.0704)"/></g></g></g></g></g></svg>