<svg xmlns="http://www.w3.org/2000/svg" xmlns:xlink="http://www.w3.org/1999/xlink" x="0" y="0" version="1.1" viewBox="0 0 800 600" xml:space="preserve" style="enable-background:new 0 0 800 600"><style type="text/css">.st0{filter:url(#Adobe_OpacityMaskFilter)}.st4{fill:#bc8430}.st5{opacity:.5;fill:#fff}.st6{fill:#071d2f}.st7{fill:#15588d}.st8{fill:#0e3b5e}.st9{fill:#6d6e71}.st10{fill:#fbb040}.st11{fill:#1c75bc}.st12{fill:#bcbec0}.st14{fill:#221e20}.st15{fill:#929497}.st16{enable-background:new}.st18{fill:#414042}.st19{fill:#e6e7e7}.st20{fill:#fff}.st21{fill:#6d6f71}.st23{fill:#2c3b8d}.st24{fill:#aaafd2}.st25{fill:#8087bb}.st26{fill:#bbbdbe}.st27{fill:#283068}.st28{fill:#5561a6}.st29{fill:#cfd1d3}.st30{fill:#88cbca}.st31{fill:#3c2415}.st32{fill:#594a42}.st33{fill:#726658}.st34{fill:#998379}.st35{fill:#bd1f2d}.st36{fill:#e42528}.st37{fill:#ed1c24}.st38{fill:#d1d3d4}.st39{fill:#939598}.st44{fill:#f14950}.st45{fill:#3b0709}.st46{fill:#58595b}.st47{fill:#e6e7e8}.st48{fill:#00a79d}.st50{fill:#231f20}.st55{fill:#770e12}.st56{fill:#ffc717}.st57{fill:#2b3990}.st66{fill:#a7a9ac}.st71{fill:#27aae1}.st72{fill:#b2151b}</style><g id="air_pump"><g><defs><filter id="Adobe_OpacityMaskFilter" width="446.19" height="68.2" x="200.2" y="404.22" filterUnits="userSpaceOnUse"><feFlood style="flood-color:white;flood-opacity:1" result="back"/><feBlend in="SourceGraphic" in2="back" mode="normal"/></filter></defs><mask id="SVGID_1_" width="446.19" height="68.2" x="200.2" y="404.22" maskUnits="userSpaceOnUse"><g class="st0"><defs><filter id="Adobe_OpacityMaskFilter_00000149366021231883668020000003785511433288309166_" width="446.19" height="68.2" x="200.2" y="404.22" filterUnits="userSpaceOnUse"><feFlood style="flood-color:white;flood-opacity:1" result="back"/><feBlend in="SourceGraphic" in2="back" mode="normal"/></filter></defs><linearGradient id="SVGID_00000038384719489072115390000015699827107192506499_" x1="423.298" x2="423.298" y1="472.42" y2="404.22" gradientUnits="userSpaceOnUse"><stop offset="0" style="stop-color:#000"/><stop offset=".143" style="stop-color:#040404"/><stop offset=".271" style="stop-color:#0e0e0e"/><stop offset=".393" style="stop-color:#212121"/><stop offset=".512" style="stop-color:#3a3a3a"/><stop offset=".628" style="stop-color:#5c5c5c"/><stop offset=".742" style="stop-color:#848484"/><stop offset=".855" style="stop-color:#b4b4b4"/><stop offset=".963" style="stop-color:#ebebeb"/><stop offset="1" style="stop-color:#fff"/></linearGradient><path style="mask:url(#SVGID_1_);fill:url(#SVGID_00000038384719489072115390000015699827107192506499_)" d="M505.26,455.18 l-12.36-9.94l4.22-3.39l35.01-28.15c0.08-0.06,0.13-0.14,0.2-0.2h103.68l10.38-5.81v-3.47H200.2v3.47l10.38,5.81h105.49 c0.07,0.06,0.12,0.14,0.2,0.2l39.24,31.55l-33.8,27.18h32.63l17.48-14.06l17.48,14.06h32.63l-21.44-17.24l-12.36-9.94l4.22-3.39 l31.84-25.6l36.06,29l-33.8,27.18h32.63l17.48-14.06l17.48,14.06h32.63L505.26,455.18z M371.82,432.13l-23.17-18.63h46.33 L371.82,432.13z M476.58,432.13l-23.17-18.63h46.33L476.58,432.13z"/></g></mask><linearGradient id="SVGID_00000157276871900536090980000003736944822942674860_" x1="423.298" x2="423.298" y1="472.42" y2="404.22" gradientUnits="userSpaceOnUse"><stop offset="0" style="stop-color:#231f20"/><stop offset=".353" style="stop-color:#1f1c1d"/><stop offset=".668" style="stop-color:#151213"/><stop offset=".968" style="stop-color:#020202"/><stop offset="1" style="stop-color:#000"/></linearGradient><path style="opacity:.7;fill:url(#SVGID_00000157276871900536090980000003736944822942674860_)" d="M505.26,455.18l-12.36-9.94 l4.22-3.39l35.01-28.15c0.08-0.06,0.13-0.14,0.2-0.2h103.68l10.38-5.81v-3.47H200.2v3.47l10.38,5.81h105.49 c0.07,0.06,0.12,0.14,0.2,0.2l39.24,31.55l-33.8,27.18h32.63l17.48-14.06l17.48,14.06h32.63l-21.44-17.24l-12.36-9.94l4.22-3.39 l31.84-25.6l36.06,29l-33.8,27.18h32.63l17.48-14.06l17.48,14.06h32.63L505.26,455.18z M371.82,432.13l-23.17-18.63h46.33 L371.82,432.13z M476.58,432.13l-23.17-18.63h46.33L476.58,432.13z"/><ellipse cx="423.3" cy="404.22" rx="258.36" ry="2.19"/><g><g><g><g><g><polygon points="200.2 404.22 200.2 400.75 210.58 394.94 538.71 394.94 549.09 400.75 549.09 404.22" class="st4"/><polygon points="221.14 404.22 221.14 400.75 231.52 394.94 538.71 394.94 549.09 400.75 549.09 404.22"/><rect width="20.94" height="3.47" x="200.2" y="400.75" class="st5"/></g></g></g><g><g><g><g><path d="M414.89,394.74l-88.8-71.4c-0.94-0.76-2.07-1.12-3.19-1.15c0-0.01,0.01-0.02,0.01-0.02h-3.46 c0,0,0.01,0.02,0.01,0.02c-1.51,0.04-2.98,0.7-4,1.96c-1.84,2.29-1.48,5.65,0.81,7.49l88.8,71.4 c1.02,0.82,2.26,1.18,3.48,1.15l-0.01,0.02l3.23,0l-0.02-0.02c1.49-0.06,2.95-0.71,3.96-1.96 C417.54,399.94,417.18,396.59,414.89,394.74z" class="st6"/><path d="M408.21,402.15l-88.8-71.4c-2.29-1.84-2.66-5.2-0.81-7.49l0,0c1.84-2.29,5.2-2.66,7.49-0.81l88.8,71.4 c2.29,1.84,2.66,5.2,0.81,7.49v0C413.86,403.63,410.5,404,408.21,402.15z"/></g><g><g><path d="M414.89,323.94l-88.8-71.4c-0.94-0.76-2.07-1.12-3.19-1.15c0-0.01,0.01-0.02,0.01-0.02h-3.46 c0,0,0.01,0.02,0.01,0.02c-1.51,0.04-2.98,0.7-4,1.96c-1.84,2.29-1.48,5.65,0.81,7.49l88.8,71.4 c1.02,0.82,2.26,1.18,3.48,1.15l-0.01,0.02l3.23,0l-0.02-0.02c1.49-0.06,2.95-0.71,3.96-1.96 C417.54,329.13,417.18,325.78,414.89,323.94z" class="st6"/><path d="M408.21,332.24l-88.8-71.4c-2.29-1.84-2.66-5.2-0.81-7.49l0,0c1.84-2.29,5.2-2.66,7.49-0.81l88.8,71.4 c2.29,1.84,2.66,5.2,0.81,7.49l0,0C413.86,333.72,410.5,334.08,408.21,332.24z"/></g><g><path d="M414.89,260.84l-88.8,71.4c-0.94,0.76-2.07,1.12-3.19,1.15c0,0.01,0.01,0.02,0.01,0.02h-3.46 c0,0,0.01-0.02,0.01-0.02c-1.51-0.04-2.98-0.7-4-1.96c-1.84-2.29-1.48-5.65,0.81-7.49l88.8-71.4 c1.02-0.82,2.26-1.18,3.48-1.15l-0.01-0.02l3.23,0l-0.02,0.02c1.49,0.06,2.95,0.71,3.96,1.96 C417.54,255.64,417.18,259,414.89,260.84z" class="st7"/><path d="M408.69,252.54l-88.8,71.4c-2.29,1.84-2.66,5.2-0.81,7.49l0,0c1.84,2.29,5.2,2.66,7.49,0.81l88.8-71.4 c2.29-1.84,2.66-5.2,0.81-7.49l0,0C414.34,251.06,410.99,250.69,408.69,252.54z"/></g><g><ellipse cx="367.48" cy="291.98" rx="2.91" ry="2.92" transform="matrix(1 -2.154641e-03 2.154641e-03 1 -0.6283 0.7925)"/><g><ellipse cx="323.16" cy="257.02" rx="2.92" ry="2.91" transform="matrix(2.173381e-03 -1 1 2.173381e-03 65.4409 579.618)"/><ellipse cx="411.14" cy="257.02" rx="2.92" ry="2.91" transform="matrix(2.182865e-03 -1 1 2.182865e-03 153.2265 667.5961)"/></g><g><ellipse cx="411.14" cy="327.73" rx="2.91" ry="2.92" transform="matrix(1 -2.163961e-03 2.163961e-03 1 -0.7082 0.8905)"/></g></g></g><g><path d="M414.89,331.65l-88.8,71.4c-0.94,0.76-2.07,1.12-3.19,1.15c0,0.01,0.01,0.02,0.01,0.02h-3.46 c0,0,0.01-0.02,0.01-0.02c-1.51-0.04-2.98-0.7-4-1.96c-1.84-2.29-1.48-5.65,0.81-7.49l88.8-71.4 c1.02-0.82,2.26-1.18,3.48-1.15l-0.01-0.02l3.23,0l-0.02,0.02c1.49,0.06,2.95,0.71,3.96,1.96 C417.54,326.45,417.18,329.81,414.89,331.65z" class="st7"/><path d="M408.06,322.73l-88.8,71.4c-2.29,1.84-2.66,5.2-0.81,7.49h0c1.84,2.29,5.2,2.66,7.49,0.81l88.8-71.4 c2.29-1.84,2.66-5.2,0.81-7.49l0,0C413.7,321.25,410.35,320.89,408.06,322.73z"/></g><g><g><ellipse cx="411.14" cy="327.83" rx="2.91" ry="2.92" transform="matrix(1 -2.163961e-03 2.163961e-03 1 -0.7084 0.8905)"/></g></g></g><g><g><path d="M427.37,394.74l-88.8-71.4c-0.94-0.76-2.07-1.12-3.19-1.15c0-0.01,0.01-0.02,0.01-0.02h-3.46 c0,0,0.01,0.02,0.01,0.02c-1.51,0.04-2.98,0.7-4,1.96c-1.84,2.29-1.48,5.65,0.81,7.49l88.8,71.4 c1.02,0.82,2.26,1.18,3.48,1.15l-0.01,0.02l3.23,0l-0.02-0.02c1.49-0.06,2.95-0.71,3.96-1.96 C430.03,399.94,429.67,396.59,427.37,394.74z" class="st8"/><path d="M420.7,403.04l-88.8-71.4c-2.29-1.84-2.66-5.2-0.81-7.49v0c1.84-2.29,5.2-2.66,7.49-0.81l88.8,71.4 c2.29,1.84,2.66,5.2,0.81,7.49l0,0C426.34,404.52,422.99,404.89,420.7,403.04z" class="st6"/></g><g><g><path d="M427.37,323.93l-88.8-71.4c-0.94-0.76-2.07-1.12-3.19-1.15c0-0.01,0.01-0.02,0.01-0.02h-3.46 c0,0,0.01,0.02,0.01,0.02c-1.51,0.04-2.98,0.7-4,1.96c-1.84,2.29-1.48,5.65,0.81,7.49l88.8,71.4 c1.02,0.82,2.26,1.18,3.48,1.15l-0.01,0.02l3.23,0l-0.02-0.02c1.49-0.06,2.95-0.71,3.96-1.96 C430.03,329.13,429.67,325.78,427.37,323.93z" class="st8"/><path d="M420.7,332.24l-88.8-71.4c-2.29-1.84-2.66-5.2-0.81-7.49l0,0c1.84-2.29,5.2-2.66,7.49-0.81l88.8,71.4 c2.29,1.84,2.66,5.2,0.81,7.49l0,0C426.34,333.71,422.99,334.08,420.7,332.24z" class="st6"/></g><g><path d="M427.37,260.84l-88.8,71.4c-0.94,0.76-2.07,1.12-3.19,1.15c0,0.01,0.01,0.02,0.01,0.02h-3.46 c0,0,0.01-0.02,0.01-0.02c-1.51-0.04-2.98-0.7-4-1.96c-1.84-2.29-1.48-5.65,0.81-7.49l88.8-71.4 c1.02-0.82,2.26-1.18,3.48-1.15l-0.01-0.02l3.23,0l-0.02,0.02c1.49,0.06,2.95,0.71,3.96,1.96 C430.03,255.64,429.67,258.99,427.37,260.84z" class="st8"/><path d="M420.7,252.54l-88.8,71.4c-2.29,1.84-2.66,5.2-0.81,7.49l0,0c1.84,2.29,5.2,2.66,7.49,0.81l88.8-71.4 c2.29-1.84,2.66-5.2,0.81-7.49l0,0C426.34,251.06,422.99,250.69,420.7,252.54z" class="st6"/></g><g><ellipse cx="379.96" cy="291.98" rx="2.91" ry="2.92" transform="matrix(1 -2.163961e-03 2.163961e-03 1 -0.6309 0.8229)"/><g><ellipse cx="335.65" cy="257.02" rx="2.92" ry="2.91" transform="matrix(2.182865e-03 -1 1 2.182865e-03 77.8982 592.0994)"/><ellipse cx="423.63" cy="257.02" rx="2.92" ry="2.91" transform="matrix(2.154622e-03 -1 1 2.154622e-03 165.6989 680.0872)"/></g><g><ellipse cx="335.65" cy="327.73" rx="2.91" ry="2.92" transform="matrix(1 -2.163962e-03 2.163962e-03 1 -0.7084 0.7271)"/><ellipse cx="423.63" cy="327.73" rx="2.91" ry="2.92" transform="matrix(1 -2.136203e-03 2.136203e-03 1 -0.6991 0.9057)"/></g></g></g><g><path d="M427.37,331.65l-88.8,71.4c-0.94,0.76-2.07,1.12-3.19,1.15c0,0.01,0.01,0.02,0.01,0.02h-3.46 c0,0,0.01-0.02,0.01-0.02c-1.51-0.04-2.98-0.7-4-1.96c-1.84-2.29-1.48-5.65,0.81-7.49l88.8-71.4 c1.02-0.82,2.26-1.18,3.48-1.15l-0.01-0.02l3.23,0l-0.02,0.02c1.49,0.06,2.95,0.71,3.96,1.96 C430.03,326.45,429.67,329.8,427.37,331.65z" class="st8"/><path d="M420.7,323.34l-88.8,71.4c-2.29,1.84-2.66,5.2-0.81,7.49l0,0c1.84,2.29,5.2,2.66,7.49,0.81l88.8-71.4 c2.29-1.84,2.66-5.2,0.81-7.49v0C426.34,321.87,422.99,321.5,420.7,323.34z" class="st6"/></g><g><ellipse cx="379.96" cy="362.79" rx="2.92" ry="2.91" transform="matrix(2.182865e-03 -1 1 2.182865e-03 16.3427 741.9585)"/><g><ellipse cx="423.63" cy="327.82" rx="2.91" ry="2.92" transform="matrix(1 -2.136203e-03 2.136203e-03 1 -0.6993 0.9057)"/></g></g></g></g><g><path d="M338.57,252.54c-0.26-0.21-0.53-0.38-0.82-0.53c-0.14-0.07-0.28-0.13-0.42-0.19 c-0.13-0.06-0.27-0.11-0.4-0.16c-0.2-0.07-0.4-0.12-0.61-0.16c-0.07-0.01-0.13-0.03-0.2-0.04c-0.25-0.04-0.49-0.07-0.74-0.08 c0-0.01,0.01-0.02,0.01-0.02h-3.46c0,0,0.01,0.02,0.01,0.02c-1.51,0.04-2.98,0.7-4,1.96c-0.11,0.14-0.19,0.3-0.29,0.44 l-1.56-1.26c-0.26-0.21-0.53-0.38-0.82-0.53c-0.14-0.07-0.28-0.13-0.42-0.19c-0.13-0.06-0.27-0.11-0.41-0.16 c-0.2-0.07-0.4-0.12-0.61-0.16c-0.07-0.01-0.13-0.03-0.2-0.04c-0.25-0.04-0.49-0.07-0.74-0.08c0-0.01,0.01-0.02,0.01-0.02 h-3.46c0,0,0.01,0.02,0.01,0.02c-1.51,0.04-2.98,0.7-4,1.96c-1.84,2.29-1.48,5.65,0.81,7.49l6.66,5.36h32.63L338.57,252.54z" class="st9"/><path d="M427.37,260.84c2.29-1.84,2.66-5.2,0.81-7.49c-0.25-0.3-0.52-0.57-0.81-0.81 c-0.05-0.04-0.11-0.07-0.17-0.11c-0.25-0.19-0.52-0.36-0.8-0.5c-0.03-0.02-0.07-0.03-0.1-0.04c-0.31-0.15-0.64-0.26-0.97-0.35 c0,0-0.01,0-0.01,0c-0.36-0.09-0.73-0.14-1.1-0.15l0.02-0.02l-3.23,0l0.01,0.02c-1.22-0.03-2.45,0.33-3.48,1.15l-1.24,0.99 c-0.37-0.3-0.76-0.56-1.19-0.75c-0.95-0.87-2.15-1.35-3.38-1.39l0.02-0.02l-3.23,0l0.01,0.02c-1.22-0.03-2.45,0.33-3.48,1.15 l-16.99,13.66h32.63L427.37,260.84z" class="st9"/></g><g><g><polygon points="297.98 257.85 297.98 254.38 309.15 248.57 432.14 248.57 443.31 254.38 443.31 257.85" class="st4"/><polygon points="320.52 257.85 320.52 254.38 331.69 248.57 432.14 248.57 443.31 254.38 443.31 257.85" class="st9"/><rect width="22.54" height="3.47" x="297.98" y="254.38" class="st5"/></g></g></g></g><g><g><polygon points="333.45 248.57 329.13 248.57 326.81 246.13 335.76 246.13"/><rect width="8.95" height="2.36" x="326.81" y="243.77" class="st10"/></g><g><polygon points="431.85 248.57 427.53 248.57 425.21 246.13 434.17 246.13"/><rect width="8.95" height="2.36" x="425.21" y="243.77" class="st10"/></g></g></g><g><g><g><polygon points="431.85 248.57 427.53 248.57 425.21 246.13 434.17 246.13"/><rect width="8.95" height="2.36" x="425.21" y="243.77" class="st10"/></g><g><polygon points="530.26 248.57 525.94 248.57 523.62 246.13 532.57 246.13"/><rect width="8.95" height="2.36" x="523.62" y="243.77" class="st10"/></g></g><g><g><g><g><g><path d="M519.65,394.74l-88.8-71.4c-0.94-0.76-2.07-1.12-3.19-1.15c0-0.01,0.01-0.02,0.01-0.02h-3.46 c0,0,0.01,0.02,0.01,0.02c-1.51,0.04-2.98,0.7-4,1.96c-1.84,2.29-1.48,5.65,0.81,7.49l88.8,71.4 c1.02,0.82,2.26,1.18,3.48,1.15l-0.01,0.02l3.23,0l-0.02-0.02c1.49-0.06,2.95-0.71,3.96-1.96 C522.3,399.94,521.94,396.59,519.65,394.74z" class="st6"/><path d="M512.97,402.15l-88.8-71.4c-2.29-1.84-2.66-5.2-0.81-7.49l0,0c1.84-2.29,5.2-2.66,7.49-0.81l88.8,71.4 c2.29,1.84,2.66,5.2,0.81,7.49v0C518.62,403.63,515.26,404,512.97,402.15z" class="st8"/></g><g><g><path d="M519.65,323.94l-88.8-71.4c-0.94-0.76-2.07-1.12-3.19-1.15c0-0.01,0.01-0.02,0.01-0.02h-3.46 c0,0,0.01,0.02,0.01,0.02c-1.51,0.04-2.98,0.7-4,1.96c-1.84,2.29-1.48,5.65,0.81,7.49l88.8,71.4 c1.02,0.82,2.26,1.18,3.48,1.15l-0.01,0.02l3.23,0l-0.02-0.02c1.49-0.06,2.95-0.71,3.96-1.96 C522.3,329.13,521.94,325.78,519.65,323.94z" class="st6"/><path d="M512.97,332.24l-88.8-71.4c-2.29-1.84-2.66-5.2-0.81-7.49l0,0c1.84-2.29,5.2-2.66,7.49-0.81l88.8,71.4 c2.29,1.84,2.66,5.2,0.81,7.49l0,0C518.62,333.72,515.26,334.08,512.97,332.24z" class="st8"/></g><g><path d="M519.65,260.84l-88.8,71.4c-0.94,0.76-2.07,1.12-3.19,1.15c0,0.01,0.01,0.02,0.01,0.02h-3.46 c0,0,0.01-0.02,0.01-0.02c-1.51-0.04-2.98-0.7-4-1.96c-1.84-2.29-1.48-5.65,0.81-7.49l88.8-71.4 c1.02-0.82,2.26-1.18,3.48-1.15l-0.01-0.02l3.23,0l-0.02,0.02c1.49,0.06,2.95,0.71,3.96,1.96 C522.3,255.64,521.94,259,519.65,260.84z" class="st8"/><path d="M513.45,252.54l-88.8,71.4c-2.29,1.84-2.66,5.2-0.81,7.49l0,0c1.84,2.29,5.2,2.66,7.49,0.81l88.8-71.4 c2.29-1.84,2.66-5.2,0.81-7.49l0,0C519.1,251.06,515.75,250.69,513.45,252.54z" class="st7"/></g><g><ellipse cx="472.23" cy="291.98" rx="2.91" ry="2.92" transform="matrix(1 -2.136203e-03 2.136203e-03 1 -0.6227 1.0095)"/><g><ellipse cx="427.92" cy="257.02" rx="2.92" ry="2.91" transform="matrix(2.154623e-03 -1 1 2.154623e-03 169.9803 684.3817)"/><ellipse cx="515.9" cy="257.02" rx="2.92" ry="2.91" transform="matrix(2.173381e-03 -1 1 2.173381e-03 257.7618 772.3574)"/></g><g><ellipse cx="427.92" cy="327.73" rx="2.91" ry="2.92" transform="matrix(1 -2.136203e-03 2.136203e-03 1 -0.6991 0.9149)"/><ellipse cx="515.9" cy="327.73" rx="2.91" ry="2.92" transform="matrix(1 -2.154641e-03 2.154641e-03 1 -0.7049 1.1123)"/></g></g></g><g><path d="M519.65,331.65l-88.8,71.4c-0.94,0.76-2.07,1.12-3.19,1.15c0,0.01,0.01,0.02,0.01,0.02h-3.46 c0,0,0.01-0.02,0.01-0.02c-1.51-0.04-2.98-0.7-4-1.96c-1.84-2.29-1.48-5.65,0.81-7.49l88.8-71.4 c1.02-0.82,2.26-1.18,3.48-1.15l-0.01-0.02l3.23,0l-0.02,0.02c1.49,0.06,2.95,0.71,3.96,1.96 C522.3,326.45,521.94,329.81,519.65,331.65z" class="st8"/><path d="M512.82,322.73l-88.8,71.4c-2.29,1.84-2.66,5.2-0.81,7.49l0,0c1.84,2.29,5.2,2.66,7.49,0.81l88.8-71.4 c2.29-1.84,2.66-5.2,0.81-7.49l0,0C518.46,321.25,515.11,320.89,512.82,322.73z" class="st7"/></g><g><ellipse cx="472.23" cy="362.79" rx="2.92" ry="2.91" transform="matrix(2.154623e-03 -1 1 2.154623e-03 108.4261 834.2438)"/><g><ellipse cx="515.9" cy="327.83" rx="2.91" ry="2.92" transform="matrix(1 -2.154641e-03 2.154641e-03 1 -0.7052 1.1123)"/></g></g></g><g><g><path d="M532.13,394.74l-88.8-71.4c-0.94-0.76-2.07-1.12-3.19-1.15c0-0.01,0.01-0.02,0.01-0.02h-3.46 c0,0,0.01,0.02,0.01,0.02c-1.51,0.04-2.98,0.7-4,1.96c-1.84,2.29-1.48,5.65,0.81,7.49l88.8,71.4 c1.02,0.82,2.26,1.18,3.48,1.15l-0.01,0.02l3.23,0l-0.02-0.02c1.49-0.06,2.95-0.71,3.96-1.96 C534.79,399.94,534.42,396.59,532.13,394.74z" class="st6"/><path d="M525.46,403.04l-88.8-71.4c-2.29-1.84-2.66-5.2-0.81-7.49v0c1.84-2.29,5.2-2.66,7.49-0.81l88.8,71.4 c2.29,1.84,2.66,5.2,0.81,7.49l0,0C531.1,404.52,527.75,404.89,525.46,403.04z" class="st7"/></g><g><g><path d="M532.13,323.93l-88.8-71.4c-0.94-0.76-2.07-1.12-3.19-1.15c0-0.01,0.01-0.02,0.01-0.02h-3.46 c0,0,0.01,0.02,0.01,0.02c-1.51,0.04-2.98,0.7-4,1.96c-1.84,2.29-1.48,5.65,0.81,7.49l88.8,71.4 c1.02,0.82,2.26,1.18,3.48,1.15l-0.01,0.02l3.23,0l-0.02-0.02c1.49-0.06,2.95-0.71,3.96-1.96 C534.79,329.13,534.42,325.78,532.13,323.93z" class="st6"/><path d="M525.46,332.24l-88.8-71.4c-2.29-1.84-2.66-5.2-0.81-7.49l0,0c1.84-2.29,5.2-2.66,7.49-0.81l88.8,71.4 c2.29,1.84,2.66,5.2,0.81,7.49l0,0C531.1,333.71,527.75,334.08,525.46,332.24z" class="st7"/></g><g><path d="M532.13,260.84l-88.8,71.4c-0.94,0.76-2.07,1.12-3.19,1.15c0,0.01,0.01,0.02,0.01,0.02h-3.46 c0,0,0.01-0.02,0.01-0.02c-1.51-0.04-2.98-0.7-4-1.96c-1.84-2.29-1.48-5.65,0.81-7.49l88.8-71.4 c1.02-0.82,2.26-1.18,3.48-1.15l-0.01-0.02l3.23,0l-0.02,0.02c1.49,0.06,2.95,0.71,3.96,1.96 C534.79,255.64,534.42,258.99,532.13,260.84z" class="st8"/><path d="M525.46,252.54l-88.8,71.4c-2.29,1.84-2.66,5.2-0.81,7.49l0,0c1.84,2.29,5.2,2.66,7.49,0.81 l88.8-71.4c2.29-1.84,2.66-5.2,0.81-7.49l0,0C531.1,251.06,527.75,250.69,525.46,252.54z" class="st11"/></g><g><ellipse cx="484.72" cy="291.98" rx="2.91" ry="2.92" transform="matrix(1 -2.154641e-03 2.154641e-03 1 -0.628 1.0451)"/><g><ellipse cx="440.4" cy="257.02" rx="2.92" ry="2.91" transform="matrix(2.173381e-03 -1 1 2.173381e-03 182.4328 696.8607)"/><ellipse cx="528.39" cy="257.02" rx="2.92" ry="2.91" transform="matrix(2.173381e-03 -1 1 2.173381e-03 270.2224 784.8412)"/></g><g><ellipse cx="440.4" cy="327.73" rx="2.91" ry="2.92" transform="matrix(1 -2.154641e-03 2.154641e-03 1 -0.7051 0.9497)"/><ellipse cx="528.39" cy="327.73" rx="2.91" ry="2.92" transform="matrix(1 -2.154641e-03 2.154641e-03 1 -0.7049 1.1392)"/></g></g></g><g><path d="M532.13,331.65l-88.8,71.4c-0.94,0.76-2.07,1.12-3.19,1.15c0,0.01,0.01,0.02,0.01,0.02h-3.46 c0,0,0.01-0.02,0.01-0.02c-1.51-0.04-2.98-0.7-4-1.96c-1.84-2.29-1.48-5.65,0.81-7.49l88.8-71.4 c1.02-0.82,2.26-1.18,3.48-1.15l-0.01-0.02l3.23,0l-0.02,0.02c1.49,0.06,2.95,0.71,3.96,1.96 C534.79,326.45,534.42,329.8,532.13,331.65z" class="st8"/><path d="M525.46,323.34l-88.8,71.4c-2.29,1.84-2.66,5.2-0.81,7.49l0,0c1.84,2.29,5.2,2.66,7.49,0.81l88.8-71.4 c2.29-1.84,2.66-5.2,0.81-7.49v0C531.1,321.87,527.75,321.5,525.46,323.34z" class="st11"/></g><g><ellipse cx="484.72" cy="362.79" rx="2.92" ry="2.91" transform="matrix(2.173381e-03 -1 1 2.173381e-03 120.8777 846.7208)"/><g><ellipse cx="528.39" cy="327.82" rx="2.91" ry="2.92" transform="matrix(1 -2.154641e-03 2.154641e-03 1 -0.7051 1.1392)"/></g><g><circle cx="528.39" cy="398.54" r="2.92"/></g></g></g></g><g><path d="M443.33,252.54c-0.26-0.21-0.53-0.38-0.82-0.53c-0.14-0.07-0.28-0.13-0.42-0.19 c-0.13-0.06-0.27-0.11-0.4-0.16c-0.2-0.07-0.4-0.12-0.61-0.16c-0.07-0.01-0.13-0.03-0.2-0.04c-0.25-0.04-0.49-0.07-0.74-0.08 c0-0.01,0.01-0.02,0.01-0.02h-3.46c0,0,0.01,0.02,0.01,0.02c-1.51,0.04-2.98,0.7-4,1.96c-0.11,0.14-0.19,0.3-0.29,0.44 l-1.56-1.26c-0.26-0.21-0.53-0.38-0.82-0.53c-0.14-0.07-0.28-0.13-0.42-0.19c-0.13-0.06-0.27-0.11-0.41-0.16 c-0.2-0.07-0.4-0.12-0.61-0.16c-0.07-0.01-0.13-0.03-0.2-0.04c-0.25-0.04-0.49-0.07-0.74-0.08c0-0.01,0.01-0.02,0.01-0.02 h-3.46c0,0,0.01,0.02,0.01,0.02c-1.51,0.04-2.98,0.7-4,1.96c-1.84,2.29-1.48,5.65,0.81,7.49l6.66,5.36h32.63L443.33,252.54z" class="st9"/><path d="M532.13,260.84c2.29-1.84,2.66-5.2,0.81-7.49c-0.25-0.3-0.52-0.57-0.81-0.81 c-0.05-0.04-0.11-0.07-0.17-0.11c-0.25-0.19-0.52-0.36-0.8-0.5c-0.03-0.02-0.07-0.03-0.1-0.04c-0.31-0.15-0.64-0.26-0.97-0.35 c0,0-0.01,0-0.01,0c-0.36-0.09-0.73-0.14-1.1-0.15l0.02-0.02l-3.23,0l0.01,0.02c-1.22-0.03-2.45,0.33-3.48,1.15l-1.24,0.99 c-0.37-0.3-0.76-0.56-1.19-0.75c-0.95-0.87-2.15-1.35-3.38-1.39l0.02-0.02l-3.23,0l0.01,0.02c-1.22-0.03-2.45,0.33-3.48,1.15 l-16.99,13.66h32.63L532.13,260.84z" class="st9"/></g><g><g><polygon points="402.73 257.85 402.73 254.38 413.91 248.57 536.9 248.57 548.07 254.38 548.07 257.85" class="st10"/><polygon points="425.28 257.85 425.28 254.38 436.45 248.57 536.9 248.57 548.07 254.38 548.07 257.85" class="st12"/><rect width="22.54" height="3.47" x="402.73" y="254.38" class="st5"/></g><g><polygon points="446.97 256.9 453.12 249.53 443.87 249.53 437.72 256.9"/><polygon points="466.13 256.9 472.29 249.53 463.04 249.53 456.88 256.9"/><polygon points="485.3 256.9 491.45 249.53 482.2 249.53 476.05 256.9"/><polygon points="504.46 256.9 510.61 249.53 501.36 249.53 495.21 256.9"/><polygon points="523.62 256.9 529.78 249.53 520.53 249.53 514.37 256.9"/></g></g></g><g><g><g><polygon points="297.51 404.22 297.51 400.75 307.89 394.94 636.01 394.94 646.39 400.75 646.39 404.22" class="st10"/><polygon points="318.45 404.22 318.45 400.75 328.83 394.94 636.01 394.94 646.39 400.75 646.39 404.22" class="st12"/><rect width="20.94" height="3.47" x="297.51" y="400.75" class="st5"/></g><g><g><polygon points="341.27 403.04 347.42 396.12 338.17 396.12 332.01 403.04"/><polygon points="360.43 403.04 366.58 396.12 357.33 396.12 351.18 403.04"/><polygon points="379.59 403.04 385.75 396.12 376.5 396.12 370.34 403.04"/><polygon points="398.76 403.04 404.91 396.12 395.66 396.12 389.51 403.04"/><polygon points="417.92 403.04 424.08 396.12 414.83 396.12 408.67 403.04"/></g><g><polygon points="550.74 403.04 556.89 396.12 547.64 396.12 541.49 403.04"/><polygon points="569.9 403.04 576.06 396.12 566.8 396.12 560.65 403.04"/><polygon points="589.07 403.04 595.22 396.12 585.97 396.12 579.81 403.04"/><polygon points="608.23 403.04 614.38 396.12 605.13 396.12 598.98 403.04"/><polygon points="627.39 403.04 633.55 396.12 624.3 396.12 618.14 403.04"/></g></g></g></g></g></g><g><g><g><g><defs><path id="SVGID_00000025440104894661096450000011350892068128592811_" d="M566.11,264.59h13.18 c12.58,0,22.78-11.78,22.78-26.31c0-14.52-10.2-26.31-22.78-26.31h-13.18c12.58,0,22.78,11.78,22.78,26.31 C588.9,252.81,578.7,264.59,566.11,264.59z"/></defs><use xlink:href="#SVGID_00000025440104894661096450000011350892068128592811_" style="overflow:visible;fill:#221e20"/><clipPath id="SVGID_00000119819328287682311310000001273869544820471720_"><use xlink:href="#SVGID_00000025440104894661096450000011350892068128592811_" style="overflow:visible"/></clipPath><g style="clip-path:url(#SVGID_00000119819328287682311310000001273869544820471720_);enable-background:new"><path d="M588.9,238.28c0-1.42-0.1-2.8-0.29-4.16h13.18c0.19,1.35,0.29,2.74,0.29,4.16 c0,14.53-10.2,26.31-22.78,26.31h-13.18C578.7,264.59,588.9,252.81,588.9,238.28z" class="st14"/><path d="M596.63,221.22c1.69,2.28,3.04,4.91,3.98,7.77c0.54,1.64,0.93,3.36,1.17,5.14h-13.18 c-0.24-1.78-0.64-3.5-1.17-5.14l0,0c-0.94-2.86-2.29-5.48-3.98-7.77H596.63z" class="st14"/><path d="M592.23,216.63c1.63,1.3,3.11,2.85,4.4,4.59h-13.18c-1.29-1.74-2.77-3.28-4.4-4.59H592.23z" class="st14"/><path d="M566.11,211.97h13.18c4.81,0,9.27,1.72,12.94,4.66h-13.18C575.38,213.69,570.92,211.97,566.11,211.97z" class="st14"/></g></g><g><path d="M566.63,211.97c-12.87,0-23.29,11.78-23.29,26.31c0,14.53,10.43,26.31,23.29,26.31 c12.87,0,23.29-11.78,23.29-26.31C589.92,223.75,579.49,211.97,566.63,211.97z" class="st15"/></g><g><path d="M566.11,211.97c-12.58,0-22.78,11.78-22.78,26.31c0,14.53,10.2,26.31,22.78,26.31s22.78-11.78,22.78-26.31 C588.9,223.75,578.7,211.97,566.11,211.97z"/></g></g><g><g><g class="st16"><path d="M409.53,221.22c1.69,2.28,3.04,4.91,3.98,7.77c0.54,1.64,0.93,3.36,1.17,5.14H401.5 c-0.24-1.78-0.64-3.5-1.17-5.14l0,0c-0.94-2.86-2.29-5.48-3.98-7.77H409.53z" class="st14"/><path d="M405.13,216.63c1.63,1.3,3.11,2.85,4.4,4.59h-13.18c-1.29-1.74-2.77-3.28-4.4-4.59H405.13z" class="st14"/><path d="M379.01,211.97h13.18c4.81,0,9.27,1.72,12.94,4.66h-13.18C388.28,213.69,383.82,211.97,379.01,211.97z" class="st14"/></g></g></g></g><path d="M218.62,223.6c0,7.5,4.55,14.25,11.5,17.07l12.58,5.09c3.02,1.1,6.2,1.66,9.42,1.66h374.01c1.91,0,3.45-1.55,3.45-3.45 v-25.83c0-12.48-10.12-22.6-22.6-22.6H218.62V223.6z"/><g><g class="st16"><defs><path id="SVGID_00000150062026933311009860000014539924678048118973_" d="M459.34,264.59h13.18 c12.58,0,22.78-11.78,22.78-26.31c0-14.52-10.2-26.31-22.78-26.31h-13.18c12.58,0,22.78,11.78,22.78,26.31 C482.12,252.81,471.92,264.59,459.34,264.59z" class="st16"/></defs><use xlink:href="#SVGID_00000150062026933311009860000014539924678048118973_" style="overflow:visible"/><clipPath id="SVGID_00000072998597931211164930000016058193713405455022_"><use xlink:href="#SVGID_00000150062026933311009860000014539924678048118973_" style="overflow:visible"/></clipPath><g style="clip-path:url(#SVGID_00000072998597931211164930000016058193713405455022_);enable-background:new"><path d="M482.12,238.28c0-1.42-0.1-2.8-0.29-4.16h13.18c0.19,1.35,0.29,2.74,0.29,4.16c0,14.53-10.2,26.31-22.78,26.31h-13.18 C471.92,264.59,482.12,252.81,482.12,238.28z"/><path d="M489.86,221.22c1.69,2.28,3.04,4.91,3.98,7.77c0.54,1.64,0.93,3.36,1.17,5.14h-13.18c-0.24-1.78-0.64-3.5-1.17-5.14 l0,0c-0.94-2.86-2.29-5.48-3.98-7.77H489.86z"/><path d="M485.46,216.63c1.63,1.3,3.11,2.85,4.4,4.59h-13.18c-1.29-1.74-2.77-3.28-4.4-4.59H485.46z"/><path d="M459.34,211.97h13.18c4.81,0,9.27,1.72,12.94,4.66h-13.18C468.6,213.69,464.15,211.97,459.34,211.97z"/></g></g><g><path d="M459.85,211.97c-12.87,0-23.29,11.78-23.29,26.31c0,14.53,10.43,26.31,23.29,26.31 c12.87,0,23.29-11.78,23.29-26.31C483.14,223.75,472.72,211.97,459.85,211.97z" class="st15"/></g><g><path d="M459.34,211.97c-12.58,0-22.78,11.78-22.78,26.31c0,14.53,10.2,26.31,22.78,26.31 c12.58,0,22.78-11.78,22.78-26.31C482.12,223.75,471.92,211.97,459.34,211.97z" class="st18"/></g><g><path d="M459.34,218.71c-9.36,0-16.94,8.76-16.94,19.56c0,10.81,7.58,19.57,16.94,19.57 c9.36,0,16.94-8.76,16.94-19.57C476.28,227.47,468.7,218.71,459.34,218.71z" class="st14"/></g><g><path d="M459.34,220.92c-8.3,0-15.03,7.77-15.03,17.36c0,9.59,6.73,17.36,15.03,17.36c8.3,0,15.03-7.77,15.03-17.36 C474.37,228.69,467.64,220.92,459.34,220.92z"/></g><path d="M446.52,249.65c0.26,0.39,0.54,0.77,0.83,1.14c0,0,0,0,0,0l0,0c0.18,0.23,0.35,0.47,0.54,0.69 c1.08,1.25,2.28,2.27,3.55,3.09c0.09,0.06,0.17,0.12,0.26,0.18l0,0c4.78,2.96,10.58,2.93,15.34-0.08l0,0 c0.08-0.05,0.16-0.11,0.24-0.16c1.24-0.81,2.4-1.81,3.46-3.02c3.8-4.39,5.29-10.42,4.52-16.12l0,0l0,0 c-0.07-0.49-0.15-0.98-0.25-1.46c0,0,0,0,0,0l0,0c-0.67-3.23-2.08-6.3-4.26-8.82c-2.65-3.06-5.99-4.82-9.44-5.31h0l0,0 c-1.82-0.26-3.66-0.16-5.46,0.29l0,0l0,0c-2.91,0.74-5.69,2.4-7.96,5.02c-0.85,0.98-1.57,2.05-2.19,3.17l0,0 c-0.23,0.42-0.46,0.85-0.66,1.29v0c-0.67,1.45-1.14,2.99-1.45,4.56l0,0c0,0,0,0,0,0.01 C442.54,239.41,443.51,245.14,446.52,249.65L446.52,249.65C446.52,249.65,446.52,249.65,446.52,249.65z M444.24,235.85 l11.22,3.47l-8.28,9.57C444.68,245.08,443.7,240.37,444.24,235.85z M455.93,221.13l1,13.17l-10.39-5.6 c0.57-1.01,1.24-1.98,2.01-2.87C450.65,223.39,453.22,221.84,455.93,221.13z M472,228.52l-10.49,5.65l0.99-13.1 c2.78,0.68,5.43,2.26,7.59,4.76C470.82,226.67,471.45,227.57,472,228.52z M471.54,248.76l-8.36-9.66l11.18-3.46 C474.96,240.18,474.02,244.91,471.54,248.76z M452.23,253.87l7.17-11.83l7.12,11.75C462.07,256.55,456.7,256.58,452.23,253.87z M448.01,250.04l9.02-10.43l-0.61-0.71l0.18-0.78l-12.12-3.75c0.3-1.51,0.76-2.99,1.4-4.39l11.35,6.11l0.37-0.91l0.7-0.07 l-1.08-14.26c1.33-0.21,2.69-0.23,4.02-0.03l-1.08,14.28l0.86,0.09l0.3,0.73l11.36-6.12c0.66,1.39,1.14,2.86,1.45,4.37 l-12.17,3.77l0.22,0.97l-0.49,0.57l9.04,10.45c-0.21,0.27-0.41,0.55-0.63,0.8c-0.76,0.88-1.59,1.65-2.46,2.3l-7.37-12.16 l-0.97,0.78l-0.83-0.67l-7.35,12.13c-0.91-0.67-1.78-1.46-2.57-2.38C448.35,250.51,448.19,250.27,448.01,250.04z" class="st19"/><g><g><path d="M460.25,232.57c-2.73,0-4.94,2.56-4.94,5.71c0,3.15,2.21,10.76,4.94,10.76c2.73,0,4.94-7.61,4.94-10.76 C465.19,235.13,462.98,232.57,460.25,232.57z" class="st15"/></g><g><g><path d="M460.25,232.57c-2.73,0-4.94,2.56-4.94,5.71c0,3.15,2.21,5.71,4.94,5.71c2.73,0,4.94-2.56,4.94-5.71 C465.19,235.13,462.98,232.57,460.25,232.57z"/></g><g><path d="M458.14,232.57c-2.73,0-4.94,2.56-4.94,5.71c0,3.15,2.21,5.71,4.94,5.71s4.94-2.56,4.94-5.71 C463.08,235.13,460.87,232.57,458.14,232.57z" class="st20"/></g></g></g><path d="M443.17,238.28c0,10.31,7.23,18.66,16.15,18.66c8.92,0,16.15-8.36,16.15-18.66 c0-10.3-7.23-18.66-16.15-18.66C450.4,219.62,443.17,227.98,443.17,238.28z M444.31,238.28c0-9.58,6.72-17.34,15.01-17.34 c8.29,0,15.01,7.77,15.01,17.34c0,9.58-6.72,17.35-15.01,17.35C451.03,255.63,444.31,247.86,444.31,238.28z" class="st20"/><path d="M459.34,220.92c0.37,0,0.73,0.03,1.09,0.06c-7.79,0.65-13.94,8.13-13.94,17.29 c0,9.16,6.15,16.65,13.94,17.3c-0.36,0.03-0.72,0.06-1.09,0.06c-8.3,0-15.03-7.77-15.03-17.36 C444.31,228.69,451.04,220.92,459.34,220.92z" class="st21"/></g><g><g class="st16"><defs><path id="SVGID_00000066500760526085842110000001238152812713672124_" d="M272.24,264.59h13.18 c12.58,0,22.78-11.78,22.78-26.31c0-14.52-10.2-26.31-22.78-26.31h-13.18c12.58,0,22.78,11.78,22.78,26.31 C295.02,252.81,284.82,264.59,272.24,264.59z" class="st16"/></defs><use xlink:href="#SVGID_00000066500760526085842110000001238152812713672124_" style="overflow:visible"/><clipPath id="SVGID_00000080926882339888520200000004797892203543121025_"><use xlink:href="#SVGID_00000066500760526085842110000001238152812713672124_" style="overflow:visible"/></clipPath><g style="clip-path:url(#SVGID_00000080926882339888520200000004797892203543121025_);enable-background:new"><path d="M295.02,238.28c0-1.42-0.1-2.8-0.29-4.16h13.18c0.19,1.35,0.29,2.74,0.29,4.16c0,14.53-10.2,26.31-22.78,26.31h-13.18 C284.82,264.59,295.02,252.81,295.02,238.28z"/><path d="M302.75,221.22c1.69,2.28,3.04,4.91,3.98,7.77c0.54,1.64,0.93,3.36,1.17,5.14h-13.18c-0.24-1.78-0.64-3.5-1.17-5.14 l0,0c-0.94-2.86-2.29-5.48-3.98-7.77H302.75z"/><path d="M298.35,216.63c1.63,1.3,3.11,2.85,4.4,4.59h-13.18c-1.29-1.74-2.77-3.28-4.4-4.59H298.35z"/><path d="M272.24,211.97h13.18c4.81,0,9.27,1.72,12.94,4.66h-13.18C281.5,213.69,277.04,211.97,272.24,211.97z"/></g></g><g><path d="M272.75,211.97c-12.87,0-23.29,11.78-23.29,26.31c0,14.53,10.43,26.31,23.29,26.31 s23.29-11.78,23.29-26.31C296.04,223.75,285.61,211.97,272.75,211.97z" class="st15"/></g><g><path d="M272.24,211.97c-12.58,0-22.78,11.78-22.78,26.31c0,14.53,10.2,26.31,22.78,26.31 c12.58,0,22.78-11.78,22.78-26.31C295.02,223.75,284.82,211.97,272.24,211.97z" class="st18"/></g><g><path d="M272.24,218.71c-9.36,0-16.94,8.76-16.94,19.56c0,10.81,7.58,19.57,16.94,19.57 c9.36,0,16.94-8.76,16.94-19.57C289.18,227.47,281.59,218.71,272.24,218.71z" class="st14"/></g><g><path d="M272.24,220.92c-8.3,0-15.03,7.77-15.03,17.36c0,9.59,6.73,17.36,15.03,17.36s15.03-7.77,15.03-17.36 C287.27,228.69,280.54,220.92,272.24,220.92z"/></g><path d="M259.42,249.65c0.26,0.39,0.54,0.77,0.83,1.14c0,0,0,0,0,0l0,0c0.18,0.23,0.35,0.47,0.54,0.69 c1.08,1.25,2.28,2.27,3.55,3.09c0.09,0.06,0.17,0.12,0.26,0.18l0,0c4.78,2.96,10.58,2.93,15.34-0.08l0,0 c0.08-0.05,0.16-0.11,0.24-0.16c1.24-0.81,2.4-1.81,3.46-3.02c3.8-4.39,5.29-10.42,4.52-16.12l0,0l0,0 c-0.07-0.49-0.15-0.98-0.25-1.46c0,0,0,0,0,0l0,0c-0.67-3.23-2.08-6.3-4.27-8.82c-2.65-3.06-5.99-4.82-9.44-5.31h0l0,0 c-1.82-0.26-3.66-0.16-5.46,0.29l0,0l0,0c-2.91,0.74-5.69,2.4-7.96,5.02c-0.85,0.98-1.57,2.05-2.19,3.17l0,0 c-0.23,0.42-0.46,0.85-0.66,1.29v0c-0.67,1.45-1.14,2.99-1.45,4.56l0,0c0,0,0,0,0,0.01 C255.43,239.41,256.41,245.14,259.42,249.65L259.42,249.65C259.42,249.65,259.42,249.65,259.42,249.65z M257.14,235.85 l11.22,3.47l-8.28,9.57C257.58,245.08,256.6,240.37,257.14,235.85z M268.83,221.13l1,13.17l-10.39-5.6 c0.57-1.01,1.24-1.98,2.01-2.87C263.55,223.39,266.12,221.84,268.83,221.13z M284.9,228.52l-10.49,5.65l0.99-13.1 c2.78,0.68,5.43,2.26,7.59,4.76C283.72,226.67,284.35,227.57,284.9,228.52z M284.44,248.76l-8.36-9.66l11.18-3.46 C287.86,240.18,286.92,244.91,284.44,248.76z M265.13,253.87l7.17-11.83l7.12,11.75C274.97,256.55,269.59,256.58,265.13,253.87z M260.91,250.04l9.02-10.43l-0.61-0.71l0.18-0.78l-12.12-3.75c0.3-1.51,0.76-2.99,1.4-4.39l11.35,6.11l0.37-0.91l0.7-0.07 l-1.08-14.26c1.33-0.21,2.69-0.23,4.02-0.03l-1.08,14.28l0.86,0.09l0.3,0.73l11.36-6.12c0.66,1.39,1.14,2.86,1.45,4.37 l-12.17,3.77l0.22,0.97l-0.49,0.57l9.04,10.45c-0.21,0.27-0.41,0.55-0.63,0.8c-0.76,0.88-1.59,1.65-2.46,2.3l-7.37-12.16 l-0.97,0.78l-0.83-0.67l-7.35,12.13c-0.91-0.67-1.78-1.46-2.57-2.38C261.25,250.51,261.08,250.27,260.91,250.04z" class="st19"/><g><g><path d="M273.14,232.57c-2.73,0-4.94,2.56-4.94,5.71c0,3.15,2.21,10.76,4.94,10.76c2.73,0,4.94-7.61,4.94-10.76 C278.09,235.13,275.87,232.57,273.14,232.57z" class="st15"/></g><g><g><path d="M273.14,232.57c-2.73,0-4.94,2.56-4.94,5.71c0,3.15,2.21,5.71,4.94,5.71c2.73,0,4.94-2.56,4.94-5.71 C278.09,235.13,275.87,232.57,273.14,232.57z"/></g><g><path d="M271.04,232.57c-2.73,0-4.94,2.56-4.94,5.71c0,3.15,2.21,5.71,4.94,5.71s4.94-2.56,4.94-5.71 C275.98,235.13,273.77,232.57,271.04,232.57z" class="st20"/></g></g></g><path d="M256.07,238.28c0,10.31,7.23,18.66,16.15,18.66c8.92,0,16.15-8.36,16.15-18.66 c0-10.3-7.23-18.66-16.15-18.66C263.3,219.62,256.07,227.98,256.07,238.28z M257.21,238.28c0-9.58,6.72-17.34,15.01-17.34 c8.29,0,15.01,7.77,15.01,17.34c0,9.58-6.72,17.35-15.01,17.35C263.93,255.63,257.21,247.86,257.21,238.28z" class="st20"/><path d="M272.24,220.92c0.37,0,0.73,0.03,1.09,0.06c-7.79,0.65-13.94,8.13-13.94,17.29 c0,9.16,6.15,16.65,13.94,17.3c-0.36,0.03-0.72,0.06-1.09,0.06c-8.3,0-15.03-7.77-15.03-17.36 C257.21,228.69,263.93,220.92,272.24,220.92z" class="st21"/></g><g><path d="M539.92,170.61H518.9l0.95-8.34c0.33-2.91,2.6-4.99,5.11-4.69l11.37,1.36c3.52,0.42,6.3,3.66,6.65,7.75 l0,0C543.15,168.79,541.74,170.61,539.92,170.61z" class="st23"/><path d="M537.32,170.61h-21.54v-3.14h19.03c1.38,0,2.5,1.12,2.5,2.5V170.61z"/><path d="M536.32,158.95l-11.37-1.36c-2.52-0.3-4.78,1.78-5.11,4.69l-0.2,1.81h15c2.39,0,4.51-1.19,5.83-2.99 C539.34,159.93,537.91,159.14,536.32,158.95z" class="st24"/></g><path d="M212.53,189.36c0-1.57,0.13-3.03,0.33-4.36c1.19-7.78,7.44-14.05,15.29-14.63 c0.45-0.03,0.91-0.05,1.37-0.05l3.11,0c6.35,0,12.57-1.82,17.93-5.22c16.49-10.45,53.88-32.96,70.13-33.01 c0.03,0,33.2-4.01,59.48-4.01c50.36,0,75.31,4.01,75.31,4.01c0.03,0,0.06,0.01,0.08,0.01c27.86,4.83,81.29,36,84.88,38.11 c0.13,0.08,0.26,0.12,0.41,0.13c3.37,0.32,45.38,4.57,80.18,22.88c8.58,4.51,19.27,13.46,19.27,23.15l-3.99,21.12 c-0.8,4.23-4.49,7.29-8.8,7.29H489.8l0,0h-1.3c-0.61,0-1.12-0.46-1.2-1.06c-3.04-22.51-11.46-40.04-31.9-40.04 c-15.95,0-24.71,17.42-23.86,39.83c0.03,0.69-0.52,1.27-1.21,1.27h0.86l0,0h-82.41l0,0h-45.44c-0.61,0-1.12-0.46-1.2-1.06 c-3.04-22.51-11.46-40.04-31.9-40.04c-16.2,0-24.99,17.98-23.81,40.9l-4.1-1.34c-15.74-5.16-26.94-19.09-28.68-35.56 C212.61,197.8,212.53,189.36,212.53,189.36z" class="st23"/><path d="M472.31,167.83c-2.94-0.29,35.86-0.88,62.15-1.06c3.22,1.82,5.37,3.08,5.99,3.44 c0.13,0.08,0.26,0.12,0.41,0.13c3,0.28,36.66,3.69,68.56,17.37C534.6,174.52,496.13,170.14,472.31,167.83z" class="st25"/><path d="M606.57,199.51h-56.84c0,0-49.78-20.49-78.25-23.54c18.16-3.14,78.08,20.98,78.08,20.98 S606.71,197.45,606.57,199.51z" class="st26"/><path d="M213.29,182.78c1.11-4.71,4.17-8.84,8.58-10.83c2.38-1.07,4.98-1.64,7.64-1.64h3.57 c6.05,0,11.96-1.72,17.07-4.96c16.3-10.35,54.25-33.27,70.59-33.27h38.54c2.36,0,4.72,0.24,7.02,0.82 c28.12,7.02,61.52,37.41,61.52,37.41s44.65,3.85,81.05,23.24c8.16,4.34,18.62,12.84,18.62,22.08l0,0 c-1.32,7.16,4.18,13.76,11.46,13.76h80.85c6.06,0,10.62,5.51,9.5,11.46h0c-0.43,2.28-2.42,3.92-4.74,3.92H487.44 c-2.92-23.02-11.27-41.1-32.03-41.1c-16.25,0-25.04,18.09-23.8,41.1H302.29c-2.92-23.02-11.27-41.1-32.03-41.1 c-16.2,0-24.99,17.98-23.81,40.9l-23.93-7.84c-10.04-10.25-9.98-47.38-9.98-47.38C212.53,186.86,212.86,184.64,213.29,182.78z" class="st27"/><path d="M567.92,227.6h41.14c11.83,0,12.44,8.56,14.42,19.82h-79.17C546.29,236.16,556.09,227.6,567.92,227.6z"/><path d="M214.95,178.52c1.56-2.85,3.92-5.21,6.93-6.56c2.38-1.07,4.98-1.64,7.64-1.64h1.93 c6.59-0.13,15.11-2.76,23.53-7.99c18.04-11.21,50.87-30.24,65.76-30.24h38.54c2.36,0,4.72,0.24,7.02,0.82 c28.12,7.02,61.52,37.41,61.52,37.41s44.65,3.85,81.05,23.24c6.89,3.67,15.41,10.31,17.89,17.85 C465.86,186.69,406.9,178.79,214.95,178.52z" class="st28"/><path d="M216.37,217.29l19.84,0c5.75,0,10.99-3.03,14.12-7.84c4.68-7.18,11.49-11.48,20.12-11.48 c8.75,0,15.58,2.74,20.89,7.49c9.65,8.63,22,13.65,34.85,15.28l84.3,10.72c9.14,1.16,17.82-4.28,20.79-13 c4.23-12.43,12.58-20.5,24.33-20.5c17.55,0,27.38,11.02,32.69,27.17c1.73,5.24,6.41,8.96,11.91,9.45l33.24,2.93h-36.98 c-2.62,0-4.66,2.31-4.29,4.91c0.11,0.79,0.22,1.58,0.32,2.37h-5.05c-2.92-23.02-11.27-41.1-32.03-41.1 c-16.25,0-25.04,18.09-23.8,41.1h-3.34l0,0c-0.22-4.43-3.79-7.93-8.21-7.93H314.24c-4.2,0-7.44,3.69-6.91,7.85l0.01,0.08h-5.05 c-2.92-23.02-11.27-41.1-32.03-41.1c-16.2,0-24.99,17.98-23.81,40.9l-3.42-1.12c-0.3-6.27,0.08-12.19,1.09-17.57L216.37,217.29z" class="st23"/><path d="M428.1,200.7c0,0-70.83-7.25-100.73-9.02c-29.9-1.77-92.31-6.49-92.31-6.49S321.74,201.23,428.1,200.7z" class="st23"/><path d="M636.14,205.55c2.51,3.35,4.17,7.02,4.17,10.82l-0.1,0.53H519.16c-5.91,0-11.38-3.54-13.4-9.09 c-0.01-0.04-0.03-0.08-0.04-0.12l-0.77-2.15H636.14z" class="st14"/><path d="M506.49,197.96h21.1c8.95,0,17.83,2.12,25.63,6.55c7.36,4.17,11.58,9,10.76,13.31c0,0.01,0,0.02,0,0.02 c-0.25,1.26-1.44,2.11-2.71,2.11h-37.71c-9.71,0-18.37-6.18-21.63-15.44v0C500.8,201.32,503.14,197.96,506.49,197.96z" class="st14"/><g><ellipse cx="339.84" cy="184.71" class="st15" rx="5.32" ry="3.73"/><g><path d="M335.91,186.81h9.2c1.16,0,2.1-0.94,2.1-2.1l0,0c0-1.16-0.94-2.1-2.1-2.1h-9.2c-1.16,0-2.1,0.94-2.1,2.1 l0,0C333.81,185.87,334.75,186.81,335.91,186.81z" class="st15"/></g><g><path d="M334.59,186.81h9.2c1.16,0,2.1-0.94,2.1-2.1l0,0c0-1.16-0.94-2.1-2.1-2.1h-9.2c-1.16,0-2.1,0.94-2.1,2.1 l0,0C332.49,185.87,333.43,186.81,334.59,186.81z" class="st20"/></g></g><g><ellipse cx="278.98" cy="183.09" class="st15" rx="5.32" ry="3.73"/><g><path d="M275.05,185.19h9.2c1.16,0,2.1-0.94,2.1-2.1l0,0c0-1.16-0.94-2.1-2.1-2.1h-9.2c-1.16,0-2.1,0.94-2.1,2.1 l0,0C272.95,184.25,273.89,185.19,275.05,185.19z" class="st15"/></g><g><path d="M273.73,185.19h9.2c1.16,0,2.1-0.94,2.1-2.1l0,0c0-1.16-0.94-2.1-2.1-2.1h-9.2c-1.16,0-2.1,0.94-2.1,2.1 l0,0C271.63,184.25,272.57,185.19,273.73,185.19z" class="st20"/></g></g><path d="M627.69,197.96h0.68c6.29,4.98,11.83,11.79,11.83,19l-0.55,3h-21.55c-2.12,0-4.1-1.28-4.9-3.32 c-0.27-0.69-0.47-1.41-0.61-2.16c-0.62-3.34,0.19-6.68,2.05-9.58C617.51,200.43,622.52,197.96,627.69,197.96z" class="st14"/><g><path d="M507.55,197.96h20.71c8.78,0,17.5,2.06,25.16,6.35c7.22,4.05,11.37,8.73,10.56,12.9c0,0.01,0,0.01,0,0.02 c-0.24,1.22-1.41,2.05-2.66,2.05h-37.02c-9.53,0-18.03-5.99-21.23-14.96l0,0C501.97,201.22,504.26,197.96,507.55,197.96z" class="st19"/><path d="M512.42,205.89h11.2c4.75,0,9.46,1.11,13.6,3.43c3.91,2.19,6.15,4.72,5.71,6.98c0,0,0,0.01,0,0.01 c-0.13,0.66-0.76,1.11-1.44,1.11h-20.02c-5.15,0-9.75-3.24-11.48-8.09v0C509.4,207.65,510.64,205.89,512.42,205.89z" class="st29"/><path d="M527,200.71h10.06c4.26,0,8.5,1,12.22,3.08c3.51,1.96,5.52,4.24,5.13,6.27c0,0,0,0.01,0,0.01 c-0.12,0.59-0.68,0.99-1.29,0.99h-17.98c-4.63,0-8.75-2.91-10.31-7.27l0,0C524.29,202.29,525.41,200.71,527,200.71z" class="st20"/></g><path d="M627.75,197.96h0.68c6.31,4.83,11.88,11.42,11.88,18.41l-0.55,2.91h-21.62c-2.13,0-4.12-1.24-4.91-3.22 c-0.27-0.67-0.48-1.37-0.62-2.09c-0.62-3.23,0.19-6.47,2.06-9.28C617.53,200.36,622.56,197.96,627.75,197.96z" class="st19"/><path d="M622.51,208.35h0.33c3.03,2.32,5.69,5.47,5.69,8.82l-0.26,1.39H617.9c-1.02,0-1.97-0.59-2.35-1.54 c-0.13-0.32-0.23-0.66-0.3-1c-0.3-1.55,0.09-3.1,0.98-4.45C617.61,209.5,620.02,208.35,622.51,208.35z" class="st29"/><path d="M626.91,199.51h0.43c4,3.06,7.52,7.23,7.52,11.65l-0.35,1.84h-13.69c-1.35,0-2.61-0.79-3.11-2.04 c-0.17-0.42-0.3-0.87-0.39-1.33c-0.39-2.05,0.12-4.1,1.3-5.88C620.44,201.02,623.62,199.51,626.91,199.51z" class="st20"/><path d="M370.96,134.26h93.58c28.96,8.55,72.57,33.99,75.9,35.94c0.04,0.03,0.1,0.03,0.14,0.05H427.75 C426.23,168.87,397.27,142.93,370.96,134.26z"/><g><path d="M322.87,135.69h27.83c10.99,0,21.84,2.62,31.43,7.85c17.63,9.61,34.13,24.57,39.15,29.29 c-44.19-3.68-92.37-5.7-142.82-5.7c-2.07,0-4.12,0.02-6.17,0.03c-1.56,0.01-2.96-0.93-3.52-2.35l0,0 c-0.62-1.59-0.02-3.39,1.44-4.32C287.45,149.4,311.13,135.69,322.87,135.69z" class="st30"/><path d="M470.58,136.21c25.01,8.67,57.28,26.74,67.09,32.38h-95.53c-7.12,0-14.01-2.4-19.59-6.81 c-9.25-7.32-23.64-17.69-38.21-24.21c-0.7-0.31-0.47-1.36,0.3-1.36H470.58z" class="st30"/></g><g><path d="M268.78,164.81c0.55,1.42,1.96,2.36,3.52,2.35c2.05-0.01,4.1-0.03,6.17-0.03 c50.44,0,98.63,2.02,142.82,5.7c-1.4-1.32-3.72-3.45-6.68-6.02c-7.44-0.14-14.89-0.26-22.35-0.32 c-5.22-11.47-6.59-18.18-6.95-21.16c-1.05-0.62-2.11-1.22-3.18-1.8c-9.59-5.23-20.44-7.85-31.43-7.85h-27.83 c-11.74,0-35.42,13.71-52.65,24.8C268.76,161.42,268.16,163.22,268.78,164.81z M375.5,150.68c2.65-2.08,5.37-4.06,8.1-5.86 c0.37,3.13,1.8,9.96,7.13,21.65c-5.32-0.04-10.65-0.06-15.99-0.06c-0.15,0-0.3,0-0.45,0l-1.47-5.5 C371.68,156.59,372.64,152.92,375.5,150.68z M282,154.57l13.91-8.79c4.28-2.71,9.25-4.14,14.31-4.14h61.81 c2.09,0,2.89,2.74,1.12,3.86l-13.64,8.62c-7.03,4.44-15.18,6.8-23.5,6.8h-52.17C280.39,160.92,279.09,156.41,282,154.57z M420.32,138.36c0.69,3.2,3.18,11.05,10.48,28.1c3.59,1.38,7.43,2.13,11.33,2.13h28.28c-11.51-0.52-23.07-0.96-34.68-1.29 c-7.94-18.53-10.28-27.07-10.66-28.94c0,0,28.67-0.71,46.61,5.8c7.22,2.62,39.43,16.28,40.21,20.18l-8.6,2.78 c0.11,0.56,0.07,1.05-0.08,1.47h34.45c-9.82-5.64-42.08-23.7-67.09-32.38h-85.95c-0.77,0-1,1.05-0.3,1.36 c2.12,0.95,4.23,1.98,6.32,3.07C395.67,138.04,420.32,138.36,420.32,138.36z" class="st31"/><path d="M276.07,167.13l0,0.01c0.8,0,1.59-0.01,2.4-0.01c15.27,0,30.34,0.19,45.15,0.55l-0.09-0.55 c-0.58-3.43-4.21-6.21-8.12-6.21h-3.64l-2.8-8.15c-1.33-3.87-5.6-6.72-10.05-6.72h-4.37c-2.79,1.48-5.6,3.06-8.39,4.68 c-0.22,0.64-0.38,1.32-0.38,2.04l-0.05,8.15h-3.64C278.19,160.92,275.49,163.7,276.07,167.13z M330.41,167.13l0.12,0.73 c16.27,0.46,32.23,1.13,47.79,1.99l-0.46-2.73c-0.58-3.43-4.21-6.21-8.12-6.21h-3.64l-2.8-8.15c-1.33-3.87-5.6-6.72-10.05-6.72 h-5.36c-4.45,0-7.76,2.86-7.78,6.72l-0.05,8.15h-3.64C332.53,160.92,329.83,163.7,330.41,167.13z" class="st32"/><path d="M417.53,157.92c1.79,1.35,3.48,2.65,5.01,3.86c5.58,4.41,12.48,6.81,19.59,6.81h13.42l-0.25-1.46 c-0.58-3.43-4.21-6.21-8.12-6.21h-3.64l-2.8-8.15c-1.33-3.87-5.6-6.72-10.05-6.72h-5.36c-4.45,0-7.76,2.86-7.78,6.72 L417.53,157.92z M342.84,167.13l0.19,1.12c16.32,0.57,32.29,1.37,47.86,2.36l-0.59-3.48c-0.58-3.43-4.21-6.21-8.12-6.21h-3.64 l-2.8-8.15c-1.33-3.87-5.6-6.72-10.05-6.72h-5.36c-4.45,0-7.76,2.86-7.78,6.72l-0.05,8.15h-3.64 C344.95,160.92,342.26,163.7,342.84,167.13z M407.85,167.13l0.8,4.71c4.24,0.32,8.46,0.65,12.64,0.99 c-2.13-2-6.33-5.85-11.8-10.35C408.21,163.62,407.54,165.27,407.85,167.13z" class="st33"/><path d="M531.46,168.59h-89.32c-5.74,0-11.33-1.59-16.21-4.51h86.5C515.96,164.08,525.07,165.87,531.46,168.59z" class="st34"/></g><g><path d="M368.8,156.04c-9.59-5.23-20.44-7.85-31.43-7.85h-27.83c-9.14,0-25.51,8.31-40.44,17.22 c-0.12-0.19-0.23-0.39-0.31-0.6c-0.62-1.59-0.02-3.39,1.44-4.32c17.23-11.08,40.91-24.8,52.65-24.8h27.83 c10.99,0,21.84,2.62,31.43,7.85c17.63,9.61,34.13,24.57,39.15,29.29c-10.01-0.83-20.24-1.58-30.64-2.24 C384.18,165.6,376.6,160.3,368.8,156.04z" class="st5"/><path d="M491.83,163.09c-16.07-7.64-33.63-11.62-51.42-11.62h-31.86c-7.37-5.03-15.76-10.11-24.21-13.89 c-0.7-0.31-0.47-1.36,0.3-1.36h85.95c25.01,8.67,57.28,26.74,67.09,32.38h-34.65C499.41,166.76,495.66,164.91,491.83,163.09z" class="st5"/></g><g><g><path d="M313.17,240.65h86.31c3.17,0,5.76-2.58,5.76-5.76v-50.13l5.74-14.48l-0.66-0.26l-5.79,14.67v50.2 c0,2.78-2.26,5.04-5.04,5.04h-86.31c-4.02,0-7.5-2.56-8.66-6.36c-3.27-10.7-11.12-29.18-27-32.7c-5.17-1-9-5.18-9.53-10.41 l-1.17-11.52l6.26-13.76l-0.65-0.3l-6.34,13.94l1.19,11.72c0.56,5.55,4.62,9.98,10.09,11.04 c15.51,3.45,23.24,21.66,26.46,32.21C305.08,237.89,308.83,240.65,313.17,240.65z"/><polygon points="330.69 240.31 331.4 240.28 328.97 180.27 333.81 166.59 333.13 166.36 328.26 180.16"/></g><path d="M268.12,165.07c0.66,1.69,2.35,2.81,4.19,2.8l0.28,0c1.96-0.01,3.91-0.03,5.88-0.03c49.29,0,97.32,1.92,142.76,5.7 c0.02,0,0.04,0,0.06,0c0.28,0,0.54-0.16,0.65-0.42c0.12-0.28,0.06-0.6-0.16-0.81c-4.72-4.44-21.5-19.7-39.3-29.4 c-9.52-5.19-20.51-7.93-31.77-7.93h-27.83c-5.73,0-14.22,3.19-23.45,7.76l-0.01,0c0,0,0,0.01-0.01,0.01 c-9.82,4.86-20.47,11.29-29.58,17.14C268.08,161.02,267.37,163.15,268.12,165.07z M322.87,136.4h14.68 c-1.08,3.25-4.07,13.28-6.37,30.78c-11.98-0.34-24.06-0.58-36.24-0.69c1.55-14.28,4.75-21.2,5.53-22.7 C309.33,139.42,317.43,136.4,322.87,136.4z M394.67,170.15c-19.36-1.28-39.12-2.22-59.19-2.85c2.47-18.53,5.9-29.03,6.55-30.9 h8.67c11.03,0,21.78,2.68,31.09,7.76c5.2,2.84,10.32,6.15,15.06,9.53c3.37,2.4,4.73,6.74,3.37,10.65l-0.97,2.78 C398.58,169.05,396.71,170.28,394.67,170.15z M278.05,166.42l1.57-5.5c1.23-4.32,4.11-7.99,8.01-10.23 c3.62-2.08,7.25-4.06,10.78-5.86c-1.33,3.13-3.65,9.96-4.91,21.65c-5-0.04-10.01-0.06-15.03-0.06 C278.33,166.41,278.19,166.42,278.05,166.42z"/></g><g><path d="M227.31,187.43l-1.24,3.28c-2.21,5.82-7.12,10.05-12.98,11.5c-0.56-7.35-0.55-12.86-0.55-12.86 c0-2.36,0.29-4.47,0.7-6.27h11.08C226.56,183.09,228.11,185.33,227.31,187.43z" class="st35"/><path d="M222.71,187.91l-0.78,2.06c-0.83,2.2-2.28,4.03-4.1,5.34c-1.74,1.25-4.18,0-4.27-2.14 c-0.11-2.46-0.11-4.05-0.11-4.05c0-0.22,0-0.43,0.01-0.64c0.07-1.83,1.55-3.29,3.38-3.29h3.99 C222.23,185.19,223.2,186.59,222.71,187.91z" class="st36"/><path d="M225.83,185.23l-0.69,1.1c-0.74,1.17-2.03,2.15-3.64,2.85c-1.55,0.67-3.72,0-3.8-1.14 c-0.1-1.31-0.09-2.16-0.09-2.16c0-0.12,0-0.23,0.01-0.34c0.06-0.98,1.37-1.75,3-1.75h3.55 C225.41,183.78,226.27,184.53,225.83,185.23z" class="st5"/><path d="M213.09,202.39c0.01,0,0.03,0,0.04,0c6.01-1.49,10.91-5.83,13.1-11.61l1.24-3.28c0.4-1.06,0.26-2.19-0.38-3.12 c-0.64-0.93-1.66-1.46-2.79-1.46h-11.08c-0.1,0-0.18,0.08-0.18,0.18s0.08,0.18,0.18,0.18h11.08c1.01,0,1.92,0.48,2.49,1.31 c0.57,0.83,0.7,1.85,0.34,2.79l-1.24,3.28c-2.15,5.68-6.96,9.93-12.85,11.39c-0.1,0.02-0.15,0.12-0.13,0.22 C212.93,202.34,213.01,202.39,213.09,202.39z"/></g><g><path d="M383.79,178.77c0.01-0.02,0.01-0.04,0.02-0.06c0.16-0.5,0.32-0.99,0.5-1.44c0.06-0.14,0.12-0.26,0.18-0.4 c0.14-0.33,0.29-0.67,0.44-0.96c0.23-0.43,0.47-0.82,0.72-1.16c0-0.01,0.01-0.01,0.01-0.02l7.15-9.61 c0.59-0.8,1.22-1.12,1.82-1.01c0.99,0.17,1.88,1.53,2.34,3.84l0.16,0.79l1.16,5.82l7.48-7.46l0.56,4.23l-20.93,21.58 c-1.18,1.24-2.42-0.24-2.68-3.19l0,0C382.39,185.93,382.83,181.92,383.79,178.77z" class="st15"/><g><path d="M382.19,170.61h21.02l-0.95-8.34c-0.33-2.91-2.6-4.99-5.11-4.69l-11.37,1.36 c-3.52,0.42-6.3,3.66-6.65,7.75l0,0C378.96,168.79,380.38,170.61,382.19,170.61z" class="st23"/><path d="M384.79,170.61h21.54v-3.14H387.3c-1.38,0-2.5,1.12-2.5,2.5V170.61z"/><path d="M385.79,158.95l11.37-1.36c2.52-0.3,4.78,1.78,5.11,4.69l0.2,1.81h-15c-2.39,0-4.51-1.19-5.83-2.99 C382.77,159.93,384.2,159.14,385.79,158.95z" class="st24"/></g></g></g><g><rect width="73.77" height="78.66" x="673.64" y="328.43" class="st37"/><rect width="36.88" height="78.66" x="710.52" y="328.43" class="st38"/><g><rect width="77.16" height="5.01" x="670.25" y="329.89" class="st39"/></g><defs><filter id="Adobe_OpacityMaskFilter_00000119829307180524620400000011508123833647962038_" width="80.96" height="65.2" x="670.08" y="408.46" filterUnits="userSpaceOnUse"><feFlood style="flood-color:white;flood-opacity:1" result="back"/><feBlend in="SourceGraphic" in2="back" mode="normal"/></filter></defs><mask id="SVGID_00000128453558892279865920000008681383177050893745_" width="80.96" height="65.2" x="670.08" y="408.46" maskUnits="userSpaceOnUse"><g style="filter:url(#Adobe_OpacityMaskFilter_00000119829307180524620400000011508123833647962038_)"><defs><filter id="Adobe_OpacityMaskFilter_00000145743316380224363310000003369591266415994296_" width="80.96" height="65.2" x="670.08" y="408.46" filterUnits="userSpaceOnUse"><feFlood style="flood-color:white;flood-opacity:1" result="back"/><feBlend in="SourceGraphic" in2="back" mode="normal"/></filter></defs><linearGradient id="SVGID_00000039844534780837079080000016797483321961917578_" x1="710.556" x2="710.556" y1="473.664" y2="408.463" gradientUnits="userSpaceOnUse"><stop offset="0" style="stop-color:#000"/><stop offset=".318" style="stop-color:#020202"/><stop offset=".455" style="stop-color:#090909"/><stop offset=".557" style="stop-color:#161616"/><stop offset=".642" style="stop-color:#282828"/><stop offset=".717" style="stop-color:#3f3f3f"/><stop offset=".784" style="stop-color:#5b5b5b"/><stop offset=".845" style="stop-color:#7d7d7d"/><stop offset=".902" style="stop-color:#a5a5a5"/><stop offset=".953" style="stop-color:#d0d0d0"/><stop offset="1" style="stop-color:#fff"/></linearGradient><polygon style="mask:url(#SVGID_00000128453558892279865920000008681383177050893745_);fill:url(#SVGID_00000039844534780837079080000016797483321961917578_)" points="751.03 408.46 670.08 408.46 670.08 417.16 673.64 417.16 673.64 473.66 747.48 473.66 747.48 417.16 751.03 417.16"/></g></mask><linearGradient id="SVGID_00000038404735198349304060000004405588326160981658_" x1="710.556" x2="710.556" y1="473.664" y2="408.463" gradientUnits="userSpaceOnUse"><stop offset="0" style="stop-color:#231f20"/><stop offset=".51" style="stop-color:#211d1e"/><stop offset=".729" style="stop-color:#1a1718"/><stop offset=".893" style="stop-color:#0d0c0c"/><stop offset="1" style="stop-color:#000"/></linearGradient><polygon style="fill:url(#SVGID_00000038404735198349304060000004405588326160981658_)" points="751.03 408.46 670.08 408.46 670.08 417.16 673.64 417.16 673.64 473.66 747.48 473.66 747.48 417.16 751.03 417.16"/><path d="M756,408.46c0,0.76-21.22,1.37-47.4,1.37c-26.18,0-47.4-0.62-47.4-1.37c0-0.76,21.22-1.37,47.4-1.37 C734.77,407.09,756,407.7,756,408.46z"/><g><path d="M651.43,329.09c0-13.41,7.99-24.66,18.78-27.74v-0.84h-17.43c-13.68,0-24.76,12.8-24.76,28.59 c0,15.79,11.08,28.59,24.76,28.59h17.58v-0.81C659.49,353.85,651.43,342.56,651.43,329.09z" class="st44"/><path d="M654.95,301.35c-13.27,0-24.03,12.43-24.03,27.74c0,15.33,10.75,27.75,24.03,27.75h15.26 c-10.79-3.09-18.79-14.34-18.79-27.75c0-13.41,8-24.66,18.79-27.74H654.95z" class="st45"/></g><g><g><path d="M649.18,354.66c-1.27,0-2.3,1.19-2.3,2.66c0,1.47,1.03,2.66,2.3,2.66s2.3-1.19,2.3-2.66 C651.49,355.85,650.46,354.66,649.18,354.66z" class="st12"/></g><path d="M677.08,354.66h-27.9c1.27,0,2.3,1.19,2.3,2.66c0,1.47-1.03,2.66-2.3,2.66h27.9c1.27,0,2.3-1.19,2.3-2.66 C679.38,355.85,678.35,354.66,677.08,354.66z" class="st46"/><g><path d="M649.18,355.29c-0.97,0-1.75,0.91-1.75,2.02c0,1.12,0.78,2.02,1.75,2.02s1.75-0.91,1.75-2.02 C650.94,356.2,650.15,355.29,649.18,355.29z" class="st47"/></g></g><polygon points="747.4 328.42 677.55 328.42 677.55 296.66 715.92 296.66 720.51 314.47 747.4 325.08"/><polygon points="710.52 328.42 673.64 328.42 673.64 296.66 679.03 296.66 683.62 314.47 710.52 325.08" class="st37"/><polygon points="684.78 312.66 700.27 312.66 696.81 299.26 681.33 299.26" class="st48"/><polygon points="696.81 299.26 681.33 299.26 684.24 310.58 698.1 304.26" class="st5"/><polygon points="702.32 312.66 717.81 312.66 714.36 299.26 698.87 299.26" class="st12"/><polygon points="714.36 299.26 698.87 299.26 701.79 310.58 715.65 304.26" class="st5"/><g><rect width="80.96" height="10.01" x="670.08" y="398.45" class="st18"/><rect width="38.56" height="10.01" x="712.48" y="398.45"/></g><g><rect width="80.96" height="5.01" x="670.08" y="326.59" class="st18"/><rect width="38.56" height="5.01" x="712.48" y="326.59"/></g><g><path d="M684.75,321.25c-4.09,0-7.9,1.39-11.11,3.75v40.42c3.21,2.36,7.02,3.75,11.11,3.75 c11.46,0,20.75-10.73,20.75-23.96C705.49,331.98,696.21,321.25,684.75,321.25z" class="st39"/></g><g><g class="st16"><defs><path id="SVGID_00000093154964798268141660000010234590213055751345_" d="M667.64,362.54h12 c11.46,0,20.75-10.73,20.75-23.96c0-13.23-9.29-23.96-20.75-23.96h-12c11.46,0,20.75,10.73,20.75,23.96 C688.38,351.81,679.1,362.54,667.64,362.54z" class="st16"/></defs><use xlink:href="#SVGID_00000093154964798268141660000010234590213055751345_" style="overflow:visible"/><clipPath id="SVGID_00000047034272979306217860000012663523117597795510_"><use xlink:href="#SVGID_00000093154964798268141660000010234590213055751345_" style="overflow:visible"/></clipPath><g style="clip-path:url(#SVGID_00000047034272979306217860000012663523117597795510_);enable-background:new"><path d="M688.38,338.58c0-1.29-0.09-2.55-0.26-3.79h12c0.17,1.23,0.26,2.5,0.26,3.79c0,13.23-9.29,23.96-20.75,23.96h-12 C679.1,362.54,688.38,351.81,688.38,338.58z"/><path d="M695.43,323.04c1.54,2.08,2.77,4.47,3.62,7.07c0.49,1.49,0.85,3.06,1.07,4.68h-12c-0.22-1.62-0.58-3.18-1.07-4.68l0,0 c-0.85-2.6-2.09-4.99-3.62-7.07H695.43z"/><path d="M691.42,318.86c1.49,1.19,2.84,2.59,4.01,4.18h-12c-1.17-1.59-2.52-2.99-4.01-4.18H691.42z"/><path d="M667.64,314.62h12c4.38,0,8.44,1.57,11.79,4.24h-12C676.07,316.19,672.01,314.62,667.64,314.62z"/></g></g><g><path d="M668.1,314.62c-11.72,0-21.21,10.73-21.21,23.96c0,13.23,9.49,23.96,21.21,23.96s21.21-10.73,21.21-23.96 C689.31,325.35,679.82,314.62,668.1,314.62z" class="st39"/></g><g><path d="M667.64,314.62c-11.46,0-20.75,10.73-20.75,23.96c0,13.23,9.29,23.96,20.75,23.96 s20.75-10.73,20.75-23.96C688.38,325.35,679.1,314.62,667.64,314.62z" class="st18"/></g><g><path d="M667.64,320.76c-8.52,0-15.43,7.98-15.43,17.82c0,9.84,6.91,17.82,15.43,17.82 c8.52,0,15.43-7.98,15.43-17.82C683.07,328.74,676.16,320.76,667.64,320.76z" class="st50"/></g><g><path d="M667.64,323.36c-7.28,0-13.18,6.82-13.18,15.22c0,8.41,5.9,15.23,13.18,15.23s13.18-6.82,13.18-15.23 C680.82,330.17,674.92,323.36,667.64,323.36z"/></g><path d="M652.91,338.59c0,9.39,6.59,17,14.72,17c8.13,0,14.72-7.61,14.72-17c0-9.39-6.59-17-14.72-17 C659.5,321.59,652.91,329.2,652.91,338.59z M657.62,349.29c-1.29-1.62-2.3-3.54-2.92-5.68l10.68-3.31L657.62,349.29z M665.23,337.17l-10.63-3.3c0.58-2.15,1.57-4.1,2.83-5.74L665.23,337.17z M667.64,322.82c0.93,0,1.83,0.11,2.71,0.31 l-2.85,12.33l-2.84-12.26C665.62,322.96,666.61,322.82,667.64,322.82z M670.04,340.01l10.63,3.3c-0.58,2.15-1.57,4.1-2.83,5.74 L670.04,340.01z M669.9,336.89l7.75-8.99c1.3,1.62,2.3,3.54,2.92,5.68L669.9,336.89z M667.64,354.36 c-0.93,0-1.84-0.11-2.71-0.31l2.85-12.33l2.84,12.26C669.65,354.22,668.66,354.36,667.64,354.36z" class="st47"/><path d="M667.64,338.05c-5.01,0-9.65,1.01-13.5,2.72c-0.09-0.72-0.15-1.45-0.15-2.19c0-8.7,6.11-15.76,13.65-15.76 s13.65,7.06,13.65,15.76c0,0.75-0.06,1.47-0.15,2.19C677.29,339.05,672.64,338.05,667.64,338.05z" class="st38"/><path d="M652.91,338.58c0,9.39,6.58,17,14.71,17s14.71-7.61,14.71-17c0-9.38-6.58-16.99-14.71-16.99 S652.91,329.2,652.91,338.58z M653.95,338.58c0-8.72,6.12-15.8,13.67-15.8c7.55,0,13.67,7.07,13.67,15.8 c0,8.73-6.12,15.8-13.67,15.8C660.07,354.38,653.95,347.31,653.95,338.58z" class="st20"/><g><path d="M669.56,333.38c-2.49,0-4.5,2.33-4.5,5.2c0,2.87,2.01,9.8,4.5,9.8s4.5-6.93,4.5-9.8 C674.06,335.71,672.04,333.38,669.56,333.38z" class="st39"/></g><g><g><path d="M669.56,333.38c-2.49,0-4.5,2.33-4.5,5.2c0,2.87,2.01,5.2,4.5,5.2s4.5-2.33,4.5-5.2 C674.06,335.71,672.04,333.38,669.56,333.38z"/></g><g><path d="M667.64,333.38c-2.49,0-4.5,2.33-4.5,5.2c0,2.87,2.01,5.2,4.5,5.2c2.49,0,4.5-2.33,4.5-5.2 C672.14,335.71,670.12,333.38,667.64,333.38z" class="st20"/></g></g></g></g><g><defs><filter id="Adobe_OpacityMaskFilter_00000026857520485793956040000018105712988939301763_" width="88.41" height="69.59" x="47.61" y="403.33" filterUnits="userSpaceOnUse"><feFlood style="flood-color:white;flood-opacity:1" result="back"/><feBlend in="SourceGraphic" in2="back" mode="normal"/></filter></defs><mask id="SVGID_00000108287785804853369400000017808198504975229842_" width="88.41" height="69.59" x="47.61" y="403.33" maskUnits="userSpaceOnUse"><g style="filter:url(#Adobe_OpacityMaskFilter_00000026857520485793956040000018105712988939301763_)"><defs><filter id="Adobe_OpacityMaskFilter_00000147202155947478042150000004268868140906711477_" width="88.41" height="69.59" x="47.61" y="403.33" filterUnits="userSpaceOnUse"><feFlood style="flood-color:white;flood-opacity:1" result="back"/><feBlend in="SourceGraphic" in2="back" mode="normal"/></filter></defs><linearGradient id="SVGID_00000119802654674740835550000008928946345154595221_" x1="91.818" x2="91.818" y1="472.918" y2="403.329" gradientUnits="userSpaceOnUse"><stop offset="0" style="stop-color:#000"/><stop offset=".243" style="stop-color:#020202"/><stop offset=".38" style="stop-color:#0b0b0b"/><stop offset=".49" style="stop-color:#181818"/><stop offset=".587" style="stop-color:#2c2c2c"/><stop offset=".674" style="stop-color:#464646"/><stop offset=".755" style="stop-color:#656565"/><stop offset=".831" style="stop-color:#8b8b8b"/><stop offset=".903" style="stop-color:#b6b6b6"/><stop offset=".969" style="stop-color:#e6e6e6"/><stop offset="1" style="stop-color:#fff"/></linearGradient><path style="mask:url(#SVGID_00000108287785804853369400000017808198504975229842_);fill:url(#SVGID_00000119802654674740835550000008928946345154595221_)" d="M135.77,451.56l-5.15-8.07c0.04-0.06,0.09-0.11,0.13-0.17c0.12-0.17,0.24-0.33,0.35-0.5c0.16-0.24,0.32-0.5,0.47-0.75 c0.1-0.17,0.21-0.34,0.31-0.51c0.16-0.27,0.3-0.55,0.45-0.83c0.09-0.18,0.18-0.35,0.27-0.53c0.15-0.3,0.29-0.6,0.42-0.9 c0.08-0.18,0.15-0.35,0.23-0.53c0.14-0.33,0.27-0.66,0.39-1c0.06-0.16,0.11-0.32,0.17-0.48c0.13-0.37,0.25-0.74,0.37-1.12 c0.02-0.07,0.03-0.13,0.05-0.2c0.64-2.23,1.02-4.65,1.02-7.19c0-2.03-0.24-3.99-0.66-5.83c-0.66-2.88-1.76-5.47-3.1-7.61 c0.54-1.15,0.85-2.47,0.85-3.88c0-4.49-3.15-8.13-7.04-8.13h-2.03c-3.19,0-5.89,2.46-6.75,5.82h-1.21 c-0.86-3.37-3.55-5.82-6.75-5.82h-2.03c-3.19,0-5.89,2.46-6.75,5.82H81.48c-0.86-3.37-3.55-5.82-6.75-5.82H72.7 c-3.19,0-5.89,2.46-6.75,5.82h-2.52c-0.86-3.37-3.55-5.82-6.75-5.82h-2.03c-3.89,0-7.04,3.64-7.04,8.13 c0,2.54,1.01,4.8,2.59,6.29c-0.01,0.02-0.01,0.04-0.02,0.06c-0.07,0.23-0.15,0.46-0.22,0.69c-0.03,0.1-0.06,0.2-0.09,0.31 c0,0,0,0,0,0h0c-0.02,0.07-0.04,0.14-0.06,0.21c-0.1,0.34-0.19,0.69-0.28,1.05c-0.04,0.16-0.08,0.33-0.11,0.49 c-0.09,0.38-0.17,0.77-0.24,1.16c-0.03,0.15-0.05,0.3-0.08,0.45c-0.07,0.42-0.14,0.84-0.2,1.28c-0.02,0.12-0.03,0.25-0.05,0.38 c-0.06,0.46-0.11,0.93-0.16,1.41c-0.01,0.09-0.01,0.18-0.02,0.27c-0.04,0.52-0.08,1.04-0.1,1.58v0 c-0.02,0.56-0.04,1.12-0.04,1.7c0,3.32,0.41,6.45,1.12,9.19c0.12,0.46,0.25,0.9,0.38,1.34c0.03,0.11,0.07,0.22,0.11,0.33h-0.01 c0.03,0.09,0.07,0.17,0.1,0.27c0.04,0.1,0.07,0.21,0.11,0.31c0.04,0.12,0.08,0.25,0.13,0.37c0.06,0.16,0.12,0.31,0.19,0.47 c0.08,0.2,0.16,0.41,0.24,0.61c0.01,0.01,0.01,0.03,0.02,0.04c0.03,0.07,0.06,0.13,0.09,0.2c0.35,0.8,0.74,1.55,1.16,2.22 c0.05,0.08,0.1,0.17,0.15,0.25c0.16,0.26,0.34,0.48,0.51,0.72c0.12,0.16,0.24,0.33,0.36,0.48c0.11,0.14,0.22,0.27,0.33,0.39 c-2.95,1.46-4.98,4.5-4.98,8.01c0,4.91,3.89,8.7,8.5,8.93v0.03h5.58v1.46h-1.88v1.73h1.88v1.02c0,3.2,2.59,5.79,5.79,5.79h8.44 c2.17,0,4.04-1.21,5.03-2.98c0.99,1.77,2.86,2.98,5.03,2.98h8.44c3.2,0,5.79-2.59,5.79-5.79v-1.02h1.94v-1.73h-1.94v-1.46h1.94 v-1.73h-1.94v-1.46h1.94v-1.73h-1.94v-1.46h1.94v-1.73h-1.94v-1.88h-1.6v-4.51h10.73v0.91c-2.28,0-4.13,2.14-4.13,4.77 s1.85,4.77,4.13,4.77c0,0,0,0,0,0h0.09c0,0,0,0,0,0s0,0,0,0h2.98c2.28,0,4.13-2.14,4.13-4.77c0-2.63-1.85-4.77-4.13-4.77h-0.44 v-0.91h10.51c0.3,0,0.6-0.04,0.91-0.1c0.1-0.02,0.2-0.05,0.31-0.08c0.21-0.05,0.42-0.11,0.63-0.19 c0.12-0.05,0.25-0.1,0.37-0.16c0.05-0.02,0.1-0.05,0.15-0.07c0.63,0.89,1.38,1.93,2.26,3.18c1.32,1.87,3.48,2.98,5.78,2.98 h0.65c0.58,0,1.09-0.3,1.37-0.81C136.1,452.65,136.08,452.05,135.77,451.56z M134.97,452.68c-0.1,0.19-0.3,0.3-0.51,0.3h-0.65 c-1.98,0-3.84-0.96-4.98-2.57c-0.85-1.2-1.57-2.21-2.19-3.07c0.17-0.1,0.34-0.21,0.51-0.33c0.14-0.1,0.28-0.19,0.41-0.3 c0.18-0.14,0.36-0.29,0.53-0.44c0.14-0.12,0.28-0.23,0.42-0.36c0.17-0.16,0.35-0.34,0.52-0.52c0.14-0.14,0.27-0.27,0.41-0.42 c0.19-0.21,0.37-0.43,0.55-0.66l4.96,7.77C135.07,452.27,135.08,452.49,134.97,452.68z"/></g></mask><linearGradient id="SVGID_00000083771521568183662890000006996649925095050379_" x1="91.818" x2="91.818" y1="472.918" y2="403.329" gradientUnits="userSpaceOnUse"><stop offset="0" style="stop-color:#231f20"/><stop offset=".444" style="stop-color:#211d1e"/><stop offset=".694" style="stop-color:#181616"/><stop offset=".896" style="stop-color:#0b090a"/><stop offset="1" style="stop-color:#000"/></linearGradient><path style="opacity:.7;fill:url(#SVGID_00000083771521568183662890000006996649925095050379_)" d="M135.77,451.56l-5.15-8.07 c0.04-0.06,0.09-0.11,0.13-0.17c0.12-0.17,0.24-0.33,0.35-0.5c0.16-0.24,0.32-0.5,0.47-0.75c0.1-0.17,0.21-0.34,0.31-0.51 c0.16-0.27,0.3-0.55,0.45-0.83c0.09-0.18,0.18-0.35,0.27-0.53c0.15-0.3,0.29-0.6,0.42-0.9c0.08-0.18,0.15-0.35,0.23-0.53 c0.14-0.33,0.27-0.66,0.39-1c0.06-0.16,0.11-0.32,0.17-0.48c0.13-0.37,0.25-0.74,0.37-1.12c0.02-0.07,0.03-0.13,0.05-0.2 c0.64-2.23,1.02-4.65,1.02-7.19c0-2.03-0.24-3.99-0.66-5.83c-0.66-2.88-1.76-5.47-3.1-7.61c0.54-1.15,0.85-2.47,0.85-3.88 c0-4.49-3.15-8.13-7.04-8.13h-2.03c-3.19,0-5.89,2.46-6.75,5.82h-1.21c-0.86-3.37-3.55-5.82-6.75-5.82h-2.03 c-3.19,0-5.89,2.46-6.75,5.82H81.48c-0.86-3.37-3.55-5.82-6.75-5.82H72.7c-3.19,0-5.89,2.46-6.75,5.82h-2.52 c-0.86-3.37-3.55-5.82-6.75-5.82h-2.03c-3.89,0-7.04,3.64-7.04,8.13c0,2.54,1.01,4.8,2.59,6.29c-0.01,0.02-0.01,0.04-0.02,0.06 c-0.07,0.23-0.15,0.46-0.22,0.69c-0.03,0.1-0.06,0.2-0.09,0.31c0,0,0,0,0,0h0c-0.02,0.07-0.04,0.14-0.06,0.21 c-0.1,0.34-0.19,0.69-0.28,1.05c-0.04,0.16-0.08,0.33-0.11,0.49c-0.09,0.38-0.17,0.77-0.24,1.16c-0.03,0.15-0.05,0.3-0.08,0.45 c-0.07,0.42-0.14,0.84-0.2,1.28c-0.02,0.12-0.03,0.25-0.05,0.38c-0.06,0.46-0.11,0.93-0.16,1.41c-0.01,0.09-0.01,0.18-0.02,0.27 c-0.04,0.52-0.08,1.04-0.1,1.58v0c-0.02,0.56-0.04,1.12-0.04,1.7c0,3.32,0.41,6.45,1.12,9.19c0.12,0.46,0.25,0.9,0.38,1.34 c0.03,0.11,0.07,0.22,0.11,0.33h-0.01c0.03,0.09,0.07,0.17,0.1,0.27c0.04,0.1,0.07,0.21,0.11,0.31c0.04,0.12,0.08,0.25,0.13,0.37 c0.06,0.16,0.12,0.31,0.19,0.47c0.08,0.2,0.16,0.41,0.24,0.61c0.01,0.01,0.01,0.03,0.02,0.04c0.03,0.07,0.06,0.13,0.09,0.2 c0.35,0.8,0.74,1.55,1.16,2.22c0.05,0.08,0.1,0.17,0.15,0.25c0.16,0.26,0.34,0.48,0.51,0.72c0.12,0.16,0.24,0.33,0.36,0.48 c0.11,0.14,0.22,0.27,0.33,0.39c-2.95,1.46-4.98,4.5-4.98,8.01c0,4.91,3.89,8.7,8.5,8.93v0.03h5.58v1.46h-1.88v1.73h1.88v1.02 c0,3.2,2.59,5.79,5.79,5.79h8.44c2.17,0,4.04-1.21,5.03-2.98c0.99,1.77,2.86,2.98,5.03,2.98h8.44c3.2,0,5.79-2.59,5.79-5.79 v-1.02h1.94v-1.73h-1.94v-1.46h1.94v-1.73h-1.94v-1.46h1.94v-1.73h-1.94v-1.46h1.94v-1.73h-1.94v-1.88h-1.6v-4.51h10.73v0.91 c-2.28,0-4.13,2.14-4.13,4.77s1.85,4.77,4.13,4.77c0,0,0,0,0,0h0.09c0,0,0,0,0,0s0,0,0,0h2.98c2.28,0,4.13-2.14,4.13-4.77 c0-2.63-1.85-4.77-4.13-4.77h-0.44v-0.91h10.51c0.3,0,0.6-0.04,0.91-0.1c0.1-0.02,0.2-0.05,0.31-0.08 c0.21-0.05,0.42-0.11,0.63-0.19c0.12-0.05,0.25-0.1,0.37-0.16c0.05-0.02,0.1-0.05,0.15-0.07c0.63,0.89,1.38,1.93,2.26,3.18 c1.32,1.87,3.48,2.98,5.78,2.98h0.65c0.58,0,1.09-0.3,1.37-0.81C136.1,452.65,136.08,452.05,135.77,451.56z M134.97,452.68 c-0.1,0.19-0.3,0.3-0.51,0.3h-0.65c-1.98,0-3.84-0.96-4.98-2.57c-0.85-1.2-1.57-2.21-2.19-3.07c0.17-0.1,0.34-0.21,0.51-0.33 c0.14-0.1,0.28-0.19,0.41-0.3c0.18-0.14,0.36-0.29,0.53-0.44c0.14-0.12,0.28-0.23,0.42-0.36c0.17-0.16,0.35-0.34,0.52-0.52 c0.14-0.14,0.27-0.27,0.41-0.42c0.19-0.21,0.37-0.43,0.55-0.66l4.96,7.77C135.07,452.27,135.08,452.49,134.97,452.68z"/><path d="M138.38,403.33c0,0.58-21.13,1.04-47.19,1.04S44,403.9,44,403.33c0-0.58,21.13-1.04,47.19-1.04 S138.38,402.75,138.38,403.33z"/><g><g><g><path d="M123.44,387.08c-3.97,0-7.19,3.64-7.19,8.12c0,4.49,3.22,8.13,7.19,8.13c3.97,0,7.19-3.64,7.19-8.13 C130.63,390.72,127.41,387.08,123.44,387.08z" class="st39"/></g><g><path d="M123.28,387.08c-3.89,0-7.04,3.64-7.04,8.12c0,4.49,3.15,8.13,7.04,8.13c3.89,0,7.04-3.64,7.04-8.13 C130.32,390.72,127.17,387.08,123.28,387.08z"/></g><path d="M125.32,387.08h-2.03c3.89,0,7.04,3.64,7.04,8.12c0,4.49-3.15,8.13-7.04,8.13h2.03 c3.89,0,7.04-3.64,7.04-8.13C132.35,390.72,129.2,387.08,125.32,387.08z" class="st18"/></g><g><g><path d="M72.85,387.08c-3.97,0-7.19,3.64-7.19,8.12c0,4.49,3.22,8.13,7.19,8.13c3.97,0,7.19-3.64,7.19-8.13 C80.05,390.72,76.83,387.08,72.85,387.08z" class="st39"/></g><g><path d="M72.7,387.08c-3.89,0-7.04,3.64-7.04,8.12c0,4.49,3.15,8.13,7.04,8.13c3.89,0,7.04-3.64,7.04-8.13 C79.73,390.72,76.58,387.08,72.7,387.08z"/></g><path d="M74.73,387.08H72.7c3.89,0,7.04,3.64,7.04,8.12c0,4.49-3.15,8.13-7.04,8.13h2.03 c3.89,0,7.04-3.64,7.04-8.13C81.77,390.72,78.62,387.08,74.73,387.08z" class="st18"/></g><g><g><rect width="2.64" height="9.23" x="110.25" y="351.1"/><g><g><path d="M110.35,347.81c-2.33,0-4.22,2.14-4.22,4.77c0,2.63,1.89,4.77,4.22,4.77s4.22-2.14,4.22-4.77 C114.57,349.95,112.68,347.81,110.35,347.81z" class="st39"/></g><g><path d="M110.25,347.81c-2.28,0-4.13,2.14-4.13,4.77c0,2.63,1.85,4.77,4.13,4.77c2.28,0,4.13-2.14,4.13-4.77 C114.38,349.95,112.53,347.81,110.25,347.81z" class="st37"/></g><path d="M113.32,347.81h-3.07c2.28,0,4.13,2.14,4.13,4.77c0,2.63-1.85,4.77-4.13,4.77h3.07 c2.28,0,4.13-2.14,4.13-4.77C117.45,349.95,115.61,347.81,113.32,347.81z" class="st55"/><g><g><path d="M110.25,348.29c-2.05,0-3.72,1.92-3.72,4.29c0,2.37,1.66,4.29,3.72,4.29c2.05,0,3.72-1.92,3.72-4.29 C113.97,350.21,112.31,348.29,110.25,348.29z" class="st50"/></g><g><path d="M110.25,348.91c-1.75,0-3.18,1.64-3.18,3.67c0,2.03,1.42,3.67,3.18,3.67c1.75,0,3.18-1.64,3.18-3.67 C113.43,350.55,112.01,348.91,110.25,348.91z" class="st56"/></g><path d="M110.25,352.45c-1.21,0-2.32,0.24-3.25,0.66c-0.02-0.17-0.04-0.35-0.04-0.53c0-2.1,1.47-3.8,3.29-3.8 c1.82,0,3.29,1.7,3.29,3.8c0,0.18-0.01,0.35-0.04,0.53C112.58,352.69,111.46,352.45,110.25,352.45z" class="st38"/><path d="M106.71,352.58c0,2.26,1.59,4.09,3.54,4.09c1.96,0,3.54-1.83,3.54-4.09c0-2.26-1.59-4.09-3.54-4.09 C108.29,348.49,106.71,350.32,106.71,352.58z M106.96,352.58c0-2.1,1.47-3.8,3.29-3.8s3.29,1.7,3.29,3.8 c0,2.1-1.47,3.81-3.29,3.81S106.96,354.68,106.96,352.58z" class="st20"/><g><path d="M110.72,351.33c-0.6,0-1.08,0.56-1.08,1.25c0,0.69,0.49,2.36,1.08,2.36c0.6,0,1.08-1.67,1.08-2.36 C111.8,351.89,111.31,351.33,110.72,351.33z" class="st39"/></g><path d="M110.11,351.94c-0.02-0.07,0.56-2.64,0.56-2.64l0.65,2.64H110.11z" class="st37"/><g><g><path d="M110.72,351.33c-0.6,0-1.08,0.56-1.08,1.25c0,0.69,0.49,1.25,1.08,1.25c0.6,0,1.08-0.56,1.08-1.25 C111.8,351.89,111.31,351.33,110.72,351.33z"/></g><g><path d="M110.25,351.33c-0.6,0-1.08,0.56-1.08,1.25c0,0.69,0.49,1.25,1.08,1.25c0.6,0,1.08-0.56,1.08-1.25 C111.34,351.89,110.85,351.33,110.25,351.33z" class="st20"/></g></g></g></g></g><g><rect width="16.9" height="16.31" x="82.62" y="343.75"/><g><path d="M82.62,353.75H62.61v-10c0-5.53,4.48-10,10-10h0c5.53,0,10,4.48,10,10V353.75z"/><g><rect width="23.82" height="1.73" x="60.73" y="340.55" class="st39"/><rect width="11.93" height="1.73" x="72.63" y="340.55" class="st39"/></g><g><rect width="23.82" height="1.73" x="60.73" y="343.75" class="st39"/><rect width="11.93" height="1.73" x="72.63" y="343.75" class="st39"/></g><g><rect width="23.82" height="1.73" x="60.73" y="346.94" class="st39"/><rect width="11.93" height="1.73" x="72.63" y="346.94" class="st39"/></g><g><rect width="23.82" height="1.73" x="60.73" y="350.14" class="st39"/><rect width="11.93" height="1.73" x="72.63" y="350.14" class="st39"/></g></g><g><path d="M101.11,353.75H81.1v-10c0-5.53,4.48-10,10-10h0c5.53,0,10,4.48,10,10V353.75z" class="st50"/><g><rect width="23.82" height="1.73" x="79.22" y="340.55" class="st39"/><rect width="11.93" height="1.73" x="91.12" y="340.55" class="st39"/></g><g><rect width="23.82" height="1.73" x="79.22" y="343.75" class="st39"/><rect width="11.93" height="1.73" x="91.12" y="343.75" class="st39"/></g><g><rect width="23.82" height="1.73" x="79.22" y="346.94" class="st39"/><rect width="11.93" height="1.73" x="91.12" y="346.94" class="st39"/></g><g><rect width="23.82" height="1.73" x="79.22" y="350.14" class="st39"/><rect width="11.93" height="1.73" x="91.12" y="350.14" class="st39"/></g></g></g><g><path d="M135.26,377.88c0-10.84-6.78-19.62-11.86-19.62l0,0H57.7c-5.11,0.51-9.17,9.1-9.17,19.62 s4.06,19.11,9.17,19.62h65.7v0C128.48,397.5,135.26,388.72,135.26,377.88z" class="st57"/><path d="M114.14,377.88c0-10.39,3.78-18.87,8.57-19.55c-0.22-0.03-0.43-0.07-0.64-0.07 c-5.08,0-9.19,8.78-9.19,19.62c0,10.84,4.12,19.62,9.19,19.62c0.21,0,0.43-0.04,0.64-0.07 C117.93,396.75,114.14,388.27,114.14,377.88z" class="st11"/><path d="M51.16,377.88c0-10.39,3.78-18.87,8.57-19.55c-0.22-0.03-0.43-0.07-0.64-0.07 c-5.08,0-9.19,8.78-9.19,19.62c0,10.84,4.12,19.62,9.19,19.62c0.21,0,0.43-0.04,0.64-0.07 C54.94,396.75,51.16,388.27,51.16,377.88z" class="st11"/><defs><filter id="Adobe_OpacityMaskFilter_00000020399504585327790120000008152575196672991908_" width="21.05" height="21.19" x="114.21" y="376.32" filterUnits="userSpaceOnUse"><feFlood style="flood-color:white;flood-opacity:1" result="back"/><feBlend in="SourceGraphic" in2="back" mode="normal"/></filter></defs><mask id="SVGID_00000109028330475829766120000007509492065325941942_" width="21.05" height="21.19" x="114.21" y="376.32" maskUnits="userSpaceOnUse"><g style="filter:url(#Adobe_OpacityMaskFilter_00000020399504585327790120000008152575196672991908_)"><defs><filter id="Adobe_OpacityMaskFilter_00000054248180387866811080000015003889482068754103_" width="21.05" height="21.19" x="114.21" y="376.32" filterUnits="userSpaceOnUse"><feFlood style="flood-color:white;flood-opacity:1" result="back"/><feBlend in="SourceGraphic" in2="back" mode="normal"/></filter></defs><linearGradient id="SVGID_00000161620826323815478090000015226465988031202710_" x1="124.732" x2="124.732" y1="397.505" y2="376.319" gradientUnits="userSpaceOnUse"><stop offset="0" style="stop-color:#fff"/><stop offset=".149" style="stop-color:#cdcdcd"/><stop offset=".384" style="stop-color:#858585"/><stop offset=".595" style="stop-color:#4c4c4c"/><stop offset=".774" style="stop-color:#232323"/><stop offset=".915" style="stop-color:#090909"/><stop offset="1" style="stop-color:#000"/></linearGradient><path style="mask:url(#SVGID_00000109028330475829766120000007509492065325941942_);fill:url(#SVGID_00000161620826323815478090000015226465988031202710_)" d="M114.25,376.32c-0.02,0.52-0.04,1.04-0.04,1.56c0,10.84,4.12,19.62,9.19,19.62c5.08,0,11.86-8.78,11.86-19.62 c0-0.53-0.03-1.05-0.06-1.56H114.25z"/></g></mask><linearGradient id="SVGID_00000081614571012909884510000015705508367904996268_" x1="124.732" x2="124.732" y1="397.505" y2="376.319" gradientUnits="userSpaceOnUse"><stop offset="0" style="stop-color:#000"/><stop offset="1" style="stop-color:#000"/></linearGradient><path style="fill:url(#SVGID_00000081614571012909884510000015705508367904996268_)" d="M114.25,376.32 c-0.02,0.52-0.04,1.04-0.04,1.56c0,10.84,4.12,19.62,9.19,19.62c5.08,0,11.86-8.78,11.86-19.62c0-0.53-0.03-1.05-0.06-1.56 H114.25z"/><defs><filter id="Adobe_OpacityMaskFilter_00000097466055600003887960000013837384533223654818_" width="20.49" height="15.45" x="114.42" y="358.26" filterUnits="userSpaceOnUse"><feFlood style="flood-color:white;flood-opacity:1" result="back"/><feBlend in="SourceGraphic" in2="back" mode="normal"/></filter></defs><mask id="SVGID_00000065789449037511074060000005331812662096318896_" width="20.49" height="15.45" x="114.42" y="358.26" maskUnits="userSpaceOnUse"><g style="filter:url(#Adobe_OpacityMaskFilter_00000097466055600003887960000013837384533223654818_)"><defs><filter id="Adobe_OpacityMaskFilter_00000001653172507177493490000010772105943606792106_" width="20.49" height="15.45" x="114.42" y="358.26" filterUnits="userSpaceOnUse"><feFlood style="flood-color:white;flood-opacity:1" result="back"/><feBlend in="SourceGraphic" in2="back" mode="normal"/></filter></defs><linearGradient id="SVGID_00000121999891039364125950000006831905324910789310_" x1="124.667" x2="124.667" y1="373.709" y2="358.263" gradientUnits="userSpaceOnUse"><stop offset="0" style="stop-color:#000"/><stop offset=".153" style="stop-color:#030303"/><stop offset=".282" style="stop-color:#0e0e0e"/><stop offset=".403" style="stop-color:#1f1f1f"/><stop offset=".518" style="stop-color:#383838"/><stop offset=".63" style="stop-color:#585858"/><stop offset=".739" style="stop-color:#7f7f7f"/><stop offset=".846" style="stop-color:#adadad"/><stop offset=".948" style="stop-color:#e1e1e1"/><stop offset="1" style="stop-color:#fff"/></linearGradient><path style="mask:url(#SVGID_00000065789449037511074060000005331812662096318896_);fill:url(#SVGID_00000121999891039364125950000006831905324910789310_)" d="M123.4,358.26c-4.4,0-8.08,6.62-8.98,15.45h20.49C133.48,364.88,127.8,358.26,123.4,358.26z"/></g></mask><linearGradient id="SVGID_00000145767463741856917270000010065157605816421803_" x1="124.667" x2="124.667" y1="373.709" y2="358.263" gradientUnits="userSpaceOnUse"><stop offset="0" style="stop-color:#fff"/><stop offset=".925" style="stop-color:#fff"/><stop offset="1" style="stop-color:#fff"/></linearGradient><path style="opacity:.7;fill:url(#SVGID_00000145767463741856917270000010065157605816421803_)" d="M123.4,358.26 c-4.4,0-8.08,6.62-8.98,15.45h20.49C133.48,364.88,127.8,358.26,123.4,358.26z"/><path d="M112.44,379.58H48.57c0.41,9.73,4.3,17.44,9.13,17.92h61.53C115.53,395.12,112.77,388.09,112.44,379.58z" class="st66"/><defs><filter id="Adobe_OpacityMaskFilter_00000080191268072841032540000014598258519711941542_" width="65.34" height="4.79" x="49.65" y="363.92" filterUnits="userSpaceOnUse"><feFlood style="flood-color:white;flood-opacity:1" result="back"/><feBlend in="SourceGraphic" in2="back" mode="normal"/></filter></defs><mask id="SVGID_00000078046724920755726410000012896785821888447158_" width="65.34" height="4.79" x="49.65" y="363.92" maskUnits="userSpaceOnUse"><g style="filter:url(#Adobe_OpacityMaskFilter_00000080191268072841032540000014598258519711941542_)"><defs><filter id="Adobe_OpacityMaskFilter_00000049217816647521326030000016675417357587531171_" width="65.34" height="4.79" x="49.65" y="363.92" filterUnits="userSpaceOnUse"><feFlood style="flood-color:white;flood-opacity:1" result="back"/><feBlend in="SourceGraphic" in2="back" mode="normal"/></filter></defs><linearGradient id="SVGID_00000103224790342043636990000009707243902871022745_" x1="82.32" x2="82.32" y1="368.705" y2="363.919" gradientUnits="userSpaceOnUse"><stop offset="0" style="stop-color:#fff"/><stop offset="1" style="stop-color:#000"/></linearGradient><path style="mask:url(#SVGID_00000078046724920755726410000012896785821888447158_);fill:url(#SVGID_00000103224790342043636990000009707243902871022745_)" d="M114.99,363.92H51.41c-0.7,1.4-1.3,3.01-1.76,4.79h63.78C113.84,366.95,114.37,365.34,114.99,363.92z"/></g></mask><linearGradient id="SVGID_00000099663752141549059860000014966733074869533600_" x1="82.32" x2="82.32" y1="368.705" y2="363.919" gradientUnits="userSpaceOnUse"><stop offset="0" style="stop-color:#fff"/><stop offset="1" style="stop-color:#fff"/></linearGradient><path style="opacity:.7;fill:url(#SVGID_00000099663752141549059860000014966733074869533600_)" d="M114.99,363.92H51.41 c-0.7,1.4-1.3,3.01-1.76,4.79h63.78C113.84,366.95,114.37,365.34,114.99,363.92z"/><path d="M113.63,387.85H49.87c1.6,5.53,4.49,9.32,7.83,9.66h61.53C116.83,395.96,114.83,392.45,113.63,387.85z" class="st50"/></g><path d="M131.43,373.88h-1.76c-1.44,0-2.71-1-3.08-2.43c-1.28-4.89-3.68-6.79-4.15-7.13l0.56-0.8l-0.29,0.4 l0.29-0.39c0.52,0.37,3.16,2.46,4.53,7.67c0.26,1,1.14,1.7,2.14,1.7h1.76c0.25,0,0.49-0.11,0.65-0.3 c0.15-0.18,0.21-0.4,0.18-0.62c-0.56-3.5-3.1-7.77-3.12-7.81c-0.14-0.23-0.06-0.53,0.17-0.67c0.23-0.14,0.53-0.06,0.67,0.17 c0.11,0.18,2.65,4.47,3.25,8.16c0.08,0.5-0.06,1.01-0.4,1.4C132.48,373.64,131.97,373.88,131.43,373.88z" class="st66"/><path d="M129.56,364.41c-0.09,0-0.18-0.02-0.26-0.08c-0.23-0.14-0.29-0.45-0.15-0.67l5.8-9.09 c0.12-0.18,0.12-0.41,0.02-0.6c-0.1-0.19-0.3-0.3-0.51-0.3h-0.65c-1.98,0-3.84,0.96-4.98,2.57c-5.6,7.89-5.72,7.98-5.8,8.05 c-0.21,0.17-0.51,0.14-0.69-0.06c-0.16-0.19-0.15-0.48,0.03-0.65c0.11-0.14,0.91-1.21,5.66-7.9c1.32-1.87,3.48-2.98,5.78-2.98 h0.65c0.58,0,1.09,0.3,1.37,0.81c0.28,0.51,0.26,1.1-0.05,1.59l-5.8,9.09C129.88,364.33,129.72,364.41,129.56,364.41z" class="st71"/><path d="M94.78,361.83c0.84-1.57,1.8-2.77,2.51-3.56H57.7c-3.16,0.31-5.91,3.73-7.56,8.77h36.07 C89.81,367.03,93.07,365,94.78,361.83z" class="st39"/><g><path d="M94.21,351.69l-30.99-7.67c-0.68-0.17-1.36-0.25-2.02-0.26v-0.01h-4.17v0.98 c-2.87,1.46-4.91,4.43-4.91,7.97c0,4.94,4.01,8.95,8.95,8.95H93c2.79,0,5.05-2.26,5.05-5.05 C98.05,354.27,96.47,352.24,94.21,351.69z" class="st72"/><path d="M89.41,361.65H57.48c-4.94,0-8.95-4.01-8.95-8.95l0,0c0-5.81,5.46-10.08,11.1-8.69l30.99,7.67 c2.26,0.56,3.84,2.58,3.84,4.91l0,0C94.46,359.38,92.2,361.65,89.41,361.65z" class="st37"/><path d="M83.41,359.71H58.4c-3.87,0-7.01-3.14-7.01-7.01v0c0-4.55,4.27-7.9,8.69-6.8l24.28,6.01 c1.77,0.44,3.01,2.02,3.01,3.84l0,0C87.37,357.93,85.59,359.71,83.41,359.71z"/></g><path d="M106.12,358.26c0.3,1.6,2.57,2.85,5.36,2.85c2.79,0,5.06-1.25,5.36-2.85H106.12z" class="st39"/></g><g><g><g><path d="M54.81,387.08c-3.97,0-7.19,3.64-7.19,8.12c0,4.49,3.22,8.13,7.19,8.13S62,399.69,62,395.2 C62,390.72,58.78,387.08,54.81,387.08z" class="st39"/></g><g><path d="M54.65,387.08c-3.89,0-7.04,3.64-7.04,8.12c0,4.49,3.15,8.13,7.04,8.13c3.89,0,7.04-3.64,7.04-8.13 C61.69,390.72,58.54,387.08,54.65,387.08z" class="st18"/></g><g><path d="M54.65,389.16c-2.89,0-5.23,2.71-5.23,6.04c0,3.34,2.34,6.04,5.23,6.04c2.89,0,5.23-2.71,5.23-6.04 C59.88,391.87,57.54,389.16,54.65,389.16z" class="st50"/></g><g><path d="M54.65,390.04c-2.47,0-4.47,2.31-4.47,5.16c0,2.85,2,5.16,4.47,5.16c2.47,0,4.47-2.31,4.47-5.16 C59.12,392.35,57.12,390.04,54.65,390.04z" class="st11"/></g><path d="M54.65,395.02c-1.7,0-3.27,0.34-4.58,0.92c-0.03-0.24-0.05-0.49-0.05-0.74c0-2.95,2.07-5.34,4.63-5.34 c2.56,0,4.63,2.39,4.63,5.34c0,0.25-0.02,0.5-0.05,0.74C57.92,395.36,56.35,395.02,54.65,395.02z" class="st38"/><path d="M49.66,395.2c0,3.18,2.23,5.76,4.99,5.76c2.76,0,4.99-2.58,4.99-5.76c0-3.18-2.23-5.76-4.99-5.76 C51.89,389.44,49.66,392.02,49.66,395.2z M50.01,395.2c0-2.96,2.08-5.36,4.64-5.36c2.56,0,4.64,2.4,4.64,5.36 c0,2.96-2.08,5.36-4.64,5.36C52.08,400.56,50.01,398.16,50.01,395.2z" class="st20"/><g><path d="M55.3,393.44c-0.84,0-1.53,0.79-1.53,1.76c0,0.97,0.68,3.32,1.53,3.32c0.84,0,1.53-2.35,1.53-3.32 C56.83,394.23,56.15,393.44,55.3,393.44z" class="st39"/></g><g><g><path d="M55.3,393.44c-0.84,0-1.53,0.79-1.53,1.76c0,0.97,0.68,1.76,1.53,1.76c0.84,0,1.53-0.79,1.53-1.76 C56.83,394.23,56.15,393.44,55.3,393.44z"/></g><g><path d="M54.65,393.44c-0.84,0-1.53,0.79-1.53,1.76c0,0.97,0.68,1.76,1.53,1.76c0.84,0,1.53-0.79,1.53-1.76 C56.18,394.23,55.49,393.44,54.65,393.44z" class="st20"/></g></g></g><path d="M56.69,387.08h-2.03c3.89,0,7.04,3.64,7.04,8.12c0,4.49-3.15,8.13-7.04,8.13h2.03c3.89,0,7.04-3.64,7.04-8.13 C63.72,390.72,60.57,387.08,56.69,387.08z"/></g><g><g><g><path d="M106.71,387.08c-3.97,0-7.19,3.64-7.19,8.12c0,4.49,3.22,8.13,7.19,8.13c3.97,0,7.19-3.64,7.19-8.13 C113.9,390.72,110.68,387.08,106.71,387.08z" class="st39"/></g><g><path d="M106.55,387.08c-3.89,0-7.04,3.64-7.04,8.12c0,4.49,3.15,8.13,7.04,8.13c3.89,0,7.04-3.64,7.04-8.13 C113.59,390.72,110.44,387.08,106.55,387.08z" class="st18"/></g><g><path d="M106.55,389.16c-2.89,0-5.23,2.71-5.23,6.04c0,3.34,2.34,6.04,5.23,6.04c2.89,0,5.23-2.71,5.23-6.04 C111.78,391.87,109.44,389.16,106.55,389.16z" class="st50"/></g><g><path d="M106.55,390.04c-2.47,0-4.47,2.31-4.47,5.16c0,2.85,2,5.16,4.47,5.16s4.47-2.31,4.47-5.16 C111.02,392.35,109.02,390.04,106.55,390.04z" class="st11"/></g><path d="M106.55,395.02c-1.7,0-3.27,0.34-4.58,0.92c-0.03-0.24-0.05-0.49-0.05-0.74c0-2.95,2.07-5.34,4.63-5.34 s4.63,2.39,4.63,5.34c0,0.25-0.02,0.5-0.05,0.74C109.82,395.36,108.25,395.02,106.55,395.02z" class="st38"/><path d="M101.56,395.2c0,3.18,2.23,5.76,4.99,5.76c2.76,0,4.99-2.58,4.99-5.76c0-3.18-2.23-5.76-4.99-5.76 C103.79,389.44,101.56,392.02,101.56,395.2z M101.91,395.2c0-2.96,2.08-5.36,4.64-5.36s4.64,2.4,4.64,5.36 c0,2.96-2.08,5.36-4.64,5.36S101.91,398.16,101.91,395.2z" class="st20"/><g><path d="M107.2,393.44c-0.84,0-1.53,0.79-1.53,1.76c0,0.97,0.68,3.32,1.53,3.32c0.84,0,1.53-2.35,1.53-3.32 C108.73,394.23,108.05,393.44,107.2,393.44z" class="st39"/></g><g><g><path d="M107.2,393.44c-0.84,0-1.53,0.79-1.53,1.76c0,0.97,0.68,1.76,1.53,1.76c0.84,0,1.53-0.79,1.53-1.76 C108.73,394.23,108.05,393.44,107.2,393.44z"/></g><g><path d="M106.55,393.44c-0.84,0-1.53,0.79-1.53,1.76c0,0.97,0.68,1.76,1.53,1.76c0.84,0,1.53-0.79,1.53-1.76 C108.08,394.23,107.39,393.44,106.55,393.44z" class="st20"/></g></g></g><path d="M108.59,387.08h-2.03c3.89,0,7.04,3.64,7.04,8.12c0,4.49-3.15,8.13-7.04,8.13h2.03c3.89,0,7.04-3.64,7.04-8.13 C115.62,390.72,112.47,387.08,108.59,387.08z"/></g></g></g></g></g></svg>